<svg width="110" height="96" viewBox="0 0 110 96" fill="none" xmlns="http://www.w3.org/2000/svg">
<path d="M23.5054 49.8082C16.2218 49.6027 3.42126 45.316 3.22808 38.0414C3.07323 32.21 1.50582 25.5117 9.37564 23.5782C15.9668 21.9588 28.0055 20.0627 31.745 26.2747C32.7994 28.0262 34.0178 29.7667 34.6418 31.6678C34.8358 32.2587 35.6717 34.4139 35.6717 32.5939C35.6717 24.5862 37.3717 17.3944 42.3343 10.3951C45.4504 5.99992 53.7443 0.850196 60.1332 3.93972C64.713 6.15438 67.6972 10.7039 70.304 14.399C73.3446 18.7089 75.2516 23.062 76.516 27.9362C76.9373 29.5604 77.9767 31.7155 77.0953 33.3565C76.5829 34.3105 75.6878 34.3479 75.6469 33.1386C75.4262 26.6009 83.3668 22.9398 90.002 21.8622C99.2821 20.355 104.397 25.2128 106.578 32.5939C108.211 38.1208 104.948 41.9428 99.5291 44.7964C99.1499 44.9961 96.4528 46.568 96.053 46.2672C95.0854 45.5394 97.4911 44.9598 97.9198 44.9598C99.763 44.9598 101.232 48.5583 101.686 49.5903C103.004 52.5887 103.003 55.7465 102.844 58.9056C102.52 65.3453 97.7776 72.5265 89.6801 73.7229C83.342 74.6595 81.2413 71.4538 78.254 67.2403C78.1051 67.0303 76.7979 64.863 78.2218 65.5516C79.5685 66.2028 79.123 69.9625 79.123 70.8902C79.123 78.2867 78.758 94.2758 66.0555 93.4159C59.5737 92.977 55.0241 87.2953 54.3397 82.2756C54.0703 80.2997 54.211 78.2697 54.211 76.2833C54.211 75.0547 54.211 74.7515 54.211 76.0926C54.211 84.4611 43.1115 90.6452 33.9337 90.5014C27.6169 90.4024 23.2758 84.1171 22.9582 79.2794C22.7793 76.5548 22.0876 73.3209 24.7928 71.4894C25.1829 71.2253 26.4021 70.9304 26.4021 71.4894C26.4021 72.9672 25.0447 73.6346 24.0847 74.7035C22.1663 76.8396 19.4536 75.1693 17.7119 73.8591C15.0123 71.8284 14.2358 69.3883 14.2358 66.3687C14.2358 63.8036 14.9243 63.4436 16.8428 61.82C18.7559 60.201 26.404 58.1429 23.6985 58.1429C22.0485 58.1429 19.5801 58.6547 19.4499 56.6721C19.2924 54.2725 20.5804 50.7887 24.0847 50.7887" stroke="white" stroke-width="5" stroke-linecap="round"/>
<path d="M55.9489 52.2596C55.9489 47.9394 61.8534 47.0568 60.5515 52.0144C60.255 53.1436 58.281 57.1203 56.2708 55.4192C55.0455 54.3823 55.7193 50.3956 57.1076 49.8082" stroke="white" stroke-width="5" stroke-linecap="round"/>
</svg>
