<svg width="163" height="146" viewBox="0 0 163 146" fill="none" xmlns="http://www.w3.org/2000/svg">
<path d="M33.9333 75.6835C22.9457 75.3645 3.63549 68.7082 3.34408 57.4122C3.11047 48.3571 0.745949 37.9561 12.618 34.9537C22.561 32.4392 40.722 29.495 46.3633 39.1409C47.9539 41.8607 49.7918 44.5633 50.7332 47.5152C51.0258 48.4329 52.2869 51.7795 52.2869 48.9533C52.2869 36.519 54.8514 25.3516 62.3377 14.483C67.0386 7.65826 79.5503 -0.338208 89.1883 4.45919C96.0971 7.8981 100.599 14.9625 104.531 20.7004C109.118 27.3928 111.995 34.1521 113.902 41.7209C114.538 44.243 116.106 47.5894 114.776 50.1375C114.003 51.6188 112.653 51.6768 112.591 49.7992C112.259 39.6474 124.237 33.9625 134.247 32.2891C148.246 29.9487 155.963 37.492 159.252 48.9533C161.715 57.5354 156.794 63.4702 148.619 67.9013C148.047 68.2114 143.978 70.6523 143.375 70.1852C141.915 69.055 145.545 68.1551 146.191 68.1551C148.972 68.1551 151.187 73.7427 151.872 75.3452C153.861 80.0011 153.86 84.9046 153.62 89.81C153.131 99.8096 145.977 110.96 133.761 112.818C124.2 114.273 121.031 109.295 116.524 102.752C116.3 102.426 114.328 99.0607 116.476 100.13C118.507 101.141 117.835 106.979 117.835 108.42C117.835 119.905 117.285 144.733 98.1223 143.397C88.3442 142.716 81.4809 133.893 80.4485 126.099C80.0421 123.031 80.2542 119.879 80.2542 116.794C80.2542 114.886 80.2542 114.416 80.2542 116.498C80.2542 129.492 63.5102 139.095 49.665 138.872C40.1358 138.718 33.587 128.958 33.1079 121.446C32.8381 117.216 31.7947 112.194 35.8755 109.35C36.4641 108.94 38.3032 108.482 38.3032 109.35C38.3032 111.645 36.2555 112.681 34.8073 114.341C31.9133 117.658 27.821 115.064 25.1936 113.03C21.1211 109.877 19.9497 106.087 19.9497 101.399C19.9497 97.4156 20.9883 96.8567 23.8826 94.3355C26.7686 91.8216 38.3061 88.6257 34.2247 88.6257C31.7356 88.6257 28.0118 89.4204 27.8155 86.3418C27.5779 82.6157 29.5209 77.2061 34.8073 77.2061" stroke="white" stroke-width="5" stroke-linecap="round"/>
<path d="M82.8762 79.4901C82.8762 72.7817 91.7834 71.4112 89.8195 79.1094C89.3722 80.8629 86.3943 87.0379 83.3617 84.3963C81.5134 82.7862 82.5298 76.5958 84.6242 75.6836" stroke="white" stroke-width="5" stroke-linecap="round"/>
</svg>
