<svg width="158" height="140" viewBox="0 0 158 140" fill="none" xmlns="http://www.w3.org/2000/svg">
<path d="M33.0874 72.5785C22.4524 72.2731 3.76206 65.9011 3.48 55.0877C3.2539 46.4195 0.965276 36.4627 12.4562 33.5886C22.0801 31.1815 39.6582 28.3631 45.1183 37.5969C46.6579 40.2005 48.4368 42.7877 49.3479 45.6135C49.6312 46.492 50.8518 49.6956 50.8518 46.9901C50.8518 35.0871 53.3339 24.3968 60.5799 13.9925C65.1299 7.45926 77.24 -0.195599 86.5686 4.39685C93.2556 7.68886 97.613 14.4515 101.419 19.9442C105.859 26.3507 108.643 32.8213 110.49 40.0667C111.105 42.4811 112.622 45.6845 111.335 48.1238C110.587 49.5418 109.28 49.5974 109.221 47.7999C108.898 38.0819 120.493 32.6398 130.181 31.0379C143.731 28.7975 151.2 36.0185 154.384 46.9901C156.768 55.2057 152.005 60.8869 144.092 65.1287C143.538 65.4255 139.6 67.7622 139.016 67.3151C137.603 66.2331 141.116 65.3716 141.742 65.3716C144.433 65.3716 146.578 70.7206 147.24 72.2546C149.165 76.7116 149.164 81.4056 148.932 86.1015C148.459 95.6739 141.534 106.348 129.711 108.127C120.456 109.519 117.389 104.754 113.027 98.4908C112.81 98.1786 110.901 94.9569 112.98 95.9805C114.947 96.9485 114.296 102.537 114.296 103.916C114.296 114.911 113.763 138.678 95.2159 137.4C85.7517 136.747 79.1087 128.302 78.1094 120.84C77.716 117.903 77.9214 114.886 77.9214 111.933C77.9214 110.106 77.9214 109.656 77.9214 111.649C77.9214 124.089 61.7149 133.281 48.314 133.067C39.0907 132.92 32.7522 123.577 32.2884 116.386C32.0273 112.336 31.0173 107.529 34.9672 104.807C35.5369 104.414 37.317 103.976 37.317 104.807C37.317 107.004 35.335 107.996 33.9333 109.584C31.1322 112.76 27.1712 110.277 24.6281 108.329C20.6864 105.311 19.5526 101.684 19.5526 97.1951C19.5526 93.3822 20.5579 92.8471 23.3592 90.4337C26.1526 88.0271 37.3198 84.9678 33.3693 84.9678C30.9602 84.9678 27.3559 85.7285 27.1659 82.7814C26.9359 79.2145 28.8166 74.0361 33.9333 74.0361" stroke="white" stroke-width="5" stroke-linecap="round"/>
<path d="M80.4595 76.2225C80.4595 69.8007 89.0808 68.4887 87.1799 75.8581C86.747 77.5366 83.8647 83.4478 80.9295 80.9191C79.1405 79.3778 80.1242 73.4518 82.1514 72.5786" stroke="white" stroke-width="5" stroke-linecap="round"/>
</svg>
