<svg width="87" height="85" viewBox="0 0 87 85" fill="none" xmlns="http://www.w3.org/2000/svg">
<path d="M18.9025 44.1156C13.2538 43.9351 3.3267 40.1698 3.17688 33.7799C3.05679 28.6576 1.84122 22.7739 7.94448 21.0755C13.0561 19.6531 22.3924 17.9876 25.2925 23.4441C26.1102 24.9827 27.0551 26.5115 27.539 28.1813C27.6895 28.7004 28.3378 30.5935 28.3378 28.9948C28.3378 21.961 29.6562 15.6439 33.5048 9.49572C35.9215 5.63508 42.3536 1.11165 47.3083 3.82543C50.8601 5.77076 53.1744 9.76695 55.1961 13.0127C57.5541 16.7985 59.0331 20.6221 60.0136 24.9036C60.3403 26.3303 61.1465 28.2233 60.4629 29.6647C60.0655 30.5027 59.3713 30.5355 59.3396 29.4733C59.1685 23.7307 65.3266 20.5148 70.4724 19.5683C77.6693 18.2443 81.6364 22.5114 83.3274 28.9948C84.5936 33.8496 82.0638 37.2067 77.8609 39.7133C77.5668 39.8887 75.4752 41.2695 75.1651 41.0053C74.4147 40.3659 76.2804 39.8569 76.6128 39.8569C78.0423 39.8569 79.1814 43.0177 79.5333 43.9242C80.5557 46.558 80.5551 49.3317 80.4319 52.1066C80.1808 57.7632 76.5026 64.071 70.2227 65.122C65.3074 65.9446 63.6783 63.1287 61.3615 59.4277C61.246 59.2433 60.2322 57.3395 61.3366 57.9444C62.381 58.5164 62.0355 61.8188 62.0355 62.6337C62.0355 69.1307 61.7524 83.1753 51.9012 82.4199C46.8744 82.0345 43.3461 77.0437 42.8153 72.6345C42.6064 70.8989 42.7155 69.1158 42.7155 67.3709C42.7155 66.2917 42.7155 66.0254 42.7155 67.2035C42.7155 74.5542 34.1076 79.9863 26.9899 79.8599C22.0911 79.773 18.7244 74.252 18.4781 70.0027C18.3394 67.6094 17.803 64.7688 19.9009 63.1601C20.2035 62.9281 21.149 62.669 21.149 63.1601C21.149 64.4581 20.0962 65.0443 19.3518 65.9833C17.864 67.8596 15.7602 66.3924 14.4094 65.2416C12.3158 63.4578 11.7136 61.3144 11.7136 58.6621C11.7136 56.409 12.2476 56.0928 13.7355 54.6666C15.2192 53.2445 21.1505 51.4367 19.0522 51.4367C17.7726 51.4367 15.8583 51.8862 15.7573 50.1447C15.6352 48.037 16.6341 44.9769 19.3518 44.9769" stroke="white" stroke-width="5" stroke-linecap="round"/>
<path d="M44.0635 46.2687C44.0635 42.4739 48.6425 41.6987 47.6329 46.0534C47.4029 47.0453 45.872 50.5383 44.3131 49.044C43.3629 48.1333 43.8854 44.6314 44.9621 44.1154" stroke="white" stroke-width="5" stroke-linecap="round"/>
</svg>
