<svg width="103" height="85" viewBox="0 0 103 85" fill="none" xmlns="http://www.w3.org/2000/svg">
<path d="M22.1252 44.1156C15.3318 43.9351 3.3929 40.1698 3.21273 33.7799C3.0683 28.6576 1.60639 22.7739 8.94651 21.0755C15.094 19.6531 26.3225 17.9876 29.8103 23.4441C30.7937 24.9827 31.93 26.5115 32.512 28.1813C32.693 28.7004 33.4727 30.5935 33.4727 28.9948C33.4727 21.961 35.0582 15.6439 39.6868 9.49572C42.5932 5.63508 50.3288 1.11165 56.2877 3.82543C60.5592 5.77076 63.3426 9.76695 65.774 13.0127C68.6098 16.7985 70.3885 20.6221 71.5678 24.9036C71.9607 26.3303 72.9302 28.2233 72.1081 29.6647C71.6302 30.5027 70.7953 30.5355 70.7572 29.4733C70.5514 23.7307 77.9575 20.5148 84.1461 19.5683C92.8016 18.2443 97.5725 22.5114 99.6063 28.9948C101.129 33.8496 98.0866 37.2067 93.0319 39.7133C92.6782 39.8887 90.1627 41.2695 89.7898 41.0053C88.8873 40.3659 91.1312 39.8569 91.5309 39.8569C93.2501 39.8569 94.62 43.0177 95.0433 43.9242C96.2729 46.558 96.2721 49.3317 96.124 52.1066C95.8219 57.7632 91.3983 64.071 83.8459 65.122C77.9343 65.9446 75.9751 63.1287 73.1889 59.4277C73.05 59.2433 71.8307 57.3395 73.1588 57.9444C74.4149 58.5164 73.9994 61.8188 73.9994 62.6337C73.9994 69.1307 73.6589 83.1753 61.8114 82.4199C55.7659 82.0345 51.5225 77.0437 50.8842 72.6345C50.6329 70.8989 50.7641 69.1158 50.7641 67.3709C50.7641 66.2917 50.7641 66.0254 50.7641 67.2035C50.7641 74.5542 40.4117 79.9863 31.8516 79.8599C25.96 79.773 21.9111 74.252 21.6149 70.0027C21.448 67.6094 20.8029 64.7688 23.326 63.1601C23.6899 62.9281 24.827 62.669 24.827 63.1601C24.827 64.4581 23.5609 65.0443 22.6656 65.9833C20.8763 67.8596 18.3461 66.3924 16.7216 65.2416C14.2038 63.4578 13.4795 61.3144 13.4795 58.6621C13.4795 56.409 14.1217 56.0928 15.9111 54.6666C17.6954 53.2445 24.8288 51.4367 22.3053 51.4367C20.7664 51.4367 18.4641 51.8862 18.3427 50.1447C18.1958 48.037 19.3971 44.9769 22.6656 44.9769" stroke="white" stroke-width="5" stroke-linecap="round"/>
<path d="M52.3851 46.2687C52.3851 42.4739 57.8922 41.6987 56.6779 46.0534C56.4014 47.0453 54.5602 50.5383 52.6853 49.044C51.5425 48.1333 52.1709 44.6314 53.4658 44.1154" stroke="white" stroke-width="5" stroke-linecap="round"/>
</svg>
