<svg width="365" height="89" viewBox="0 0 365 89" fill="none" xmlns="http://www.w3.org/2000/svg">
<rect width="365" height="89" rx="44.5" fill="#E49CD7"/>
<path d="M35.8789 61.7773C35.0716 61.7383 34.5117 61.3346 34.1992 60.5664L30.2148 48.5742L23.2812 52.0508L18.9062 60.8008C18.75 61.1133 18.5286 61.3542 18.2422 61.5234C17.9557 61.6927 17.6497 61.7773 17.3242 61.7773C17.0508 61.7773 16.7839 61.7122 16.5234 61.582C15.8724 61.2435 15.5469 60.7227 15.5469 60.0195C15.5469 59.7591 15.612 59.4922 15.7422 59.2188L20.0781 50.5078C17.0573 38.3984 15.5469 32.2721 15.5469 32.1289C15.5469 31.8164 15.651 31.4909 15.8594 31.1523C16.0677 30.8138 16.4128 30.5729 16.8945 30.4297C17.0378 30.4036 17.1745 30.3906 17.3047 30.3906C17.6302 30.3906 17.9688 30.4948 18.3203 30.7031C18.6719 30.8984 18.9128 31.237 19.043 31.7188L23.1445 48.1445L29.8047 44.8242L34.1992 31.6016C34.3815 31.1198 34.681 30.7747 35.0977 30.5664C35.3451 30.4492 35.6055 30.3906 35.8789 30.3906C36.6081 30.3906 37.1419 30.7161 37.4805 31.3672C37.5977 31.6146 37.6562 31.875 37.6562 32.1484C37.6562 32.3307 37.6302 32.5195 37.5781 32.7148L33.1055 46.0742L37.5781 59.4531C37.6302 59.6484 37.6562 59.8372 37.6562 60.0195C37.6562 60.2799 37.5716 60.5794 37.4023 60.918C37.2331 61.2565 36.9141 61.5104 36.4453 61.6797C36.263 61.7448 36.0742 61.7773 35.8789 61.7773ZM49.8047 53.3789L54.2773 51.1523L49.8047 37.7539L45.3516 51.1523L49.8047 53.3789ZM59.082 61.7773C58.2747 61.7383 57.7148 61.3346 57.4023 60.5664L55.4102 54.5508L50.6055 56.9531C50.3451 57.0703 50.0781 57.1289 49.8047 57.1289C49.5312 57.1289 49.2708 57.0703 49.0234 56.9531L44.2188 54.5508L42.207 60.5664C42.0378 61.0352 41.7383 61.3737 41.3086 61.582C41.0612 61.7122 40.8073 61.7773 40.5469 61.7773C40.3516 61.7773 40.1562 61.7448 39.9609 61.6797C39.4922 61.5104 39.1536 61.2174 38.9453 60.8008C38.8281 60.5404 38.7695 60.2799 38.7695 60.0195C38.7695 59.8372 38.7956 59.6484 38.8477 59.4531L41.0156 52.9492L39.7266 52.3047C39.0755 51.9661 38.75 51.4388 38.75 50.7227C38.75 50.4622 38.8151 50.1953 38.9453 49.9219C39.2839 49.2708 39.8047 48.9453 40.5078 48.9453C40.7682 48.9453 41.0352 49.0104 41.3086 49.1406C41.5951 49.2708 41.875 49.4076 42.1484 49.5508L48.125 31.6016C48.4896 30.7943 49.0495 30.3906 49.8047 30.3906C50.5729 30.3906 51.1328 30.7943 51.4844 31.6016L57.4805 49.5508C57.7539 49.4076 58.0273 49.2708 58.3008 49.1406C58.5742 49.0104 58.8411 48.9453 59.1016 48.9453C59.7917 48.9453 60.319 49.2708 60.6836 49.9219C60.8008 50.1953 60.8594 50.4622 60.8594 50.7227C60.8594 50.918 60.8073 51.1719 60.7031 51.4844C60.599 51.7969 60.332 52.0638 59.9023 52.2852C59.4727 52.5065 59.043 52.7279 58.6133 52.9492L60.7812 59.4531C60.8333 59.6484 60.8594 59.8372 60.8594 60.0195C60.8594 60.2799 60.7747 60.5794 60.6055 60.918C60.4362 61.2565 60.1172 61.5104 59.6484 61.6797C59.4661 61.7448 59.2773 61.7773 59.082 61.7773ZM86.9336 61.7773C86.4258 61.7773 85.9701 61.5625 85.5664 61.1328L76.4453 50.1758L74.7656 60.293C74.6745 60.7357 74.4661 61.0938 74.1406 61.3672C73.8151 61.6406 73.4375 61.7773 73.0078 61.7773C72.4089 61.7773 71.9271 61.5299 71.5625 61.0352C71.3542 60.7357 71.25 60.4036 71.25 60.0391C71.25 59.9219 71.6732 57.3177 72.5195 52.2266L65.0977 61.1328C64.694 61.5625 64.2383 61.7773 63.7305 61.7773C63.3268 61.7773 62.9492 61.6406 62.5977 61.3672C62.168 61.0026 61.9531 60.5404 61.9531 59.9805C61.9531 59.5768 62.0898 59.2057 62.3633 58.8672L73.0273 46.0742L62.3633 33.2812C62.0898 32.9427 61.9531 32.5781 61.9531 32.1875C61.9531 32.1224 61.9661 31.9596 61.9922 31.6992C62.0182 31.4258 62.2201 31.1263 62.5977 30.8008C62.9492 30.5273 63.3268 30.3906 63.7305 30.3906C63.7826 30.3906 63.9388 30.4036 64.1992 30.4297C64.4596 30.4427 64.7591 30.638 65.0977 31.0156L74.2188 41.9727L75.8984 31.8555C76.0026 31.3737 76.2435 30.9961 76.6211 30.7227C76.9336 30.5013 77.2721 30.3906 77.6367 30.3906C78.2617 30.3906 78.75 30.638 79.1016 31.1328C79.3099 31.4323 79.4141 31.7643 79.4141 32.1289C79.4141 32.2331 78.9909 34.8307 78.1445 39.9219L85.5664 31.0156C85.944 30.599 86.3997 30.3906 86.9336 30.3906C87.3372 30.3906 87.7148 30.5273 88.0664 30.8008C88.4961 31.1654 88.7109 31.6276 88.7109 32.1875C88.7109 32.5781 88.5742 32.9427 88.3008 33.2812L77.6367 46.0742L88.3008 58.8672C88.5742 59.2057 88.7109 59.5768 88.7109 59.9805C88.7109 60.0456 88.6979 60.2083 88.6719 60.4688C88.6458 60.7422 88.444 61.0417 88.0664 61.3672C87.7148 61.6406 87.3372 61.7773 86.9336 61.7773ZM110.156 61.7773C109.961 61.7773 109.766 61.7448 109.57 61.6797C109.102 61.5104 108.763 61.2174 108.555 60.8008C108.438 60.5404 108.379 60.2799 108.379 60.0195C108.379 59.8372 108.405 59.6484 108.457 59.4531L112.91 46.0742L110.039 37.4609L104.824 51.3477C104.46 52.1159 103.906 52.5 103.164 52.5C102.435 52.5 101.888 52.1159 101.523 51.3477L96.3086 37.4609L93.4375 46.0742L97.8906 59.4531C97.9427 59.6484 97.9688 59.8372 97.9688 60.0195C97.9688 60.8398 97.5716 61.3932 96.7773 61.6797C96.582 61.7448 96.3932 61.7773 96.2109 61.7773C95.8333 61.7773 95.4883 61.6667 95.1758 61.4453C94.8763 61.237 94.6615 60.944 94.5312 60.5664L89.8828 46.6406C89.8307 46.4453 89.8047 46.2565 89.8047 46.0742C89.8047 45.8919 89.8307 45.7096 89.8828 45.5273L94.5312 31.6016C94.8177 30.8464 95.3646 30.4427 96.1719 30.3906C96.9792 30.4167 97.5456 30.7943 97.8711 31.5234L103.164 45.6836L108.477 31.5234C108.802 30.7812 109.368 30.4036 110.176 30.3906C110.97 30.4427 111.517 30.8464 111.816 31.6016L116.465 45.5273C116.53 45.7096 116.562 45.8919 116.562 46.0742C116.562 46.2565 116.53 46.4453 116.465 46.6406L111.816 60.5664C111.647 61.0352 111.348 61.3737 110.918 61.582C110.671 61.7122 110.417 61.7773 110.156 61.7773ZM133.34 61.7773C132.754 61.7773 132.272 61.5299 131.895 61.0352C131.686 60.7357 131.582 60.4036 131.582 60.0391C131.582 59.9219 132.682 53.2487 134.883 40.0195L120.898 60.9961C120.547 61.5169 120.059 61.7773 119.434 61.7773C118.743 61.7773 118.229 61.4779 117.891 60.8789C117.734 60.6055 117.656 60.306 117.656 59.9805C117.656 59.8633 119.212 50.4883 122.324 31.8555C122.415 31.3737 122.65 30.9961 123.027 30.7227C123.34 30.5013 123.678 30.3906 124.043 30.3906C124.668 30.3906 125.156 30.638 125.508 31.1328C125.716 31.4323 125.82 31.7643 125.82 32.1289C125.82 32.2331 124.727 38.9128 122.539 52.168L136.523 31.1719C136.901 30.638 137.389 30.3711 137.988 30.3711C138.21 30.3711 138.431 30.4167 138.652 30.5078C139.043 30.6771 139.336 30.9375 139.531 31.2891C139.688 31.5625 139.766 31.849 139.766 32.1484C139.766 32.2526 138.21 41.6341 135.098 60.293C135.007 60.7357 134.798 61.0938 134.473 61.3672C134.147 61.6406 133.77 61.7773 133.34 61.7773ZM172.793 61.7773C171.986 61.7383 171.426 61.3346 171.113 60.5664L167.129 48.5742L160.195 52.0508L155.82 60.8008C155.664 61.1133 155.443 61.3542 155.156 61.5234C154.87 61.6927 154.564 61.7773 154.238 61.7773C153.965 61.7773 153.698 61.7122 153.438 61.582C152.786 61.2435 152.461 60.7227 152.461 60.0195C152.461 59.7591 152.526 59.4922 152.656 59.2188L156.992 50.5078C153.971 38.3984 152.461 32.2721 152.461 32.1289C152.461 31.8164 152.565 31.4909 152.773 31.1523C152.982 30.8138 153.327 30.5729 153.809 30.4297C153.952 30.4036 154.089 30.3906 154.219 30.3906C154.544 30.3906 154.883 30.4948 155.234 30.7031C155.586 30.8984 155.827 31.237 155.957 31.7188L160.059 48.1445L166.719 44.8242L171.113 31.6016C171.296 31.1198 171.595 30.7747 172.012 30.5664C172.259 30.4492 172.52 30.3906 172.793 30.3906C173.522 30.3906 174.056 30.7161 174.395 31.3672C174.512 31.6146 174.57 31.875 174.57 32.1484C174.57 32.3307 174.544 32.5195 174.492 32.7148L170.02 46.0742L174.492 59.4531C174.544 59.6484 174.57 59.8372 174.57 60.0195C174.57 60.2799 174.486 60.5794 174.316 60.918C174.147 61.2565 173.828 61.5104 173.359 61.6797C173.177 61.7448 172.988 61.7773 172.793 61.7773ZM186.719 53.3789L191.191 51.1523L186.719 37.7539L182.266 51.1523L186.719 53.3789ZM195.996 61.7773C195.189 61.7383 194.629 61.3346 194.316 60.5664L192.324 54.5508L187.52 56.9531C187.259 57.0703 186.992 57.1289 186.719 57.1289C186.445 57.1289 186.185 57.0703 185.938 56.9531L181.133 54.5508L179.121 60.5664C178.952 61.0352 178.652 61.3737 178.223 61.582C177.975 61.7122 177.721 61.7773 177.461 61.7773C177.266 61.7773 177.07 61.7448 176.875 61.6797C176.406 61.5104 176.068 61.2174 175.859 60.8008C175.742 60.5404 175.684 60.2799 175.684 60.0195C175.684 59.8372 175.71 59.6484 175.762 59.4531L177.93 52.9492L176.641 52.3047C175.99 51.9661 175.664 51.4388 175.664 50.7227C175.664 50.4622 175.729 50.1953 175.859 49.9219C176.198 49.2708 176.719 48.9453 177.422 48.9453C177.682 48.9453 177.949 49.0104 178.223 49.1406C178.509 49.2708 178.789 49.4076 179.062 49.5508L185.039 31.6016C185.404 30.7943 185.964 30.3906 186.719 30.3906C187.487 30.3906 188.047 30.7943 188.398 31.6016L194.395 49.5508C194.668 49.4076 194.941 49.2708 195.215 49.1406C195.488 49.0104 195.755 48.9453 196.016 48.9453C196.706 48.9453 197.233 49.2708 197.598 49.9219C197.715 50.1953 197.773 50.4622 197.773 50.7227C197.773 50.918 197.721 51.1719 197.617 51.4844C197.513 51.7969 197.246 52.0638 196.816 52.2852C196.387 52.5065 195.957 52.7279 195.527 52.9492L197.695 59.4531C197.747 59.6484 197.773 59.8372 197.773 60.0195C197.773 60.2799 197.689 60.5794 197.52 60.918C197.35 61.2565 197.031 61.5104 196.562 61.6797C196.38 61.7448 196.191 61.7773 195.996 61.7773ZM226.172 66.4062C225.716 66.4062 225.299 66.2305 224.922 65.8789C224.57 65.5013 224.395 65.0846 224.395 64.6289C224.395 64.1732 224.57 63.7565 224.922 63.3789L227.832 60.4688L221.621 57.3242L213.027 61.582C212.767 61.6992 212.507 61.7578 212.246 61.7578C211.882 61.7578 211.53 61.6406 211.191 61.4062C210.71 61.0417 210.469 60.5729 210.469 60C210.469 59.8828 212.025 50.5013 215.137 31.8555C215.228 31.3607 215.469 30.9766 215.859 30.7031C216.159 30.4818 216.504 30.3711 216.895 30.3711C217.493 30.3711 217.969 30.6185 218.32 31.1133C218.542 31.4128 218.652 31.7578 218.652 32.1484C218.652 32.2656 217.285 40.5078 214.551 56.875L220.84 53.7695C221.113 53.6393 221.38 53.5742 221.641 53.5742C221.901 53.5742 222.161 53.6393 222.422 53.7695L228.496 56.8359C225.762 40.4948 224.395 32.2656 224.395 32.1484C224.395 31.7578 224.518 31.3932 224.766 31.0547C225.091 30.599 225.553 30.3711 226.152 30.3711C226.543 30.3711 226.908 30.4948 227.246 30.7422C227.598 30.9896 227.819 31.3607 227.91 31.8555L232.559 59.707L232.578 59.9805C232.578 60.4622 232.409 60.8854 232.07 61.25L227.422 65.8789C227.044 66.2305 226.628 66.4062 226.172 66.4062ZM238.477 56.5039L250.059 50.7227L243.926 47.6562C243.275 47.2786 242.949 46.7513 242.949 46.0742C242.949 45.4102 243.275 44.8828 243.926 44.4922L250.059 41.4453L238.477 35.6445L241.777 45.5273C241.842 45.7096 241.875 45.8919 241.875 46.0742C241.875 46.2565 241.842 46.4453 241.777 46.6406L238.477 56.5039ZM235.449 61.7773C235.033 61.7773 234.642 61.6341 234.277 61.3477C233.887 60.957 233.691 60.5208 233.691 60.0391C233.691 59.8438 233.717 59.6484 233.77 59.4531L238.223 46.0742L233.77 32.7148C233.717 32.5065 233.691 32.3112 233.691 32.1289C233.691 31.6341 233.887 31.1979 234.277 30.8203C234.655 30.5339 235.039 30.3906 235.43 30.3906C235.69 30.3906 235.957 30.4492 236.23 30.5664L254.805 39.8633C255.43 40.2018 255.755 40.7292 255.781 41.4453C255.755 42.1484 255.43 42.6758 254.805 43.0273L248.691 46.0742L254.805 49.1406C255.43 49.4792 255.755 50.0065 255.781 50.7227C255.755 51.4388 255.43 51.9661 254.805 52.3047L236.23 61.582C235.983 61.7122 235.723 61.7773 235.449 61.7773ZM258.652 61.7773C258.118 61.7773 257.656 61.556 257.266 61.1133C257.005 60.7617 256.875 60.3971 256.875 60.0195C256.875 59.7591 256.94 59.4922 257.07 59.2188L261.387 50.5859L256.953 37.3633C256.888 37.168 256.855 36.9792 256.855 36.7969C256.855 36.4974 256.934 36.2109 257.09 35.9375C257.337 35.4948 257.708 35.2083 258.203 35.0781C270.703 31.9531 277.038 30.3906 277.207 30.3906C277.533 30.3906 277.865 30.4948 278.203 30.7031C278.555 30.8984 278.796 31.237 278.926 31.7188C278.965 31.875 278.984 32.0312 278.984 32.1875C278.984 32.5 278.88 32.8255 278.672 33.1641C278.477 33.5026 278.132 33.737 277.637 33.8672L260.918 38.0469L264.316 48.2227L271.777 44.4922C272.051 44.375 272.318 44.3164 272.578 44.3164C273.281 44.3164 273.809 44.6419 274.16 45.293C274.277 45.5664 274.336 45.8333 274.336 46.0938C274.336 46.7839 274.01 47.3047 273.359 47.6562L264.609 52.0508L261.953 57.3438L276.777 53.6523C276.934 53.6133 277.09 53.5938 277.246 53.5938C277.559 53.5938 277.884 53.6979 278.223 53.9062C278.561 54.1016 278.796 54.4466 278.926 54.9414C278.952 55.0846 278.965 55.2279 278.965 55.3711C278.965 55.6966 278.861 56.0286 278.652 56.3672C278.457 56.7057 278.118 56.9466 277.637 57.0898C265.111 60.2148 258.783 61.7773 258.652 61.7773ZM286.484 61.7773C285.885 61.7773 285.404 61.5299 285.039 61.0352C284.818 60.7357 284.707 60.3906 284.707 60C284.707 59.8828 285.964 52.3242 288.477 37.3242L283.105 42.6953C282.728 43.0339 282.311 43.2031 281.855 43.2031C281.4 43.2031 280.983 43.0339 280.605 42.6953C280.254 42.3047 280.078 41.888 280.078 41.4453C280.078 40.9896 280.254 40.5729 280.605 40.1953L289.883 30.8984C290.247 30.5599 290.664 30.3906 291.133 30.3906C291.602 30.3906 292.018 30.5599 292.383 30.8984L301.68 40.1953C302.018 40.5729 302.188 40.9896 302.188 41.4453C302.188 41.888 302.018 42.3047 301.68 42.6953C301.289 43.0339 300.866 43.2031 300.41 43.2031C299.967 43.2031 299.551 43.0339 299.16 42.6953L292.324 35.8398L288.223 60.293C288.145 60.7357 287.943 61.0938 287.617 61.3672C287.292 61.6406 286.914 61.7773 286.484 61.7773ZM314.336 61.7773C313.75 61.7773 313.262 61.5169 312.871 60.9961L303.574 47.0703C303.379 46.7318 303.281 46.3997 303.281 46.0742C303.281 45.7487 303.379 45.4232 303.574 45.0977L312.871 31.1719C313.262 30.651 313.75 30.3906 314.336 30.3906C314.961 30.4036 315.456 30.6641 315.82 31.1719L325.078 45.0977C325.286 45.4232 325.391 45.7487 325.391 46.0742C325.391 46.3997 325.286 46.7318 325.078 47.0703L315.82 60.9961C315.456 61.5039 314.961 61.7643 314.336 61.7773ZM314.336 56.8164L321.484 46.0742L314.336 35.3516L307.168 46.0742L314.336 56.8164ZM346.816 61.7773C346.374 61.7773 345.957 61.6016 345.566 61.25L333.672 49.3555L329.941 60.5664C329.811 60.944 329.59 61.237 329.277 61.4453C328.965 61.6667 328.626 61.7773 328.262 61.7773C328.079 61.7773 327.891 61.7448 327.695 61.6797C327.227 61.5104 326.888 61.2174 326.68 60.8008C326.562 60.5404 326.504 60.2799 326.504 60.0195C326.504 59.8372 326.53 59.6484 326.582 59.4531L331.035 46.0742L326.582 32.7148C326.53 32.5195 326.504 32.3307 326.504 32.1484C326.504 31.3151 326.901 30.7552 327.695 30.4688C327.891 30.4167 328.079 30.3906 328.262 30.3906C329.095 30.3906 329.655 30.7943 329.941 31.6016L333.672 42.793L345.566 30.8984C345.957 30.5599 346.374 30.3906 346.816 30.3906C347.272 30.3906 347.695 30.5599 348.086 30.8984C348.424 31.276 348.594 31.6927 348.594 32.1484C348.594 32.6042 348.424 33.0208 348.086 33.3984L335.41 46.0742L348.086 58.75C348.424 59.1276 348.594 59.5443 348.594 60C348.594 60.4557 348.424 60.8724 348.086 61.25C347.695 61.6016 347.272 61.7773 346.816 61.7773Z" fill="#A4388F"/>
</svg>
