<svg width="1148" height="542" viewBox="0 0 1148 542" fill="none" xmlns="http://www.w3.org/2000/svg">
<path d="M31.7309 481.436C25.0776 481.249 13.3848 477.363 13.2083 470.768C13.0669 465.481 11.6351 459.409 18.8239 457.656C24.8446 456.188 35.8416 454.469 39.2575 460.101C40.2206 461.688 41.3335 463.266 41.9035 464.99C42.0807 465.526 42.8444 467.479 42.8444 465.829C42.8444 458.57 44.3972 452.05 48.9303 445.704C51.7769 441.72 59.353 437.051 65.189 439.852C69.3724 441.86 72.0984 445.984 74.4797 449.334C77.2571 453.241 78.9991 457.188 80.154 461.607C80.5389 463.079 81.4884 465.033 80.6832 466.521C80.2152 467.386 79.3975 467.42 79.3602 466.323C79.1586 460.396 86.412 457.077 92.473 456.1C100.95 454.734 105.623 459.138 107.614 465.829C109.106 470.84 106.126 474.305 101.176 476.892C100.829 477.073 98.3656 478.498 98.0003 478.225C97.1164 477.566 99.314 477.04 99.7056 477.04C101.389 477.04 102.731 480.302 103.145 481.238C104.35 483.956 104.349 486.819 104.204 489.683C103.908 495.521 99.5757 502.032 92.179 503.116C86.3893 503.965 84.4705 501.059 81.7417 497.239C81.6056 497.049 80.4115 495.084 81.7123 495.708C82.9424 496.299 82.5355 499.707 82.5355 500.548C82.5355 507.254 82.202 521.749 70.5987 520.97C64.6779 520.572 60.522 515.421 59.8968 510.87C59.6508 509.079 59.7792 507.238 59.7792 505.438C59.7792 504.324 59.7792 504.049 59.7792 505.265C59.7792 512.851 49.6404 518.458 41.2567 518.328C35.4866 518.238 31.5211 512.54 31.231 508.154C31.0677 505.684 30.4358 502.752 32.9069 501.092C33.2633 500.852 34.3769 500.585 34.3769 501.092C34.3769 502.431 33.137 503.036 32.2601 504.005C30.5077 505.942 28.0297 504.428 26.4387 503.24C23.9727 501.399 23.2634 499.187 23.2634 496.449C23.2634 494.124 23.8923 493.797 25.6449 492.325C27.3924 490.858 34.3787 488.992 31.9073 488.992C30.4001 488.992 28.1453 489.456 28.0264 487.658C27.8825 485.483 29.059 482.325 32.2601 482.325" stroke="white" stroke-width="5" stroke-linecap="round"/>
<path d="M61.3669 483.658C61.3669 479.742 66.7604 478.941 65.5712 483.436C65.3003 484.46 63.4972 488.065 61.6609 486.523C60.5417 485.583 61.1571 481.968 62.4253 481.436" stroke="white" stroke-width="5" stroke-linecap="round"/>
<path d="M25.8714 63.4657C17.7474 63.2398 3.46986 58.5266 3.2544 50.5282C3.08168 44.1165 1.33341 36.7517 10.1113 34.6258C17.4629 32.8453 30.8908 30.7605 35.0618 37.5906C36.2378 39.5164 37.5967 41.4301 38.2927 43.5203C38.5091 44.1701 39.4415 46.5397 39.4415 44.5386C39.4415 35.7341 41.3376 27.8267 46.8728 20.1309C50.3486 15.2984 59.5994 9.63628 66.7255 13.0332C71.8337 15.4682 75.1622 20.4704 78.0699 24.5333C81.4613 29.272 83.5884 34.0582 84.9986 39.4174C85.4685 41.2033 86.6279 43.5728 85.6448 45.3771C85.0733 46.426 84.0748 46.4671 84.0293 45.1375C83.7831 37.9493 92.6399 33.9239 100.041 32.739C110.392 31.0818 116.097 36.4231 118.529 44.5386C120.35 50.6154 116.712 54.8177 110.667 57.9553C110.244 58.1748 107.236 59.9032 106.79 59.5725C105.711 58.7722 108.394 58.135 108.872 58.135C110.928 58.135 112.566 62.0915 113.072 63.2261C114.543 66.5229 114.542 69.9949 114.365 73.4684C114.004 80.5489 108.713 88.4446 99.6817 89.7601C92.6122 90.7898 90.2692 87.2651 86.9372 82.6325C86.7711 82.4016 85.313 80.0186 86.9013 80.7757C88.4034 81.4917 87.9065 85.6255 87.9065 86.6455C87.9065 94.778 87.4993 112.358 73.3311 111.413C66.1014 110.93 61.0269 104.683 60.2635 99.1638C59.963 96.9913 60.1199 94.7593 60.1199 92.5752C60.1199 91.2243 60.1199 90.891 60.1199 92.3656C60.1199 101.567 47.7398 108.366 37.5029 108.208C30.4573 108.099 25.6153 101.189 25.2611 95.8695C25.0616 92.8738 24.2901 89.318 27.3074 87.3044C27.7425 87.014 29.1024 86.6897 29.1024 87.3044C29.1024 88.9292 27.5883 89.6629 26.5176 90.8382C24.3778 93.1869 21.3521 91.3504 19.4094 89.9099C16.3983 87.6771 15.5322 84.9941 15.5322 81.6741C15.5322 78.8538 16.3001 78.458 18.4401 76.6728C20.5739 74.8927 29.1045 72.6298 26.0868 72.6298C24.2464 72.6298 21.4931 73.1925 21.348 71.0126C21.1723 68.3742 22.6089 64.5439 26.5176 64.5439" stroke="white" stroke-width="5" stroke-linecap="round"/>
<path d="M62.0585 66.1612C62.0585 61.4112 68.6443 60.4407 67.1922 65.8917C66.8615 67.1333 64.6597 71.5056 62.4175 69.6352C61.0509 68.4952 61.8024 64.1118 63.3509 63.4659" stroke="white" stroke-width="5" stroke-linecap="round"/>
<path d="M1045.87 54.4657C1037.75 54.2398 1023.47 49.5266 1023.25 41.5282C1023.08 35.1165 1021.33 27.7517 1030.11 25.6258C1037.46 23.8453 1050.89 21.7605 1055.06 28.5906C1056.24 30.5164 1057.6 32.4301 1058.29 34.5203C1058.51 35.1701 1059.44 37.5397 1059.44 35.5386C1059.44 26.7341 1061.34 18.8267 1066.87 11.1309C1070.35 6.29842 1079.6 0.636284 1086.73 4.03322C1091.83 6.46825 1095.16 11.4704 1098.07 15.5333C1101.46 20.272 1103.59 25.0582 1105 30.4174C1105.47 32.2033 1106.63 34.5728 1105.64 36.3771C1105.07 37.426 1104.07 37.4671 1104.03 36.1375C1103.78 28.9493 1112.64 24.9239 1120.04 23.739C1130.39 22.0818 1136.1 27.4231 1138.53 35.5386C1140.35 41.6154 1136.71 45.8177 1130.67 48.9553C1130.24 49.1748 1127.24 50.9032 1126.79 50.5725C1125.71 49.7722 1128.39 49.135 1128.87 49.135C1130.93 49.135 1132.57 53.0915 1133.07 54.2261C1134.54 57.5229 1134.54 60.9949 1134.36 64.4684C1134 71.5489 1128.71 79.4446 1119.68 80.7601C1112.61 81.7898 1110.27 78.2651 1106.94 73.6325C1106.77 73.4016 1105.31 71.0186 1106.9 71.7757C1108.4 72.4917 1107.91 76.6255 1107.91 77.6455C1107.91 85.778 1107.5 103.358 1093.33 102.413C1086.1 101.93 1081.03 95.6829 1080.26 90.1638C1079.96 87.9913 1080.12 85.7593 1080.12 83.5752C1080.12 82.2243 1080.12 81.891 1080.12 83.3656C1080.12 92.5667 1067.74 99.3662 1057.5 99.2081C1050.46 99.0993 1045.62 92.1885 1045.26 86.8695C1045.06 83.8738 1044.29 80.318 1047.31 78.3044C1047.74 78.014 1049.1 77.6897 1049.1 78.3044C1049.1 79.9292 1047.59 80.6629 1046.52 81.8382C1044.38 84.1869 1041.35 82.3504 1039.41 80.9099C1036.4 78.6771 1035.53 75.9941 1035.53 72.6741C1035.53 69.8538 1036.3 69.458 1038.44 67.6728C1040.57 65.8927 1049.1 63.6298 1046.09 63.6298C1044.25 63.6298 1041.49 64.1925 1041.35 62.0126C1041.17 59.3742 1042.61 55.5439 1046.52 55.5439" stroke="white" stroke-width="5" stroke-linecap="round"/>
<path d="M1082.06 57.1612C1082.06 52.4112 1088.64 51.4407 1087.19 56.8917C1086.86 58.1333 1084.66 62.5056 1082.42 60.6352C1081.05 59.4952 1081.8 55.1118 1083.35 54.4659" stroke="white" stroke-width="5" stroke-linecap="round"/>
<path d="M1091.33 492.495C1091.33 488.318 1097.52 487.464 1096.16 492.258C1095.85 493.349 1093.78 497.194 1091.67 495.549C1090.39 494.547 1091.09 490.693 1092.55 490.125" stroke="white" stroke-width="5" stroke-linecap="round"/>
<path d="M1057.49 497.256C1049.86 497.057 1036.44 492.913 1036.24 485.879C1036.08 480.241 1034.43 473.765 1042.68 471.896C1049.59 470.33 1062.21 468.497 1066.13 474.503C1067.23 476.196 1068.51 477.879 1069.16 479.717C1069.37 480.288 1070.24 482.372 1070.24 480.612C1070.24 472.87 1072.02 465.917 1077.23 459.15C1080.49 454.9 1089.18 449.922 1095.88 452.909C1100.68 455.05 1103.81 459.448 1106.54 463.021C1109.73 467.188 1111.73 471.397 1113.05 476.109C1113.49 477.679 1114.58 479.763 1113.66 481.35C1113.12 482.272 1112.18 482.308 1112.14 481.139C1111.91 474.818 1120.23 471.278 1127.18 470.237C1136.91 468.779 1142.27 473.476 1144.56 480.612C1146.27 485.956 1142.85 489.651 1137.17 492.41C1136.77 492.603 1133.95 494.123 1133.53 493.832C1132.51 493.128 1135.03 492.568 1135.48 492.568C1137.42 492.568 1138.95 496.047 1139.43 497.045C1140.81 499.944 1140.81 502.997 1140.64 506.051C1140.31 512.277 1135.33 519.22 1126.85 520.377C1120.2 521.283 1118 518.183 1114.87 514.11C1114.72 513.907 1113.35 511.811 1114.84 512.477C1116.25 513.107 1115.78 516.741 1115.78 517.638C1115.78 524.79 1115.4 540.248 1102.09 539.417C1095.29 538.993 1090.53 533.499 1089.81 528.646C1089.53 526.736 1089.67 524.773 1089.67 522.853C1089.67 521.665 1089.67 521.372 1089.67 522.668C1089.67 530.759 1078.04 536.738 1068.42 536.599C1061.8 536.503 1057.25 530.427 1056.92 525.749C1056.73 523.115 1056.01 519.988 1058.84 518.218C1059.25 517.962 1060.53 517.677 1060.53 518.218C1060.53 519.647 1059.1 520.292 1058.1 521.325C1056.09 523.391 1053.24 521.776 1051.42 520.509C1048.59 518.546 1047.78 516.186 1047.78 513.267C1047.78 510.787 1048.5 510.439 1050.51 508.869C1052.51 507.304 1060.53 505.314 1057.69 505.314C1055.96 505.314 1053.38 505.809 1053.24 503.892C1053.08 501.572 1054.43 498.204 1058.1 498.204" stroke="white" stroke-width="5" stroke-linecap="round"/>
</svg>
