<svg width="177" height="128" viewBox="0 0 177 128" fill="none" xmlns="http://www.w3.org/2000/svg">
<path d="M78.0699 24.1918C78.0699 4.01135 52.0258 3.1792 37.3964 3.1792C27.951 3.1792 27.2482 21.9079 32.2354 26.8952C33.469 28.1287 41.5941 34.0025 39.854 35.7426C38.3739 37.2227 34.142 36.357 32.174 36.357C28.0704 36.357 23.4108 36.9172 19.4558 38.0159C16.2425 38.9085 6.07113 41.5684 5.14026 45.7573C3.53118 52.9982 8.43518 51.8399 13.9262 51.8399C19.9995 51.8399 8.0181 59.9146 6.18474 60.9331C1.29548 63.6494 2.94241 69.4195 6.18474 72.8525C11.7657 78.7618 15.7012 80.594 23.8796 80.594C26.0574 80.594 32.2365 81.7842 33.5871 79.4881C35.85 75.6412 33.4657 80.671 32.2354 82.2529C29.3816 85.9221 28.3033 89.8946 28.3033 94.4181C28.3033 96.4991 27.9131 99.0214 28.3647 101.054C28.8927 103.43 31.3428 104.632 31.621 107.136C32.2308 112.624 38.1709 117.051 42.6803 119.056C48.5362 121.658 57.8427 115.922 62.6484 113.219C66.4599 111.075 68.9237 107.802 72.5403 105.477C73.2335 105.032 77.8539 99.8742 76.9025 103.204C76.3305 105.206 74.7521 105.07 74.7521 107.689C74.7521 111.489 75.4199 115.274 76.964 118.748C82.2906 130.733 103.506 122.562 103.506 110.454C103.506 108.29 102.501 106.264 104.612 107.382C109.12 109.769 113.759 110.435 118.743 111.314C129.503 113.213 143.303 114.436 147.497 101.852C148.182 99.7974 148.202 96.3737 145.531 96.077C145.087 96.0275 140.242 94.1168 140.493 93.8651C141.417 92.941 146.606 94.0638 147.989 93.6193C152.523 92.1619 156.495 89.5616 160.031 86.6151C164.645 82.7703 173.261 73.0266 174.224 66.7699C175.355 59.4155 169.074 57.5466 163.779 54.6047C161.673 53.4349 149.454 53.3182 150.017 51.3484C150.195 50.7225 155.084 50.0518 156.038 49.6281C159.464 48.1054 159.908 45.508 159.908 41.8866C159.908 33.6442 160.964 24.6914 156.591 17.3105C152.538 10.4723 147.137 12.758 140.002 11.9652C129.334 10.7799 121.553 11.294 111.248 14.2385C109.245 14.8107 97.8429 20.874 103.506 20.874" stroke="white" stroke-width="5" stroke-linecap="round"/>
</svg>
