<svg width="80" height="69" viewBox="0 0 80 69" fill="none" xmlns="http://www.w3.org/2000/svg">
<path d="M17.647 35.8355C12.4443 35.6913 3.3009 32.6843 3.16292 27.5812C3.05231 23.4905 1.9327 18.7917 7.55413 17.4354C12.2622 16.2994 20.8615 14.9693 23.5326 19.327C24.2858 20.5557 25.156 21.7766 25.6018 23.1102C25.7403 23.5247 26.3375 25.0366 26.3375 23.7598C26.3375 18.1425 27.5517 13.0976 31.0965 8.18757C33.3224 5.10441 39.2467 1.49193 43.8103 3.6592C47.0817 5.21276 49.2133 8.40418 51.0754 10.9963C53.2472 14.0197 54.6094 17.0733 55.5126 20.4925C55.8135 21.6319 56.556 23.1437 55.9264 24.2948C55.5604 24.964 54.921 24.9902 54.8918 24.1419C54.7342 19.5558 60.4061 16.9876 65.1456 16.2316C71.7744 15.1743 75.4283 18.5821 76.9858 23.7598C78.1521 27.6369 75.822 30.3179 71.9509 32.3198C71.68 32.4598 69.7535 33.5625 69.4679 33.3515C68.7767 32.841 70.4952 32.4344 70.8013 32.4344C72.118 32.4344 73.1671 34.9587 73.4912 35.6826C74.433 37.786 74.4324 40.0011 74.3189 42.2172C74.0876 46.7346 70.6998 51.7721 64.9157 52.6114C60.3884 53.2684 58.8879 51.0196 56.7541 48.064C56.6477 47.9166 55.7139 46.3963 56.7311 46.8793C57.693 47.3362 57.3748 49.9735 57.3748 50.6243C57.3748 55.8129 57.1141 67.0291 48.0406 66.4258C43.4107 66.118 40.1609 62.1323 39.672 58.611C39.4796 57.225 39.5801 55.801 39.5801 54.4075C39.5801 53.5456 39.5801 53.333 39.5801 54.2737C39.5801 60.1441 31.6517 64.4823 25.096 64.3814C20.5839 64.3119 17.483 59.9028 17.2562 56.5093C17.1284 54.598 16.6343 52.3294 18.5666 51.0447C18.8453 50.8594 19.7162 50.6525 19.7162 51.0447C19.7162 52.0813 18.7466 52.5494 18.0608 53.2993C16.6905 54.7978 14.7528 53.626 13.5087 52.707C11.5804 51.2824 11.0257 49.5707 11.0257 47.4525C11.0257 45.6531 11.5175 45.4006 12.888 44.2617C14.2545 43.126 19.7175 41.6822 17.785 41.6822C16.6064 41.6822 14.8432 42.0412 14.7502 40.6504C14.6377 38.9671 15.5577 36.5233 18.0608 36.5233" stroke="white" stroke-width="5" stroke-linecap="round"/>
<path d="M40.8216 37.5551C40.8216 34.5245 45.0391 33.9054 44.1092 37.3831C43.8974 38.1753 42.4874 40.9649 41.0515 39.7715C40.1763 39.0442 40.6575 36.2476 41.6492 35.8355" stroke="white" stroke-width="5" stroke-linecap="round"/>
</svg>
