<svg width="264" height="78" viewBox="0 0 264 78" fill="none" xmlns="http://www.w3.org/2000/svg">
<rect width="264" height="78" rx="10" fill="#FEC4F3"/>
<path d="M25.536 23.784C26.464 23.784 27.2747 24.008 27.968 24.456C28.672 24.8933 29.216 25.5387 29.6 26.392C29.9947 27.2453 30.192 28.28 30.192 29.496C30.192 30.6907 29.9947 31.7147 29.6 32.568C29.216 33.4213 28.672 34.072 27.968 34.52C27.2747 34.968 26.464 35.192 25.536 35.192C24.608 35.192 23.792 34.9733 23.088 34.536C22.3947 34.0987 21.8507 33.4533 21.456 32.6C21.072 31.7467 20.88 30.7173 20.88 29.512C20.88 28.328 21.072 27.304 21.456 26.44C21.8507 25.576 22.4 24.92 23.104 24.472C23.808 24.0133 24.6187 23.784 25.536 23.784ZM25.536 25.032C24.576 25.032 23.8293 25.3947 23.296 26.12C22.7627 26.8453 22.496 27.976 22.496 29.512C22.496 31.0373 22.7627 32.1573 23.296 32.872C23.84 33.5867 24.5867 33.944 25.536 33.944C27.5627 33.944 28.576 32.4613 28.576 29.496C28.576 26.52 27.5627 25.032 25.536 25.032ZM35.6701 26.376C36.1715 26.376 36.6301 26.4507 37.0461 26.6C37.4621 26.7387 37.8621 26.968 38.2461 27.288L37.5421 28.216C37.2435 28.0027 36.9501 27.848 36.6621 27.752C36.3848 27.6453 36.0755 27.592 35.7341 27.592C35.0515 27.592 34.5181 27.864 34.1341 28.408C33.7608 28.952 33.5741 29.7573 33.5741 30.824C33.5741 31.8907 33.7608 32.68 34.1341 33.192C34.5075 33.6933 35.0408 33.944 35.7341 33.944C36.0648 33.944 36.3688 33.896 36.6461 33.8C36.9235 33.6933 37.2328 33.528 37.5741 33.304L38.2461 34.264C37.4781 34.8827 36.6195 35.192 35.6701 35.192C34.5288 35.192 33.6275 34.808 32.9661 34.04C32.3155 33.272 31.9901 32.2107 31.9901 30.856C31.9901 29.96 32.1395 29.176 32.4381 28.504C32.7368 27.832 33.1581 27.3093 33.7021 26.936C34.2568 26.5627 34.9128 26.376 35.6701 26.376ZM44.6868 30.424C46.1161 30.5627 46.8308 31.224 46.8308 32.408C46.8308 33.2933 46.5054 33.9493 45.8548 34.376C45.2148 34.792 44.3561 35 43.2788 35H40.2388V26.68C41.2308 26.4773 42.1534 26.376 43.0068 26.376C44.0521 26.376 44.8788 26.5733 45.4868 26.968C46.0948 27.3627 46.3988 27.928 46.3988 28.664C46.3988 29.144 46.2548 29.5333 45.9668 29.832C45.6788 30.1307 45.2521 30.328 44.6868 30.424ZM43.0228 27.512C42.5748 27.512 42.1374 27.544 41.7108 27.608V29.992H43.2948C43.8068 29.992 44.2014 29.896 44.4788 29.704C44.7561 29.512 44.8948 29.1867 44.8948 28.728C44.8948 28.3013 44.7401 27.992 44.4308 27.8C44.1214 27.608 43.6521 27.512 43.0228 27.512ZM43.2788 33.848C43.9081 33.848 44.3988 33.7413 44.7508 33.528C45.1028 33.3147 45.2788 32.9307 45.2788 32.376C45.2788 31.9173 45.1294 31.5867 44.8308 31.384C44.5321 31.1813 44.0254 31.08 43.3108 31.08H41.7108V33.848H43.2788ZM55.5755 30.536C55.5755 30.7813 55.5648 31.032 55.5435 31.288H50.1675C50.2315 32.216 50.4662 32.8987 50.8715 33.336C51.2768 33.7733 51.7995 33.992 52.4395 33.992C52.8448 33.992 53.2182 33.9333 53.5595 33.816C53.9008 33.6987 54.2582 33.512 54.6315 33.256L55.2715 34.136C54.3755 34.84 53.3942 35.192 52.3275 35.192C51.1542 35.192 50.2368 34.808 49.5755 34.04C48.9248 33.272 48.5995 32.216 48.5995 30.872C48.5995 29.9973 48.7382 29.224 49.0155 28.552C49.3035 27.8693 49.7088 27.336 50.2315 26.952C50.7648 26.568 51.3888 26.376 52.1035 26.376C53.2235 26.376 54.0822 26.744 54.6795 27.48C55.2768 28.216 55.5755 29.2347 55.5755 30.536ZM54.1195 30.104C54.1195 29.272 53.9542 28.6373 53.6235 28.2C53.2928 27.7627 52.7968 27.544 52.1355 27.544C50.9302 27.544 50.2742 28.4293 50.1675 30.2H54.1195V30.104ZM67.1456 26.568L65.0336 30.52L67.4496 35H65.8336L63.8336 31.176H62.7136V35H61.3056V31.176H60.2016L58.1856 35H56.5856L59.0016 30.52L56.8896 26.568H58.4256L60.1856 30.024H61.3056V26.568H62.7136V30.024H63.8496L65.6256 26.568H67.1456ZM74.7313 33.032C74.7313 33.3733 74.7899 33.6293 74.9073 33.8C75.0246 33.96 75.2006 34.0827 75.4353 34.168L75.0993 35.192C74.6619 35.1387 74.3099 35.016 74.0433 34.824C73.7766 34.632 73.5793 34.3333 73.4513 33.928C72.8859 34.7707 72.0486 35.192 70.9393 35.192C70.1073 35.192 69.4513 34.9573 68.9713 34.488C68.4913 34.0187 68.2513 33.4053 68.2513 32.648C68.2513 31.752 68.5713 31.064 69.2113 30.584C69.8619 30.104 70.7793 29.864 71.9633 29.864H73.2593V29.24C73.2593 28.6427 73.1153 28.216 72.8273 27.96C72.5393 27.704 72.0966 27.576 71.4993 27.576C70.8806 27.576 70.1233 27.7253 69.2273 28.024L68.8593 26.952C69.9046 26.568 70.8753 26.376 71.7713 26.376C72.7633 26.376 73.5046 26.6213 73.9953 27.112C74.4859 27.592 74.7313 28.28 74.7313 29.176V33.032ZM71.2753 34.088C72.1179 34.088 72.7793 33.6507 73.2593 32.776V30.84H72.1553C70.5979 30.84 69.8193 31.416 69.8193 32.568C69.8193 33.0693 69.9419 33.448 70.1873 33.704C70.4326 33.96 70.7953 34.088 71.2753 34.088ZM84.2664 26.376C85.0024 26.376 85.6424 26.5573 86.1864 26.92C86.7304 27.2827 87.1464 27.7947 87.4344 28.456C87.733 29.1173 87.8824 29.8907 87.8824 30.776C87.8824 31.608 87.7384 32.36 87.4504 33.032C87.173 33.6933 86.757 34.2213 86.2024 34.616C85.6584 35 85.0077 35.192 84.2504 35.192C83.2264 35.192 82.405 34.8347 81.7864 34.12C81.1677 33.3947 80.8157 32.4507 80.7304 31.288H79.2264V35H77.7544V26.568H79.2264V30.104H80.7464C80.8637 29.0053 81.2317 28.1093 81.8504 27.416C82.4797 26.7227 83.285 26.376 84.2664 26.376ZM84.2504 34.008C84.9757 34.008 85.4984 33.736 85.8184 33.192C86.1384 32.648 86.2984 31.8427 86.2984 30.776C86.2984 29.752 86.1224 28.9627 85.7704 28.408C85.4184 27.8533 84.917 27.576 84.2664 27.576C82.9117 27.576 82.2344 28.648 82.2344 30.792C82.2344 31.816 82.405 32.6107 82.7464 33.176C83.0877 33.7307 83.589 34.008 84.2504 34.008ZM100.013 33.816H101.293V37.4H100.093L99.8529 35H90.3169V26.568H91.7569V33.816H94.4609V26.568H95.8689V33.816H98.5729V26.568H100.013V33.816ZM109.611 35H108.155V31.192C108.155 30.552 108.177 29.944 108.219 29.368C108.262 28.792 108.299 28.4133 108.331 28.232L104.795 35H103.051V26.568H104.507V30.376C104.507 30.9413 104.486 31.528 104.443 32.136C104.401 32.7333 104.369 33.1173 104.347 33.288L107.835 26.568H109.611V35ZM119.205 35H117.749V31.192C117.749 30.552 117.77 29.944 117.813 29.368C117.856 28.792 117.893 28.4133 117.925 28.232L114.389 35H112.645V26.568H114.101V30.376C114.101 30.9413 114.08 31.528 114.037 32.136C113.994 32.7333 113.962 33.1173 113.941 33.288L117.429 26.568H119.205V35ZM115.893 24.712C115.242 24.712 114.693 24.5467 114.245 24.216C113.808 23.8747 113.557 23.416 113.493 22.84L114.469 22.632C114.576 22.9733 114.741 23.2187 114.965 23.368C115.2 23.5173 115.509 23.592 115.893 23.592C116.277 23.592 116.592 23.5173 116.837 23.368C117.082 23.208 117.258 22.9627 117.365 22.632L118.341 22.84C118.277 23.416 118.016 23.8747 117.557 24.216C117.109 24.5467 116.554 24.712 115.893 24.712ZM122.623 32.968C122.943 32.968 123.209 33.0747 123.423 33.288C123.636 33.5013 123.743 33.7627 123.743 34.072C123.743 34.4027 123.647 34.7813 123.455 35.208L122.383 37.656H121.327L121.967 35C121.828 34.8933 121.716 34.76 121.631 34.6C121.556 34.44 121.519 34.264 121.519 34.072C121.519 33.7627 121.625 33.5013 121.839 33.288C122.052 33.0747 122.313 32.968 122.623 32.968ZM133.997 27.112C134.957 27.112 135.72 27.4587 136.285 28.152C136.861 28.8453 137.149 29.7893 137.149 30.984C137.149 32.3173 136.813 33.352 136.141 34.088C135.469 34.824 134.568 35.192 133.437 35.192C132.306 35.192 131.4 34.792 130.717 33.992C130.045 33.192 129.709 31.9813 129.709 30.36C129.709 29.1333 129.8 28.1307 129.981 27.352C130.173 26.5627 130.498 25.9173 130.957 25.416C131.426 24.904 132.082 24.504 132.925 24.216C133.554 24.0027 134.056 23.8107 134.429 23.64C134.813 23.4693 135.202 23.2507 135.597 22.984L136.221 24.088C135.848 24.3227 135.458 24.5413 135.053 24.744C134.658 24.936 134.184 25.1227 133.629 25.304C133.096 25.4853 132.674 25.6933 132.365 25.928C132.056 26.152 131.805 26.4827 131.613 26.92C131.432 27.3467 131.309 27.9333 131.245 28.68C131.544 28.1893 131.928 27.8053 132.397 27.528C132.866 27.2507 133.4 27.112 133.997 27.112ZM133.437 34.008C134.088 34.008 134.605 33.7893 134.989 33.352C135.373 32.904 135.565 32.1307 135.565 31.032C135.565 30.0613 135.405 29.3627 135.085 28.936C134.776 28.5093 134.322 28.296 133.725 28.296C133.234 28.296 132.776 28.4293 132.349 28.696C131.922 28.952 131.57 29.3467 131.293 29.88V30.904C131.293 31.896 131.48 32.664 131.853 33.208C132.237 33.7413 132.765 34.008 133.437 34.008ZM142.896 35.048C142.565 36.0293 142.101 36.8027 141.504 37.368C140.917 37.944 140.075 38.2907 138.976 38.408L138.816 37.256C139.371 37.16 139.813 37.0213 140.144 36.84C140.475 36.6587 140.736 36.424 140.928 36.136C141.131 35.8587 141.317 35.48 141.488 35H140.992L138.16 26.568H139.728L141.984 33.928L144.192 26.568H145.712L142.896 35.048ZM153.991 33.816V37.4H152.791L152.551 35H147.143L146.903 37.4H145.703V33.816H146.295C146.551 33.6453 146.754 33.4533 146.903 33.24C147.052 33.016 147.186 32.632 147.303 32.088C147.431 31.544 147.532 30.7493 147.607 29.704L147.831 26.568H153.111V33.816H153.991ZM151.639 27.736H149.159L149.031 29.512C148.956 30.504 148.871 31.2667 148.775 31.8C148.679 32.3333 148.54 32.744 148.359 33.032C148.188 33.32 147.938 33.5813 147.607 33.816H151.639V27.736ZM161.747 26.568L161.571 27.768H158.867V35H157.395V27.768H154.611V26.568H161.747ZM166.032 26.376C167.216 26.376 168.133 26.7707 168.784 27.56C169.445 28.3493 169.776 29.4213 169.776 30.776C169.776 31.6507 169.626 32.424 169.328 33.096C169.029 33.7573 168.597 34.2747 168.032 34.648C167.466 35.0107 166.794 35.192 166.016 35.192C164.832 35.192 163.909 34.7973 163.248 34.008C162.586 33.2187 162.256 32.1467 162.256 30.792C162.256 29.9173 162.405 29.1493 162.704 28.488C163.002 27.816 163.434 27.2987 164 26.936C164.565 26.5627 165.242 26.376 166.032 26.376ZM166.032 27.56C164.57 27.56 163.84 28.6373 163.84 30.792C163.84 32.936 164.565 34.008 166.016 34.008C167.466 34.008 168.192 32.9307 168.192 30.776C168.192 28.632 167.472 27.56 166.032 27.56ZM184.698 35H183.258L182.874 31.016C182.831 30.6 182.805 30.1413 182.794 29.64C182.783 29.128 182.778 28.5787 182.778 27.992L180.858 34.072H179.466L177.674 28.008C177.674 29.416 177.653 30.4133 177.61 31L177.306 35H175.882L176.634 26.568H178.538L180.186 32.6L181.994 26.568H183.93L184.698 35ZM190.344 26.376C191.528 26.376 192.446 26.7707 193.096 27.56C193.758 28.3493 194.088 29.4213 194.088 30.776C194.088 31.6507 193.939 32.424 193.64 33.096C193.342 33.7573 192.91 34.2747 192.344 34.648C191.779 35.0107 191.107 35.192 190.328 35.192C189.144 35.192 188.222 34.7973 187.56 34.008C186.899 33.2187 186.568 32.1467 186.568 30.792C186.568 29.9173 186.718 29.1493 187.016 28.488C187.315 27.816 187.747 27.2987 188.312 26.936C188.878 26.5627 189.555 26.376 190.344 26.376ZM190.344 27.56C188.883 27.56 188.152 28.6373 188.152 30.792C188.152 32.936 188.878 34.008 190.328 34.008C191.779 34.008 192.504 32.9307 192.504 30.776C192.504 28.632 191.784 27.56 190.344 27.56ZM200.392 26.376C201.469 26.376 202.259 26.76 202.76 27.528C203.261 28.296 203.512 29.3787 203.512 30.776C203.512 32.0987 203.224 33.1653 202.648 33.976C202.072 34.7867 201.256 35.192 200.2 35.192C199.261 35.192 198.525 34.872 197.992 34.232V38.232L196.52 38.408V26.568H197.784L197.896 27.704C198.205 27.2773 198.579 26.952 199.016 26.728C199.453 26.4933 199.912 26.376 200.392 26.376ZM199.848 33.992C201.235 33.992 201.928 32.92 201.928 30.776C201.928 28.6213 201.293 27.544 200.024 27.544C199.608 27.544 199.229 27.6667 198.888 27.912C198.547 28.1573 198.248 28.472 197.992 28.856V32.968C198.205 33.2987 198.472 33.5547 198.792 33.736C199.112 33.9067 199.464 33.992 199.848 33.992ZM209.092 26.376C209.593 26.376 210.052 26.4507 210.468 26.6C210.884 26.7387 211.284 26.968 211.668 27.288L210.964 28.216C210.665 28.0027 210.372 27.848 210.084 27.752C209.807 27.6453 209.497 27.592 209.156 27.592C208.473 27.592 207.94 27.864 207.556 28.408C207.183 28.952 206.996 29.7573 206.996 30.824C206.996 31.8907 207.183 32.68 207.556 33.192C207.929 33.6933 208.463 33.944 209.156 33.944C209.487 33.944 209.791 33.896 210.068 33.8C210.345 33.6933 210.655 33.528 210.996 33.304L211.668 34.264C210.9 34.8827 210.041 35.192 209.092 35.192C207.951 35.192 207.049 34.808 206.388 34.04C205.737 33.272 205.412 32.2107 205.412 30.856C205.412 29.96 205.561 29.176 205.86 28.504C206.159 27.832 206.58 27.3093 207.124 26.936C207.679 26.5627 208.335 26.376 209.092 26.376ZM219.981 26.568L217.421 30.472L220.285 35H218.541L216.205 31.112H215.133V35H213.661V26.568H215.133V29.96H216.237L218.365 26.568H219.981ZM224.985 26.376C226.169 26.376 227.086 26.7707 227.737 27.56C228.398 28.3493 228.729 29.4213 228.729 30.776C228.729 31.6507 228.58 32.424 228.281 33.096C227.982 33.7573 227.55 34.2747 226.985 34.648C226.42 35.0107 225.748 35.192 224.969 35.192C223.785 35.192 222.862 34.7973 222.201 34.008C221.54 33.2187 221.209 32.1467 221.209 30.792C221.209 29.9173 221.358 29.1493 221.657 28.488C221.956 27.816 222.388 27.2987 222.953 26.936C223.518 26.5627 224.196 26.376 224.985 26.376ZM224.985 27.56C223.524 27.56 222.793 28.6373 222.793 30.792C222.793 32.936 223.518 34.008 224.969 34.008C226.42 34.008 227.145 32.9307 227.145 30.776C227.145 28.632 226.425 27.56 224.985 27.56ZM237.721 35H236.265V31.192C236.265 30.552 236.286 29.944 236.329 29.368C236.371 28.792 236.409 28.4133 236.441 28.232L232.905 35H231.161V26.568H232.617V30.376C232.617 30.9413 232.595 31.528 232.553 32.136C232.51 32.7333 232.478 33.1173 232.457 33.288L235.945 26.568H237.721V35ZM234.409 24.712C233.758 24.712 233.209 24.5467 232.761 24.216C232.323 23.8747 232.073 23.416 232.009 22.84L232.985 22.632C233.091 22.9733 233.257 23.2187 233.481 23.368C233.715 23.5173 234.025 23.592 234.409 23.592C234.793 23.592 235.107 23.5173 235.353 23.368C235.598 23.208 235.774 22.9627 235.881 22.632L236.857 22.84C236.793 23.416 236.531 23.8747 236.073 24.216C235.625 24.5467 235.07 24.712 234.409 24.712ZM25.2 46.112C26.16 46.112 26.9227 46.4587 27.488 47.152C28.064 47.8453 28.352 48.7893 28.352 49.984C28.352 51.3173 28.016 52.352 27.344 53.088C26.672 53.824 25.7707 54.192 24.64 54.192C23.5093 54.192 22.6027 53.792 21.92 52.992C21.248 52.192 20.912 50.9813 20.912 49.36C20.912 48.1333 21.0027 47.1307 21.184 46.352C21.376 45.5627 21.7013 44.9173 22.16 44.416C22.6293 43.904 23.2853 43.504 24.128 43.216C24.7573 43.0027 25.2587 42.8107 25.632 42.64C26.016 42.4693 26.4053 42.2507 26.8 41.984L27.424 43.088C27.0507 43.3227 26.6613 43.5413 26.256 43.744C25.8613 43.936 25.3867 44.1227 24.832 44.304C24.2987 44.4853 23.8773 44.6933 23.568 44.928C23.2587 45.152 23.008 45.4827 22.816 45.92C22.6347 46.3467 22.512 46.9333 22.448 47.68C22.7467 47.1893 23.1307 46.8053 23.6 46.528C24.0693 46.2507 24.6027 46.112 25.2 46.112ZM24.64 53.008C25.2907 53.008 25.808 52.7893 26.192 52.352C26.576 51.904 26.768 51.1307 26.768 50.032C26.768 49.0613 26.608 48.3627 26.288 47.936C25.9787 47.5093 25.5253 47.296 24.928 47.296C24.4373 47.296 23.9787 47.4293 23.552 47.696C23.1253 47.952 22.7733 48.3467 22.496 48.88V49.904C22.496 50.896 22.6827 51.664 23.056 52.208C23.44 52.7413 23.968 53.008 24.64 53.008ZM34.6576 45.376C35.735 45.376 36.5243 45.76 37.0256 46.528C37.527 47.296 37.7776 48.3787 37.7776 49.776C37.7776 51.0987 37.4896 52.1653 36.9136 52.976C36.3376 53.7867 35.5216 54.192 34.4656 54.192C33.527 54.192 32.791 53.872 32.2576 53.232V57.232L30.7856 57.408V45.568H32.0496L32.1616 46.704C32.471 46.2773 32.8443 45.952 33.2816 45.728C33.719 45.4933 34.1776 45.376 34.6576 45.376ZM34.1136 52.992C35.5003 52.992 36.1936 51.92 36.1936 49.776C36.1936 47.6213 35.559 46.544 34.2896 46.544C33.8736 46.544 33.495 46.6667 33.1536 46.912C32.8123 47.1573 32.5136 47.472 32.2576 47.856V51.968C32.471 52.2987 32.7376 52.5547 33.0576 52.736C33.3776 52.9067 33.7296 52.992 34.1136 52.992ZM46.8456 54H45.3896V50.192C45.3896 49.552 45.411 48.944 45.4536 48.368C45.4963 47.792 45.5336 47.4133 45.5656 47.232L42.0296 54H40.2856V45.568H41.7416V49.376C41.7416 49.9413 41.7203 50.528 41.6776 51.136C41.635 51.7333 41.603 52.1173 41.5816 52.288L45.0696 45.568H46.8456V54ZM51.9594 45.376C52.4927 45.376 52.9887 45.4667 53.4474 45.648C53.9167 45.8187 54.29 46.0747 54.5674 46.416C54.8554 46.7573 54.9994 47.168 54.9994 47.648C54.9994 48.1173 54.8607 48.5013 54.5834 48.8C54.3167 49.0987 53.89 49.328 53.3034 49.488C54.0074 49.6053 54.5407 49.824 54.9034 50.144C55.266 50.464 55.4474 50.9227 55.4474 51.52C55.4474 52.3947 55.106 53.0613 54.4234 53.52C53.7514 53.968 52.8927 54.192 51.8474 54.192C50.578 54.192 49.4954 53.84 48.5994 53.136L49.3674 52.224C49.7407 52.4907 50.114 52.688 50.4874 52.816C50.8714 52.944 51.3087 53.008 51.7994 53.008C53.1754 53.008 53.8634 52.5067 53.8634 51.504C53.8634 51.0133 53.666 50.672 53.2714 50.48C52.8874 50.2773 52.3487 50.176 51.6554 50.176H50.5354L50.6314 49.024H51.4954C52.0927 49.024 52.5727 48.9173 52.9354 48.704C53.298 48.4907 53.4794 48.16 53.4794 47.712C53.4794 47.296 53.3247 46.9973 53.0154 46.816C52.706 46.624 52.3007 46.528 51.7994 46.528C51.362 46.528 50.9727 46.5867 50.6314 46.704C50.3007 46.8107 49.9647 46.9813 49.6234 47.216L48.9194 46.336C49.346 46.016 49.8047 45.776 50.2954 45.616C50.786 45.456 51.3407 45.376 51.9594 45.376ZM58.2634 51.968C58.5834 51.968 58.85 52.0747 59.0634 52.288C59.2767 52.5013 59.3834 52.7627 59.3834 53.072C59.3834 53.4027 59.2874 53.7813 59.0954 54.208L58.0234 56.656H56.9674L57.6074 54C57.4687 53.8933 57.3567 53.76 57.2714 53.6C57.1967 53.44 57.1594 53.264 57.1594 53.072C57.1594 52.7627 57.266 52.5013 57.4794 52.288C57.6927 52.0747 57.954 51.968 58.2634 51.968ZM71.6535 45.568L71.4775 46.768H68.7735V54H67.3015V46.768H64.5175V45.568H71.6535ZM77.0483 45.376C78.1256 45.376 78.9149 45.76 79.4163 46.528C79.9176 47.296 80.1683 48.3787 80.1683 49.776C80.1683 51.0987 79.8803 52.1653 79.3043 52.976C78.7283 53.7867 77.9123 54.192 76.8563 54.192C75.9176 54.192 75.1816 53.872 74.6483 53.232V57.232L73.1763 57.408V45.568H74.4403L74.5523 46.704C74.8616 46.2773 75.2349 45.952 75.6723 45.728C76.1096 45.4933 76.5683 45.376 77.0483 45.376ZM76.5043 52.992C77.8909 52.992 78.5843 51.92 78.5843 49.776C78.5843 47.6213 77.9496 46.544 76.6803 46.544C76.2643 46.544 75.8856 46.6667 75.5443 46.912C75.2029 47.1573 74.9043 47.472 74.6483 47.856V51.968C74.8616 52.2987 75.1283 52.5547 75.4483 52.736C75.7683 52.9067 76.1203 52.992 76.5043 52.992ZM85.8443 45.376C87.0283 45.376 87.9456 45.7707 88.5963 46.56C89.2576 47.3493 89.5883 48.4213 89.5883 49.776C89.5883 50.6507 89.4389 51.424 89.1403 52.096C88.8416 52.7573 88.4096 53.2747 87.8443 53.648C87.2789 54.0107 86.6069 54.192 85.8283 54.192C84.6443 54.192 83.7216 53.7973 83.0603 53.008C82.3989 52.2187 82.0683 51.1467 82.0683 49.792C82.0683 48.9173 82.2176 48.1493 82.5163 47.488C82.8149 46.816 83.2469 46.2987 83.8123 45.936C84.3776 45.5627 85.0549 45.376 85.8443 45.376ZM85.8443 46.56C84.3829 46.56 83.6523 47.6373 83.6523 49.792C83.6523 51.936 84.3776 53.008 85.8283 53.008C87.2789 53.008 88.0043 51.9307 88.0043 49.776C88.0043 47.632 87.2843 46.56 85.8443 46.56ZM96.948 54V46.768H93.492V54H92.02V45.568H98.42V54H96.948ZM108.017 54H106.562V50.192C106.562 49.552 106.583 48.944 106.626 48.368C106.668 47.792 106.706 47.4133 106.738 47.232L103.202 54H101.458V45.568H102.914V49.376C102.914 49.9413 102.892 50.528 102.85 51.136C102.807 51.7333 102.775 52.1173 102.754 52.288L106.242 45.568H108.017V54ZM116.843 45.568V54H115.371V50.48C115.062 50.768 114.678 50.9973 114.219 51.168C113.771 51.328 113.307 51.408 112.827 51.408C112.027 51.408 111.425 51.1947 111.019 50.768C110.614 50.3307 110.411 49.712 110.411 48.912V45.568H111.883V48.736C111.883 49.2693 111.99 49.6587 112.203 49.904C112.427 50.1387 112.769 50.256 113.227 50.256C113.601 50.256 113.99 50.1707 114.395 50C114.811 49.8293 115.137 49.6107 115.371 49.344V45.568H116.843ZM126.247 49.536C126.247 49.7813 126.237 50.032 126.215 50.288H120.839C120.903 51.216 121.138 51.8987 121.543 52.336C121.949 52.7733 122.471 52.992 123.111 52.992C123.517 52.992 123.89 52.9333 124.231 52.816C124.573 52.6987 124.93 52.512 125.303 52.256L125.943 53.136C125.047 53.84 124.066 54.192 122.999 54.192C121.826 54.192 120.909 53.808 120.247 53.04C119.597 52.272 119.271 51.216 119.271 49.872C119.271 48.9973 119.41 48.224 119.687 47.552C119.975 46.8693 120.381 46.336 120.903 45.952C121.437 45.568 122.061 45.376 122.775 45.376C123.895 45.376 124.754 45.744 125.351 46.48C125.949 47.216 126.247 48.2347 126.247 49.536ZM124.791 49.104C124.791 48.272 124.626 47.6373 124.295 47.2C123.965 46.7627 123.469 46.544 122.807 46.544C121.602 46.544 120.946 47.4293 120.839 49.2H124.791V49.104ZM131.67 45.376C132.171 45.376 132.63 45.4507 133.046 45.6C133.462 45.7387 133.862 45.968 134.246 46.288L133.542 47.216C133.243 47.0027 132.95 46.848 132.662 46.752C132.385 46.6453 132.075 46.592 131.734 46.592C131.051 46.592 130.518 46.864 130.134 47.408C129.761 47.952 129.574 48.7573 129.574 49.824C129.574 50.8907 129.761 51.68 130.134 52.192C130.507 52.6933 131.041 52.944 131.734 52.944C132.065 52.944 132.369 52.896 132.646 52.8C132.923 52.6933 133.233 52.528 133.574 52.304L134.246 53.264C133.478 53.8827 132.619 54.192 131.67 54.192C130.529 54.192 129.627 53.808 128.966 53.04C128.315 52.272 127.99 51.2107 127.99 49.856C127.99 48.96 128.139 48.176 128.438 47.504C128.737 46.832 129.158 46.3093 129.702 45.936C130.257 45.5627 130.913 45.376 131.67 45.376ZM142.559 45.568L139.999 49.472L142.863 54H141.119L138.783 50.112H137.711V54H136.239V45.568H137.711V48.96H138.815L140.943 45.568H142.559ZM151.096 54H149.64V50.192C149.64 49.552 149.661 48.944 149.704 48.368C149.746 47.792 149.784 47.4133 149.816 47.232L146.28 54H144.536V45.568H145.992V49.376C145.992 49.9413 145.97 50.528 145.928 51.136C145.885 51.7333 145.853 52.1173 145.832 52.288L149.32 45.568H151.096V54ZM160.689 54H159.233V50.192C159.233 49.552 159.255 48.944 159.297 48.368C159.34 47.792 159.377 47.4133 159.409 47.232L155.873 54H154.129V45.568H155.585V49.376C155.585 49.9413 155.564 50.528 155.521 51.136C155.479 51.7333 155.447 52.1173 155.425 52.288L158.913 45.568H160.689V54ZM157.377 43.712C156.727 43.712 156.177 43.5467 155.729 43.216C155.292 42.8747 155.041 42.416 154.977 41.84L155.953 41.632C156.06 41.9733 156.225 42.2187 156.449 42.368C156.684 42.5173 156.993 42.592 157.377 42.592C157.761 42.592 158.076 42.5173 158.321 42.368C158.567 42.208 158.743 41.9627 158.849 41.632L159.825 41.84C159.761 42.416 159.5 42.8747 159.041 43.216C158.593 43.5467 158.039 43.712 157.377 43.712ZM174.278 45.568L171.718 49.472L174.582 54H172.838L170.502 50.112H169.43V54H167.958V45.568H169.43V48.96H170.534L172.662 45.568H174.278ZM179.282 45.376C180.466 45.376 181.383 45.7707 182.034 46.56C182.695 47.3493 183.026 48.4213 183.026 49.776C183.026 50.6507 182.876 51.424 182.578 52.096C182.279 52.7573 181.847 53.2747 181.282 53.648C180.716 54.0107 180.044 54.192 179.266 54.192C178.082 54.192 177.159 53.7973 176.498 53.008C175.836 52.2187 175.506 51.1467 175.506 49.792C175.506 48.9173 175.655 48.1493 175.954 47.488C176.252 46.816 176.684 46.2987 177.25 45.936C177.815 45.5627 178.492 45.376 179.282 45.376ZM179.282 46.56C177.82 46.56 177.09 47.6373 177.09 49.792C177.09 51.936 177.815 53.008 179.266 53.008C180.716 53.008 181.442 51.9307 181.442 49.776C181.442 47.632 180.722 46.56 179.282 46.56ZM191.778 45.568L189.218 49.472L192.082 54H190.338L188.002 50.112H186.93V54H185.458V45.568H186.93V48.96H188.034L190.162 45.568H191.778ZM199.45 45.568L199.274 46.768H196.57V54H195.098V46.768H192.314V45.568H199.45ZM206.935 49.536C206.935 49.7813 206.924 50.032 206.903 50.288H201.527C201.591 51.216 201.826 51.8987 202.231 52.336C202.636 52.7733 203.159 52.992 203.799 52.992C204.204 52.992 204.578 52.9333 204.919 52.816C205.26 52.6987 205.618 52.512 205.991 52.256L206.631 53.136C205.735 53.84 204.754 54.192 203.687 54.192C202.514 54.192 201.596 53.808 200.935 53.04C200.284 52.272 199.959 51.216 199.959 49.872C199.959 48.9973 200.098 48.224 200.375 47.552C200.663 46.8693 201.068 46.336 201.591 45.952C202.124 45.568 202.748 45.376 203.463 45.376C204.583 45.376 205.442 45.744 206.039 46.48C206.636 47.216 206.935 48.2347 206.935 49.536ZM205.479 49.104C205.479 48.272 205.314 47.6373 204.983 47.2C204.652 46.7627 204.156 46.544 203.495 46.544C202.29 46.544 201.634 47.4293 201.527 49.2H205.479V49.104ZM215.846 54H214.39V50.192C214.39 49.552 214.411 48.944 214.454 48.368C214.496 47.792 214.534 47.4133 214.566 47.232L211.03 54H209.286V45.568H210.742V49.376C210.742 49.9413 210.72 50.528 210.678 51.136C210.635 51.7333 210.603 52.1173 210.582 52.288L214.07 45.568H215.846V54ZM212.534 43.712C211.883 43.712 211.334 43.5467 210.886 43.216C210.448 42.8747 210.198 42.416 210.134 41.84L211.11 41.632C211.216 41.9733 211.382 42.2187 211.606 42.368C211.84 42.5173 212.15 42.592 212.534 42.592C212.918 42.592 213.232 42.5173 213.478 42.368C213.723 42.208 213.899 41.9627 214.006 41.632L214.982 41.84C214.918 42.416 214.656 42.8747 214.198 43.216C213.75 43.5467 213.195 43.712 212.534 43.712ZM225.055 45.568V54H223.583V46.768H220.975L220.735 49.584C220.639 50.7253 220.517 51.5787 220.367 52.144C220.229 52.7093 220.005 53.1467 219.695 53.456C219.397 53.7547 218.938 54 218.319 54.192L217.951 53.024C218.314 52.896 218.57 52.7307 218.719 52.528C218.869 52.3253 218.981 52.016 219.055 51.6C219.13 51.184 219.21 50.4587 219.295 49.424L219.631 45.568H225.055ZM230.69 48.288C231.949 48.288 232.861 48.5333 233.426 49.024C233.991 49.5147 234.274 50.2133 234.274 51.12C234.274 52.0693 233.954 52.7893 233.314 53.28C232.685 53.76 231.901 54 230.962 54H228.098V45.568H229.57V48.288H230.69ZM230.834 52.848C231.431 52.848 231.89 52.7147 232.21 52.448C232.541 52.1813 232.706 51.7387 232.706 51.12C232.706 50.5333 232.551 50.1013 232.242 49.824C231.943 49.5467 231.421 49.408 230.674 49.408H229.57V52.848H230.834Z" fill="#6F1B5B"/>
</svg>
