<svg width="264" height="78" viewBox="0 0 264 78" fill="none" xmlns="http://www.w3.org/2000/svg">
<rect width="264" height="78" rx="10" fill="#FEC4F3"/>
<path d="M21.456 35H19.984L19.6 30.024C19.44 28.072 19.3493 26.5733 19.328 25.528L16.944 33.752H15.52L13.008 25.512C13.008 26.8453 12.9387 28.3867 12.8 30.136L12.432 35H10.992L11.904 23.976H13.952L16.272 31.992L18.48 23.976H20.544L21.456 35ZM30.5331 35H29.0771V31.192C29.0771 30.552 29.0985 29.944 29.1411 29.368C29.1838 28.792 29.2211 28.4133 29.2531 28.232L25.7171 35H23.9731V26.568H25.4291V30.376C25.4291 30.9413 25.4078 31.528 25.3651 32.136C25.3225 32.7333 25.2905 33.1173 25.2691 33.288L28.7571 26.568H30.5331V35ZM39.7429 26.568V35H38.2709V27.768H35.6629L35.4229 30.584C35.3269 31.7253 35.2042 32.5787 35.0549 33.144C34.9162 33.7093 34.6922 34.1467 34.3829 34.456C34.0842 34.7547 33.6255 35 33.0069 35.192L32.6389 34.024C33.0015 33.896 33.2575 33.7307 33.4069 33.528C33.5562 33.3253 33.6682 33.016 33.7429 32.6C33.8175 32.184 33.8975 31.4587 33.9829 30.424L34.3189 26.568H39.7429ZM48.4656 33.032C48.4656 33.3733 48.5243 33.6293 48.6416 33.8C48.759 33.96 48.935 34.0827 49.1696 34.168L48.8336 35.192C48.3963 35.1387 48.0443 35.016 47.7776 34.824C47.511 34.632 47.3136 34.3333 47.1856 33.928C46.6203 34.7707 45.783 35.192 44.6736 35.192C43.8416 35.192 43.1856 34.9573 42.7056 34.488C42.2256 34.0187 41.9856 33.4053 41.9856 32.648C41.9856 31.752 42.3056 31.064 42.9456 30.584C43.5963 30.104 44.5136 29.864 45.6976 29.864H46.9936V29.24C46.9936 28.6427 46.8496 28.216 46.5616 27.96C46.2736 27.704 45.831 27.576 45.2336 27.576C44.615 27.576 43.8576 27.7253 42.9616 28.024L42.5936 26.952C43.639 26.568 44.6096 26.376 45.5056 26.376C46.4976 26.376 47.239 26.6213 47.7296 27.112C48.2203 27.592 48.4656 28.28 48.4656 29.176V33.032ZM45.0096 34.088C45.8523 34.088 46.5136 33.6507 46.9936 32.776V30.84H45.8896C44.3323 30.84 43.5536 31.416 43.5536 32.568C43.5536 33.0693 43.6763 33.448 43.9216 33.704C44.167 33.96 44.5296 34.088 45.0096 34.088ZM57.2648 26.568V35H55.7928V31.768H53.9528L52.1768 35H50.5288L52.5448 31.432C51.5528 30.9627 51.0568 30.2 51.0568 29.144C51.0568 28.312 51.3554 27.6773 51.9528 27.24C52.5501 26.792 53.3874 26.568 54.4648 26.568H57.2648ZM55.7928 30.648V27.704H54.4328C53.8248 27.704 53.3661 27.8213 53.0568 28.056C52.7581 28.28 52.6088 28.6427 52.6088 29.144C52.6088 29.6773 52.7474 30.0613 53.0248 30.296C53.3128 30.5307 53.7714 30.648 54.4008 30.648H55.7928ZM67.7036 26.376C68.8876 26.376 69.805 26.7707 70.4556 27.56C71.117 28.3493 71.4476 29.4213 71.4476 30.776C71.4476 31.6507 71.2983 32.424 70.9996 33.096C70.701 33.7573 70.269 34.2747 69.7036 34.648C69.1383 35.0107 68.4663 35.192 67.6876 35.192C66.5036 35.192 65.581 34.7973 64.9196 34.008C64.2583 33.2187 63.9276 32.1467 63.9276 30.792C63.9276 29.9173 64.077 29.1493 64.3756 28.488C64.6743 27.816 65.1063 27.2987 65.6716 26.936C66.237 26.5627 66.9143 26.376 67.7036 26.376ZM67.7036 27.56C66.2423 27.56 65.5116 28.6373 65.5116 30.792C65.5116 32.936 66.237 34.008 67.6876 34.008C69.1383 34.008 69.8636 32.9307 69.8636 30.776C69.8636 28.632 69.1436 27.56 67.7036 27.56ZM76.9514 26.376C77.4527 26.376 77.9114 26.4507 78.3274 26.6C78.7434 26.7387 79.1434 26.968 79.5274 27.288L78.8234 28.216C78.5247 28.0027 78.2314 27.848 77.9434 27.752C77.666 27.6453 77.3567 27.592 77.0154 27.592C76.3327 27.592 75.7994 27.864 75.4154 28.408C75.042 28.952 74.8554 29.7573 74.8554 30.824C74.8554 31.8907 75.042 32.68 75.4154 33.192C75.7887 33.6933 76.322 33.944 77.0154 33.944C77.346 33.944 77.65 33.896 77.9274 33.8C78.2047 33.6933 78.514 33.528 78.8554 33.304L79.5274 34.264C78.7594 34.8827 77.9007 35.192 76.9514 35.192C75.81 35.192 74.9087 34.808 74.2474 34.04C73.5967 33.272 73.2714 32.2107 73.2714 30.856C73.2714 29.96 73.4207 29.176 73.7194 28.504C74.018 27.832 74.4394 27.3093 74.9834 26.936C75.538 26.5627 76.194 26.376 76.9514 26.376ZM86.496 35V31.288H82.992V35H81.52V26.568H82.992V30.104H86.496V26.568H87.968V35H86.496ZM94.1724 26.376C95.3564 26.376 96.2737 26.7707 96.9244 27.56C97.5857 28.3493 97.9164 29.4213 97.9164 30.776C97.9164 31.6507 97.767 32.424 97.4684 33.096C97.1697 33.7573 96.7377 34.2747 96.1724 34.648C95.607 35.0107 94.935 35.192 94.1564 35.192C92.9724 35.192 92.0497 34.7973 91.3884 34.008C90.727 33.2187 90.3964 32.1467 90.3964 30.792C90.3964 29.9173 90.5457 29.1493 90.8444 28.488C91.143 27.816 91.575 27.2987 92.1404 26.936C92.7057 26.5627 93.383 26.376 94.1724 26.376ZM94.1724 27.56C92.711 27.56 91.9804 28.6373 91.9804 30.792C91.9804 32.936 92.7057 34.008 94.1564 34.008C95.607 34.008 96.3324 32.9307 96.3324 30.776C96.3324 28.632 95.6124 27.56 94.1724 27.56ZM104.796 30.424C106.225 30.5627 106.94 31.224 106.94 32.408C106.94 33.2933 106.615 33.9493 105.964 34.376C105.324 34.792 104.465 35 103.388 35H100.348V26.68C101.34 26.4773 102.263 26.376 103.116 26.376C104.161 26.376 104.988 26.5733 105.596 26.968C106.204 27.3627 106.508 27.928 106.508 28.664C106.508 29.144 106.364 29.5333 106.076 29.832C105.788 30.1307 105.361 30.328 104.796 30.424ZM103.132 27.512C102.684 27.512 102.247 27.544 101.82 27.608V29.992H103.404C103.916 29.992 104.311 29.896 104.588 29.704C104.865 29.512 105.004 29.1867 105.004 28.728C105.004 28.3013 104.849 27.992 104.54 27.8C104.231 27.608 103.761 27.512 103.132 27.512ZM103.388 33.848C104.017 33.848 104.508 33.7413 104.86 33.528C105.212 33.3147 105.388 32.9307 105.388 32.376C105.388 31.9173 105.239 31.5867 104.94 31.384C104.641 31.1813 104.135 31.08 103.42 31.08H101.82V33.848H103.388ZM114.903 33.032C114.903 33.3733 114.962 33.6293 115.079 33.8C115.196 33.96 115.372 34.0827 115.607 34.168L115.271 35.192C114.834 35.1387 114.482 35.016 114.215 34.824C113.948 34.632 113.751 34.3333 113.623 33.928C113.058 34.7707 112.22 35.192 111.111 35.192C110.279 35.192 109.623 34.9573 109.143 34.488C108.663 34.0187 108.423 33.4053 108.423 32.648C108.423 31.752 108.743 31.064 109.383 30.584C110.034 30.104 110.951 29.864 112.135 29.864H113.431V29.24C113.431 28.6427 113.287 28.216 112.999 27.96C112.711 27.704 112.268 27.576 111.671 27.576C111.052 27.576 110.295 27.7253 109.399 28.024L109.031 26.952C110.076 26.568 111.047 26.376 111.943 26.376C112.935 26.376 113.676 26.6213 114.167 27.112C114.658 27.592 114.903 28.28 114.903 29.176V33.032ZM111.447 34.088C112.29 34.088 112.951 33.6507 113.431 32.776V30.84H112.327C110.77 30.84 109.991 31.416 109.991 32.568C109.991 33.0693 110.114 33.448 110.359 33.704C110.604 33.96 110.967 34.088 111.447 34.088ZM125.233 26.376C125.734 26.376 126.193 26.4507 126.609 26.6C127.025 26.7387 127.425 26.968 127.809 27.288L127.105 28.216C126.806 28.0027 126.513 27.848 126.225 27.752C125.947 27.6453 125.638 27.592 125.297 27.592C124.614 27.592 124.081 27.864 123.697 28.408C123.323 28.952 123.137 29.7573 123.137 30.824C123.137 31.8907 123.323 32.68 123.697 33.192C124.07 33.6933 124.603 33.944 125.297 33.944C125.627 33.944 125.931 33.896 126.209 33.8C126.486 33.6933 126.795 33.528 127.137 33.304L127.809 34.264C127.041 34.8827 126.182 35.192 125.233 35.192C124.091 35.192 123.19 34.808 122.529 34.04C121.878 33.272 121.553 32.2107 121.553 30.856C121.553 29.96 121.702 29.176 122.001 28.504C122.299 27.832 122.721 27.3093 123.265 26.936C123.819 26.5627 124.475 26.376 125.233 26.376ZM142.292 35H140.852L140.468 31.016C140.425 30.6 140.398 30.1413 140.388 29.64C140.377 29.128 140.372 28.5787 140.372 27.992L138.452 34.072H137.06L135.268 28.008C135.268 29.416 135.246 30.4133 135.204 31L134.9 35H133.476L134.228 26.568H136.132L137.78 32.6L139.588 26.568H141.524L142.292 35ZM150.45 33.032C150.45 33.3733 150.509 33.6293 150.626 33.8C150.743 33.96 150.919 34.0827 151.154 34.168L150.818 35.192C150.381 35.1387 150.029 35.016 149.762 34.824C149.495 34.632 149.298 34.3333 149.17 33.928C148.605 34.7707 147.767 35.192 146.658 35.192C145.826 35.192 145.17 34.9573 144.69 34.488C144.21 34.0187 143.97 33.4053 143.97 32.648C143.97 31.752 144.29 31.064 144.93 30.584C145.581 30.104 146.498 29.864 147.682 29.864H148.978V29.24C148.978 28.6427 148.834 28.216 148.546 27.96C148.258 27.704 147.815 27.576 147.218 27.576C146.599 27.576 145.842 27.7253 144.946 28.024L144.578 26.952C145.623 26.568 146.594 26.376 147.49 26.376C148.482 26.376 149.223 26.6213 149.714 27.112C150.205 27.592 150.45 28.28 150.45 29.176V33.032ZM146.994 34.088C147.837 34.088 148.498 33.6507 148.978 32.776V30.84H147.874C146.317 30.84 145.538 31.416 145.538 32.568C145.538 33.0693 145.661 33.448 145.906 33.704C146.151 33.96 146.514 34.088 146.994 34.088ZM157.345 26.376C158.422 26.376 159.212 26.76 159.713 27.528C160.214 28.296 160.465 29.3787 160.465 30.776C160.465 32.0987 160.177 33.1653 159.601 33.976C159.025 34.7867 158.209 35.192 157.153 35.192C156.214 35.192 155.478 34.872 154.945 34.232V38.232L153.473 38.408V26.568H154.737L154.849 27.704C155.158 27.2773 155.532 26.952 155.969 26.728C156.406 26.4933 156.865 26.376 157.345 26.376ZM156.801 33.992C158.188 33.992 158.881 32.92 158.881 30.776C158.881 28.6213 158.246 27.544 156.977 27.544C156.561 27.544 156.182 27.6667 155.841 27.912C155.5 28.1573 155.201 28.472 154.945 28.856V32.968C155.158 33.2987 155.425 33.5547 155.745 33.736C156.065 33.9067 156.417 33.992 156.801 33.992ZM171.229 35H169.789L169.405 31.016C169.362 30.6 169.336 30.1413 169.325 29.64C169.314 29.128 169.309 28.5787 169.309 27.992L167.389 34.072H165.997L164.205 28.008C164.205 29.416 164.184 30.4133 164.141 31L163.837 35H162.413L163.165 26.568H165.069L166.717 32.6L168.525 26.568H170.461L171.229 35ZM180.076 30.536C180.076 30.7813 180.065 31.032 180.044 31.288H174.668C174.732 32.216 174.966 32.8987 175.372 33.336C175.777 33.7733 176.3 33.992 176.94 33.992C177.345 33.992 177.718 33.9333 178.06 33.816C178.401 33.6987 178.758 33.512 179.132 33.256L179.772 34.136C178.876 34.84 177.894 35.192 176.828 35.192C175.654 35.192 174.737 34.808 174.076 34.04C173.425 33.272 173.1 32.216 173.1 30.872C173.1 29.9973 173.238 29.224 173.516 28.552C173.804 27.8693 174.209 27.336 174.732 26.952C175.265 26.568 175.889 26.376 176.604 26.376C177.724 26.376 178.582 26.744 179.18 27.48C179.777 28.216 180.076 29.2347 180.076 30.536ZM178.62 30.104C178.62 29.272 178.454 28.6373 178.124 28.2C177.793 27.7627 177.297 27.544 176.636 27.544C175.43 27.544 174.774 28.4293 174.668 30.2H178.62V30.104ZM188.446 26.568V35H186.974V27.768H184.366L184.126 30.584C184.03 31.7253 183.907 32.5787 183.758 33.144C183.619 33.7093 183.395 34.1467 183.086 34.456C182.787 34.7547 182.329 35 181.71 35.192L181.342 34.024C181.705 33.896 181.961 33.7307 182.11 33.528C182.259 33.3253 182.371 33.016 182.446 32.6C182.521 32.184 182.601 31.4587 182.686 30.424L183.022 26.568H188.446ZM197.169 33.032C197.169 33.3733 197.227 33.6293 197.345 33.8C197.462 33.96 197.638 34.0827 197.873 34.168L197.537 35.192C197.099 35.1387 196.747 35.016 196.481 34.824C196.214 34.632 196.017 34.3333 195.889 33.928C195.323 34.7707 194.486 35.192 193.377 35.192C192.545 35.192 191.889 34.9573 191.409 34.488C190.929 34.0187 190.689 33.4053 190.689 32.648C190.689 31.752 191.009 31.064 191.649 30.584C192.299 30.104 193.217 29.864 194.401 29.864H195.697V29.24C195.697 28.6427 195.553 28.216 195.265 27.96C194.977 27.704 194.534 27.576 193.937 27.576C193.318 27.576 192.561 27.7253 191.665 28.024L191.297 26.952C192.342 26.568 193.313 26.376 194.209 26.376C195.201 26.376 195.942 26.6213 196.433 27.112C196.923 27.592 197.169 28.28 197.169 29.176V33.032ZM193.713 34.088C194.555 34.088 195.217 33.6507 195.697 32.776V30.84H194.593C193.035 30.84 192.257 31.416 192.257 32.568C192.257 33.0693 192.379 33.448 192.625 33.704C192.87 33.96 193.233 34.088 193.713 34.088ZM206.96 33.816V37.4H205.76L205.52 35H200.112L199.872 37.4H198.672V33.816H199.264C199.52 33.6453 199.723 33.4533 199.872 33.24C200.021 33.016 200.155 32.632 200.272 32.088C200.4 31.544 200.501 30.7493 200.576 29.704L200.8 26.568H206.08V33.816H206.96ZM204.608 27.736H202.128L202 29.512C201.925 30.504 201.84 31.2667 201.744 31.8C201.648 32.3333 201.509 32.744 201.328 33.032C201.157 33.32 200.907 33.5813 200.576 33.816H204.608V27.736ZM214.09 35V31.288H210.586V35H209.114V26.568H210.586V30.104H214.09V26.568H215.562V35H214.09ZM221.03 29.288C222.289 29.288 223.201 29.5333 223.766 30.024C224.331 30.5147 224.614 31.2133 224.614 32.12C224.614 33.0693 224.294 33.7893 223.654 34.28C223.025 34.76 222.241 35 221.302 35H218.598V26.568H220.07V29.288H221.03ZM225.83 26.568H227.302V35H225.83V26.568ZM221.174 33.848C221.771 33.848 222.23 33.7147 222.55 33.448C222.881 33.1813 223.046 32.7387 223.046 32.12C223.046 31.5333 222.891 31.1013 222.582 30.824C222.283 30.5467 221.761 30.408 221.014 30.408H220.07V33.848H221.174ZM238.604 35H237.164L236.78 31.016C236.737 30.6 236.711 30.1413 236.7 29.64C236.689 29.128 236.684 28.5787 236.684 27.992L234.764 34.072H233.372L231.58 28.008C231.58 29.416 231.559 30.4133 231.516 31L231.212 35H229.788L230.54 26.568H232.444L234.092 32.6L235.9 26.568H237.836L238.604 35ZM247.642 35H246.187V31.192C246.187 30.552 246.208 29.944 246.251 29.368C246.293 28.792 246.331 28.4133 246.363 28.232L242.827 35H241.083V26.568H242.539V30.376C242.539 30.9413 242.517 31.528 242.475 32.136C242.432 32.7333 242.4 33.1173 242.379 33.288L245.867 26.568H247.642V35ZM19.776 54H18.336L17.952 50.016C17.9093 49.6 17.8827 49.1413 17.872 48.64C17.8613 48.128 17.856 47.5787 17.856 46.992L15.936 53.072H14.544L12.752 47.008C12.752 48.416 12.7307 49.4133 12.688 50L12.384 54H10.96L11.712 45.568H13.616L15.264 51.6L17.072 45.568H19.008L19.776 54ZM28.8144 54H27.3584V50.192C27.3584 49.552 27.3797 48.944 27.4224 48.368C27.465 47.792 27.5024 47.4133 27.5344 47.232L23.9984 54H22.2544V45.568H23.7104V49.376C23.7104 49.9413 23.689 50.528 23.6464 51.136C23.6037 51.7333 23.5717 52.1173 23.5504 52.288L27.0384 45.568H28.8144V54ZM41.5441 45.568V54H31.8481V45.568H33.2881V52.816H35.9921V45.568H37.4001V52.816H40.1041V45.568H41.5441ZM50.9025 45.568L48.3425 49.472L51.2065 54H49.4625L47.1265 50.112H46.0545V54H44.5825V45.568H46.0545V48.96H47.1585L49.2865 45.568H50.9025ZM58.325 52.032C58.325 52.3733 58.3837 52.6293 58.501 52.8C58.6183 52.96 58.7943 53.0827 59.029 53.168L58.693 54.192C58.2557 54.1387 57.9037 54.016 57.637 53.824C57.3703 53.632 57.173 53.3333 57.045 52.928C56.4797 53.7707 55.6423 54.192 54.533 54.192C53.701 54.192 53.045 53.9573 52.565 53.488C52.085 53.0187 51.845 52.4053 51.845 51.648C51.845 50.752 52.165 50.064 52.805 49.584C53.4557 49.104 54.373 48.864 55.557 48.864H56.853V48.24C56.853 47.6427 56.709 47.216 56.421 46.96C56.133 46.704 55.6903 46.576 55.093 46.576C54.4743 46.576 53.717 46.7253 52.821 47.024L52.453 45.952C53.4983 45.568 54.469 45.376 55.365 45.376C56.357 45.376 57.0983 45.6213 57.589 46.112C58.0797 46.592 58.325 47.28 58.325 48.176V52.032ZM54.869 53.088C55.7117 53.088 56.373 52.6507 56.853 51.776V49.84H55.749C54.1917 49.84 53.413 50.416 53.413 51.568C53.413 52.0693 53.5357 52.448 53.781 52.704C54.0263 52.96 54.389 53.088 54.869 53.088ZM69.6041 54H68.1641L67.7801 50.016C67.7375 49.6 67.7108 49.1413 67.7001 48.64C67.6895 48.128 67.6841 47.5787 67.6841 46.992L65.7641 53.072H64.3721L62.5801 47.008C62.5801 48.416 62.5588 49.4133 62.5161 50L62.2121 54H60.7881L61.5401 45.568H63.4441L65.0921 51.6L66.9001 45.568H68.8361L69.6041 54ZM78.6425 54H77.1865V50.192C77.1865 49.552 77.2078 48.944 77.2505 48.368C77.2932 47.792 77.3305 47.4133 77.3625 47.232L73.8265 54H72.0825V45.568H73.5385V49.376C73.5385 49.9413 73.5172 50.528 73.4745 51.136C73.4318 51.7333 73.3998 52.1173 73.3785 52.288L76.8665 45.568H78.6425V54Z" fill="#6F1B5B"/>
</svg>
