<svg width="281" height="77" viewBox="0 0 281 77" fill="none" xmlns="http://www.w3.org/2000/svg">
<rect width="281" height="77" rx="10" fill="#FEC4F3"/>
<path d="M18.036 23.284C18.964 23.284 19.7747 23.508 20.468 23.956C21.172 24.3933 21.716 25.0387 22.1 25.892C22.4947 26.7453 22.692 27.78 22.692 28.996C22.692 30.1907 22.4947 31.2147 22.1 32.068C21.716 32.9213 21.172 33.572 20.468 34.02C19.7747 34.468 18.964 34.692 18.036 34.692C17.108 34.692 16.292 34.4733 15.588 34.036C14.8947 33.5987 14.3507 32.9533 13.956 32.1C13.572 31.2467 13.38 30.2173 13.38 29.012C13.38 27.828 13.572 26.804 13.956 25.94C14.3507 25.076 14.9 24.42 15.604 23.972C16.308 23.5133 17.1187 23.284 18.036 23.284ZM18.036 24.532C17.076 24.532 16.3293 24.8947 15.796 25.62C15.2627 26.3453 14.996 27.476 14.996 29.012C14.996 30.5373 15.2627 31.6573 15.796 32.372C16.34 33.0867 17.0867 33.444 18.036 33.444C20.0627 33.444 21.076 31.9613 21.076 28.996C21.076 26.02 20.0627 24.532 18.036 24.532ZM28.1739 29.988L31.1019 34.5H29.3259L27.2619 30.932L25.1659 34.5H23.5019L26.4459 30.052L23.8379 26.068H25.5659L27.3259 29.156L29.1019 26.068H30.7659L28.1739 29.988ZM38.8835 26.068V34.5H37.4115V27.268H34.8035L34.5635 30.084C34.4675 31.2253 34.3448 32.0787 34.1955 32.644C34.0568 33.2093 33.8328 33.6467 33.5235 33.956C33.2248 34.2547 32.7662 34.5 32.1475 34.692L31.7795 33.524C32.1422 33.396 32.3982 33.2307 32.5475 33.028C32.6968 32.8253 32.8088 32.516 32.8835 32.1C32.9582 31.684 33.0382 30.9587 33.1235 29.924L33.4595 26.068H38.8835ZM47.6063 32.532C47.6063 32.8733 47.6649 33.1293 47.7823 33.3C47.8996 33.46 48.0756 33.5827 48.3103 33.668L47.9743 34.692C47.5369 34.6387 47.1849 34.516 46.9183 34.324C46.6516 34.132 46.4543 33.8333 46.3263 33.428C45.7609 34.2707 44.9236 34.692 43.8143 34.692C42.9823 34.692 42.3263 34.4573 41.8463 33.988C41.3663 33.5187 41.1263 32.9053 41.1263 32.148C41.1263 31.252 41.4463 30.564 42.0863 30.084C42.7369 29.604 43.6543 29.364 44.8383 29.364H46.1343V28.74C46.1343 28.1427 45.9903 27.716 45.7023 27.46C45.4143 27.204 44.9716 27.076 44.3743 27.076C43.7556 27.076 42.9983 27.2253 42.1023 27.524L41.7343 26.452C42.7796 26.068 43.7503 25.876 44.6463 25.876C45.6383 25.876 46.3796 26.1213 46.8703 26.612C47.3609 27.092 47.6063 27.78 47.6063 28.676V32.532ZM44.1503 33.588C44.9929 33.588 45.6543 33.1507 46.1343 32.276V30.34H45.0303C43.4729 30.34 42.6943 30.916 42.6943 32.068C42.6943 32.5693 42.8169 32.948 43.0623 33.204C43.3076 33.46 43.6703 33.588 44.1503 33.588ZM59.9894 26.068L57.8774 30.02L60.2934 34.5H58.6774L56.6774 30.676H55.5574V34.5H54.1494V30.676H53.0454L51.0294 34.5H49.4294L51.8454 30.02L49.7334 26.068H51.2694L53.0294 29.524H54.1494V26.068H55.5574V29.524H56.6934L58.4694 26.068H59.9894ZM68.8974 33.316V36.9H67.6974L67.4574 34.5H62.0494L61.8094 36.9H60.6094V33.316H61.2014C61.4574 33.1453 61.66 32.9533 61.8094 32.74C61.9587 32.516 62.092 32.132 62.2094 31.588C62.3374 31.044 62.4387 30.2493 62.5134 29.204L62.7374 26.068H68.0174V33.316H68.8974ZM66.5454 27.236H64.0654L63.9374 29.012C63.8627 30.004 63.7774 30.7667 63.6814 31.3C63.5854 31.8333 63.4467 32.244 63.2654 32.532C63.0947 32.82 62.844 33.0813 62.5134 33.316H66.5454V27.236ZM76.7313 32.532C76.7313 32.8733 76.7899 33.1293 76.9073 33.3C77.0246 33.46 77.2006 33.5827 77.4353 33.668L77.0993 34.692C76.6619 34.6387 76.3099 34.516 76.0433 34.324C75.7766 34.132 75.5793 33.8333 75.4513 33.428C74.8859 34.2707 74.0486 34.692 72.9393 34.692C72.1073 34.692 71.4513 34.4573 70.9713 33.988C70.4913 33.5187 70.2513 32.9053 70.2513 32.148C70.2513 31.252 70.5713 30.564 71.2113 30.084C71.8619 29.604 72.7793 29.364 73.9633 29.364H75.2593V28.74C75.2593 28.1427 75.1153 27.716 74.8273 27.46C74.5393 27.204 74.0966 27.076 73.4993 27.076C72.8806 27.076 72.1233 27.2253 71.2273 27.524L70.8593 26.452C71.9046 26.068 72.8753 25.876 73.7713 25.876C74.7633 25.876 75.5046 26.1213 75.9953 26.612C76.4859 27.092 76.7313 27.78 76.7313 28.676V32.532ZM73.2753 33.588C74.1179 33.588 74.7793 33.1507 75.2593 32.276V30.34H74.1553C72.5979 30.34 71.8193 30.916 71.8193 32.068C71.8193 32.5693 71.9419 32.948 72.1873 33.204C72.4326 33.46 72.7953 33.588 73.2753 33.588ZM86.2664 25.876C87.0024 25.876 87.6424 26.0573 88.1864 26.42C88.7304 26.7827 89.1464 27.2947 89.4344 27.956C89.733 28.6173 89.8824 29.3907 89.8824 30.276C89.8824 31.108 89.7384 31.86 89.4504 32.532C89.173 33.1933 88.757 33.7213 88.2024 34.116C87.6584 34.5 87.0077 34.692 86.2504 34.692C85.2264 34.692 84.405 34.3347 83.7864 33.62C83.1677 32.8947 82.8157 31.9507 82.7304 30.788H81.2264V34.5H79.7544V26.068H81.2264V29.604H82.7464C82.8637 28.5053 83.2317 27.6093 83.8504 26.916C84.4797 26.2227 85.285 25.876 86.2664 25.876ZM86.2504 33.508C86.9757 33.508 87.4984 33.236 87.8184 32.692C88.1384 32.148 88.2984 31.3427 88.2984 30.276C88.2984 29.252 88.1224 28.4627 87.7704 27.908C87.4184 27.3533 86.917 27.076 86.2664 27.076C84.9117 27.076 84.2344 28.148 84.2344 30.292C84.2344 31.316 84.405 32.1107 84.7464 32.676C85.0877 33.2307 85.589 33.508 86.2504 33.508ZM102.013 33.316H103.293V36.9H102.093L101.853 34.5H92.3169V26.068H93.7569V33.316H96.4609V26.068H97.8689V33.316H100.573V26.068H102.013V33.316ZM111.611 34.5H110.155V30.692C110.155 30.052 110.177 29.444 110.219 28.868C110.262 28.292 110.299 27.9133 110.331 27.732L106.795 34.5H105.051V26.068H106.507V29.876C106.507 30.4413 106.486 31.028 106.443 31.636C106.401 32.2333 106.369 32.6173 106.347 32.788L109.835 26.068H111.611V34.5ZM121.205 34.5H119.749V30.692C119.749 30.052 119.77 29.444 119.813 28.868C119.856 28.292 119.893 27.9133 119.925 27.732L116.389 34.5H114.645V26.068H116.101V29.876C116.101 30.4413 116.08 31.028 116.037 31.636C115.994 32.2333 115.962 32.6173 115.941 32.788L119.429 26.068H121.205V34.5ZM117.893 24.212C117.242 24.212 116.693 24.0467 116.245 23.716C115.808 23.3747 115.557 22.916 115.493 22.34L116.469 22.132C116.576 22.4733 116.741 22.7187 116.965 22.868C117.2 23.0173 117.509 23.092 117.893 23.092C118.277 23.092 118.592 23.0173 118.837 22.868C119.082 22.708 119.258 22.4627 119.365 22.132L120.341 22.34C120.277 22.916 120.016 23.3747 119.557 23.716C119.109 24.0467 118.554 24.212 117.893 24.212ZM133.449 34.5V30.788H129.945V34.5H128.473V26.068H129.945V29.604H133.449V26.068H134.921V34.5H133.449ZM143.638 32.532C143.638 32.8733 143.696 33.1293 143.814 33.3C143.931 33.46 144.107 33.5827 144.342 33.668L144.006 34.692C143.568 34.6387 143.216 34.516 142.95 34.324C142.683 34.132 142.486 33.8333 142.358 33.428C141.792 34.2707 140.955 34.692 139.846 34.692C139.014 34.692 138.358 34.4573 137.878 33.988C137.398 33.5187 137.158 32.9053 137.158 32.148C137.158 31.252 137.478 30.564 138.118 30.084C138.768 29.604 139.686 29.364 140.87 29.364H142.166V28.74C142.166 28.1427 142.022 27.716 141.734 27.46C141.446 27.204 141.003 27.076 140.406 27.076C139.787 27.076 139.03 27.2253 138.134 27.524L137.766 26.452C138.811 26.068 139.782 25.876 140.678 25.876C141.67 25.876 142.411 26.1213 142.902 26.612C143.392 27.092 143.638 27.78 143.638 28.676V32.532ZM140.182 33.588C141.024 33.588 141.686 33.1507 142.166 32.276V30.34H141.062C139.504 30.34 138.726 30.916 138.726 32.068C138.726 32.5693 138.848 32.948 139.094 33.204C139.339 33.46 139.702 33.588 140.182 33.588ZM151.589 34.5V27.268H148.133V34.5H146.661V26.068H153.061V34.5H151.589ZM162.658 34.5H161.202V30.692C161.202 30.052 161.223 29.444 161.266 28.868C161.309 28.292 161.346 27.9133 161.378 27.732L157.842 34.5H156.098V26.068H157.554V29.876C157.554 30.4413 157.533 31.028 157.49 31.636C157.447 32.2333 157.415 32.6173 157.394 32.788L160.882 26.068H162.658V34.5ZM171.388 26.068L171.212 27.268H168.508V34.5H167.036V27.268H164.252V26.068H171.388ZM175.672 25.876C176.856 25.876 177.774 26.2707 178.424 27.06C179.086 27.8493 179.416 28.9213 179.416 30.276C179.416 31.1507 179.267 31.924 178.968 32.596C178.67 33.2573 178.238 33.7747 177.672 34.148C177.107 34.5107 176.435 34.692 175.656 34.692C174.472 34.692 173.55 34.2973 172.888 33.508C172.227 32.7187 171.896 31.6467 171.896 30.292C171.896 29.4173 172.046 28.6493 172.344 27.988C172.643 27.316 173.075 26.7987 173.64 26.436C174.206 26.0627 174.883 25.876 175.672 25.876ZM175.672 27.06C174.211 27.06 173.48 28.1373 173.48 30.292C173.48 32.436 174.206 33.508 175.656 33.508C177.107 33.508 177.832 32.4307 177.832 30.276C177.832 28.132 177.112 27.06 175.672 27.06ZM188.168 26.068L185.608 29.972L188.472 34.5H186.728L184.392 30.612H183.32V34.5H181.848V26.068H183.32V29.46H184.424L186.552 26.068H188.168ZM197.451 25.876C197.953 25.876 198.411 25.9507 198.827 26.1C199.243 26.2387 199.643 26.468 200.027 26.788L199.323 27.716C199.025 27.5027 198.731 27.348 198.443 27.252C198.166 27.1453 197.857 27.092 197.515 27.092C196.833 27.092 196.299 27.364 195.915 27.908C195.542 28.452 195.355 29.2573 195.355 30.324C195.355 31.3907 195.542 32.18 195.915 32.692C196.289 33.1933 196.822 33.444 197.515 33.444C197.846 33.444 198.15 33.396 198.427 33.3C198.705 33.1933 199.014 33.028 199.355 32.804L200.027 33.764C199.259 34.3827 198.401 34.692 197.451 34.692C196.31 34.692 195.409 34.308 194.747 33.54C194.097 32.772 193.771 31.7107 193.771 30.356C193.771 29.46 193.921 28.676 194.219 28.004C194.518 27.332 194.939 26.8093 195.483 26.436C196.038 26.0627 196.694 25.876 197.451 25.876ZM210.702 29.924C212.132 30.0627 212.846 30.724 212.846 31.908C212.846 32.7933 212.521 33.4493 211.87 33.876C211.23 34.292 210.372 34.5 209.294 34.5H206.254V26.18C207.246 25.9773 208.169 25.876 209.022 25.876C210.068 25.876 210.894 26.0733 211.502 26.468C212.11 26.8627 212.414 27.428 212.414 28.164C212.414 28.644 212.27 29.0333 211.982 29.332C211.694 29.6307 211.268 29.828 210.702 29.924ZM209.038 27.012C208.59 27.012 208.153 27.044 207.726 27.108V29.492H209.31C209.822 29.492 210.217 29.396 210.494 29.204C210.772 29.012 210.91 28.6867 210.91 28.228C210.91 27.8013 210.756 27.492 210.446 27.3C210.137 27.108 209.668 27.012 209.038 27.012ZM209.294 33.348C209.924 33.348 210.414 33.2413 210.766 33.028C211.118 32.8147 211.294 32.4307 211.294 31.876C211.294 31.4173 211.145 31.0867 210.846 30.884C210.548 30.6813 210.041 30.58 209.326 30.58H207.726V33.348H209.294ZM221.846 34.5H220.39V30.692C220.39 30.052 220.411 29.444 220.454 28.868C220.496 28.292 220.534 27.9133 220.566 27.732L217.03 34.5H215.286V26.068H216.742V29.876C216.742 30.4413 216.72 31.028 216.678 31.636C216.635 32.2333 216.603 32.6173 216.582 32.788L220.07 26.068H221.846V34.5ZM234.575 26.068V34.5H224.879V26.068H226.319V33.316H229.023V26.068H230.431V33.316H233.135V26.068H234.575ZM242.59 34.5V30.788H239.086V34.5H237.614V26.068H239.086V29.604H242.59V26.068H244.062V34.5H242.59ZM253.466 30.036C253.466 30.2813 253.455 30.532 253.434 30.788H248.058C248.122 31.716 248.357 32.3987 248.762 32.836C249.167 33.2733 249.69 33.492 250.33 33.492C250.735 33.492 251.109 33.4333 251.45 33.316C251.791 33.1987 252.149 33.012 252.522 32.756L253.162 33.636C252.266 34.34 251.285 34.692 250.218 34.692C249.045 34.692 248.127 34.308 247.466 33.54C246.815 32.772 246.49 31.716 246.49 30.372C246.49 29.4973 246.629 28.724 246.906 28.052C247.194 27.3693 247.599 26.836 248.122 26.452C248.655 26.068 249.279 25.876 249.994 25.876C251.114 25.876 251.973 26.244 252.57 26.98C253.167 27.716 253.466 28.7347 253.466 30.036ZM252.01 29.604C252.01 28.772 251.845 28.1373 251.514 27.7C251.183 27.2627 250.687 27.044 250.026 27.044C248.821 27.044 248.165 27.9293 248.058 29.7H252.01V29.604ZM262.377 34.5H260.921V30.692C260.921 30.052 260.942 29.444 260.985 28.868C261.028 28.292 261.065 27.9133 261.097 27.732L257.561 34.5H255.817V26.068H257.273V29.876C257.273 30.4413 257.252 31.028 257.209 31.636C257.166 32.2333 257.134 32.6173 257.113 32.788L260.601 26.068H262.377V34.5ZM259.065 24.212C258.414 24.212 257.865 24.0467 257.417 23.716C256.98 23.3747 256.729 22.916 256.665 22.34L257.641 22.132C257.748 22.4733 257.913 22.7187 258.137 22.868C258.372 23.0173 258.681 23.092 259.065 23.092C259.449 23.092 259.764 23.0173 260.009 22.868C260.254 22.708 260.43 22.4627 260.537 22.132L261.513 22.34C261.449 22.916 261.188 23.3747 260.729 23.716C260.281 24.0467 259.726 24.212 259.065 24.212ZM265.795 32.468C266.115 32.468 266.381 32.5747 266.595 32.788C266.808 33.0013 266.915 33.2627 266.915 33.572C266.915 33.8813 266.808 34.148 266.595 34.372C266.381 34.5853 266.115 34.692 265.795 34.692C265.485 34.692 265.224 34.5853 265.011 34.372C264.797 34.148 264.691 33.8813 264.691 33.572C264.691 33.2627 264.797 33.0013 265.011 32.788C265.224 32.5747 265.485 32.468 265.795 32.468ZM18.948 53.5V46.268H15.492V53.5H14.02V45.068H20.42V53.5H18.948ZM26.8335 53.548C26.5028 54.5293 26.0388 55.3027 25.4415 55.868C24.8548 56.444 24.0122 56.7907 22.9135 56.908L22.7535 55.756C23.3082 55.66 23.7508 55.5213 24.0815 55.34C24.4122 55.1587 24.6735 54.924 24.8655 54.636C25.0682 54.3587 25.2548 53.98 25.4255 53.5H24.9295L22.0975 45.068H23.6655L25.9215 52.428L28.1295 45.068H29.6495L26.8335 53.548ZM33.2563 44.876C33.7896 44.876 34.2856 44.9667 34.7443 45.148C35.2136 45.3187 35.5869 45.5747 35.8643 45.916C36.1523 46.2573 36.2963 46.668 36.2963 47.148C36.2963 47.6173 36.1576 48.0013 35.8803 48.3C35.6136 48.5987 35.1869 48.828 34.6003 48.988C35.3043 49.1053 35.8376 49.324 36.2003 49.644C36.5629 49.964 36.7443 50.4227 36.7443 51.02C36.7443 51.8947 36.4029 52.5613 35.7203 53.02C35.0483 53.468 34.1896 53.692 33.1443 53.692C31.8749 53.692 30.7923 53.34 29.8963 52.636L30.6643 51.724C31.0376 51.9907 31.4109 52.188 31.7843 52.316C32.1683 52.444 32.6056 52.508 33.0963 52.508C34.4723 52.508 35.1603 52.0067 35.1603 51.004C35.1603 50.5133 34.9629 50.172 34.5683 49.98C34.1843 49.7773 33.6456 49.676 32.9523 49.676H31.8323L31.9283 48.524H32.7923C33.3896 48.524 33.8696 48.4173 34.2323 48.204C34.5949 47.9907 34.7763 47.66 34.7763 47.212C34.7763 46.796 34.6216 46.4973 34.3123 46.316C34.0029 46.124 33.5976 46.028 33.0963 46.028C32.6589 46.028 32.2696 46.0867 31.9283 46.204C31.5976 46.3107 31.2616 46.4813 30.9203 46.716L30.2163 45.836C30.6429 45.516 31.1016 45.276 31.5923 45.116C32.0829 44.956 32.6376 44.876 33.2563 44.876ZM41.6083 47.788C42.8669 47.788 43.7789 48.0333 44.3443 48.524C44.9096 49.0147 45.1923 49.7133 45.1923 50.62C45.1923 51.5693 44.8723 52.2893 44.2323 52.78C43.6029 53.26 42.8189 53.5 41.8802 53.5H39.1763V45.068H40.6483V47.788H41.6083ZM46.4083 45.068H47.8803V53.5H46.4083V45.068ZM41.7523 52.348C42.3496 52.348 42.8083 52.2147 43.1283 51.948C43.4589 51.6813 43.6243 51.2387 43.6243 50.62C43.6243 50.0333 43.4696 49.6013 43.1603 49.324C42.8616 49.0467 42.3389 48.908 41.5923 48.908H40.6483V52.348H41.7523ZM54.7983 44.876C55.8756 44.876 56.6649 45.26 57.1663 46.028C57.6676 46.796 57.9183 47.8787 57.9183 49.276C57.9183 50.5987 57.6303 51.6653 57.0543 52.476C56.4783 53.2867 55.6623 53.692 54.6063 53.692C53.6676 53.692 52.9316 53.372 52.3983 52.732V56.732L50.9263 56.908V45.068H52.1903L52.3023 46.204C52.6116 45.7773 52.9849 45.452 53.4223 45.228C53.8596 44.9933 54.3183 44.876 54.7983 44.876ZM54.2543 52.492C55.6409 52.492 56.3343 51.42 56.3343 49.276C56.3343 47.1213 55.6996 46.044 54.4303 46.044C54.0143 46.044 53.6356 46.1667 53.2943 46.412C52.9529 46.6573 52.6543 46.972 52.3983 47.356V51.468C52.6116 51.7987 52.8783 52.0547 53.1983 52.236C53.5183 52.4067 53.8703 52.492 54.2543 52.492ZM66.9862 53.5H65.5303V49.692C65.5303 49.052 65.5516 48.444 65.5943 47.868C65.6369 47.292 65.6743 46.9133 65.7063 46.732L62.1703 53.5H60.4263V45.068H61.8823V48.876C61.8823 49.4413 61.8609 50.028 61.8183 50.636C61.7756 51.2333 61.7436 51.6173 61.7223 51.788L65.2103 45.068H66.9862V53.5ZM76.34 45.068L73.78 48.972L76.644 53.5H74.9L72.564 49.612H71.492V53.5H70.02V45.068H71.492V48.46H72.596L74.724 45.068H76.34ZM84.8769 53.5H83.4209V49.692C83.4209 49.052 83.4422 48.444 83.4849 47.868C83.5275 47.292 83.5649 46.9133 83.5969 46.732L80.0609 53.5H78.3169V45.068H79.7729V48.876C79.7729 49.4413 79.7515 50.028 79.7089 50.636C79.6662 51.2333 79.6342 51.6173 79.6129 51.788L83.1009 45.068H84.8769V53.5ZM101.841 52.316H103.121V55.9H101.921L101.681 53.5H92.145V45.068H93.585V52.316H96.289V45.068H97.697V52.316H100.401V45.068H101.841V52.316ZM111.091 49.036C111.091 49.2813 111.08 49.532 111.059 49.788H105.683C105.747 50.716 105.982 51.3987 106.387 51.836C106.792 52.2733 107.315 52.492 107.955 52.492C108.36 52.492 108.734 52.4333 109.075 52.316C109.416 52.1987 109.774 52.012 110.147 51.756L110.787 52.636C109.891 53.34 108.91 53.692 107.843 53.692C106.67 53.692 105.752 53.308 105.091 52.54C104.44 51.772 104.115 50.716 104.115 49.372C104.115 48.4973 104.254 47.724 104.531 47.052C104.819 46.3693 105.224 45.836 105.747 45.452C106.28 45.068 106.904 44.876 107.619 44.876C108.739 44.876 109.598 45.244 110.195 45.98C110.792 46.716 111.091 47.7347 111.091 49.036ZM109.635 48.604C109.635 47.772 109.47 47.1373 109.139 46.7C108.808 46.2627 108.312 46.044 107.651 46.044C106.446 46.044 105.79 46.9293 105.683 48.7H109.635V48.604ZM119.762 45.068L117.202 48.972L120.066 53.5H118.322L115.986 49.612H114.914V53.5H113.442V45.068H114.914V48.46H116.018L118.146 45.068H119.762ZM124.766 44.876C125.95 44.876 126.867 45.2707 127.518 46.06C128.179 46.8493 128.51 47.9213 128.51 49.276C128.51 50.1507 128.361 50.924 128.062 51.596C127.763 52.2573 127.331 52.7747 126.766 53.148C126.201 53.5107 125.529 53.692 124.75 53.692C123.566 53.692 122.643 53.2973 121.982 52.508C121.321 51.7187 120.99 50.6467 120.99 49.292C120.99 48.4173 121.139 47.6493 121.438 46.988C121.737 46.316 122.169 45.7987 122.734 45.436C123.299 45.0627 123.977 44.876 124.766 44.876ZM124.766 46.06C123.305 46.06 122.574 47.1373 122.574 49.292C122.574 51.436 123.299 52.508 124.75 52.508C126.201 52.508 126.926 51.4307 126.926 49.276C126.926 47.132 126.206 46.06 124.766 46.06ZM136.734 45.068V53.5H135.262V49.98C134.953 50.268 134.569 50.4973 134.11 50.668C133.662 50.828 133.198 50.908 132.718 50.908C131.918 50.908 131.315 50.6947 130.91 50.268C130.505 49.8307 130.302 49.212 130.302 48.412V45.068H131.774V48.236C131.774 48.7693 131.881 49.1587 132.094 49.404C132.318 49.6387 132.659 49.756 133.118 49.756C133.491 49.756 133.881 49.6707 134.286 49.5C134.702 49.3293 135.027 49.1107 135.262 48.844V45.068H136.734ZM143.146 53.548C142.815 54.5293 142.351 55.3027 141.754 55.868C141.167 56.444 140.325 56.7907 139.226 56.908L139.066 55.756C139.621 55.66 140.063 55.5213 140.394 55.34C140.725 55.1587 140.986 54.924 141.178 54.636C141.381 54.3587 141.567 53.98 141.738 53.5H141.242L138.41 45.068H139.978L142.234 52.428L144.442 45.068H145.962L143.146 53.548ZM153.341 45.068L153.165 46.268H150.461V53.5H148.989V46.268H146.205V45.068H153.341ZM160.57 53.5H159.098V45.068H164.362L164.17 46.284H160.57V53.5ZM168.719 44.876C169.903 44.876 170.821 45.2707 171.471 46.06C172.133 46.8493 172.463 47.9213 172.463 49.276C172.463 50.1507 172.314 50.924 172.015 51.596C171.717 52.2573 171.285 52.7747 170.719 53.148C170.154 53.5107 169.482 53.692 168.703 53.692C167.519 53.692 166.597 53.2973 165.935 52.508C165.274 51.7187 164.943 50.6467 164.943 49.292C164.943 48.4173 165.093 47.6493 165.391 46.988C165.69 46.316 166.122 45.7987 166.687 45.436C167.253 45.0627 167.93 44.876 168.719 44.876ZM168.719 46.06C167.258 46.06 166.527 47.1373 166.527 49.292C166.527 51.436 167.253 52.508 168.703 52.508C170.154 52.508 170.879 51.4307 170.879 49.276C170.879 47.132 170.159 46.06 168.719 46.06ZM178.767 44.876C179.844 44.876 180.634 45.26 181.135 46.028C181.636 46.796 181.887 47.8787 181.887 49.276C181.887 50.5987 181.599 51.6653 181.023 52.476C180.447 53.2867 179.631 53.692 178.575 53.692C177.636 53.692 176.9 53.372 176.367 52.732V56.732L174.895 56.908V45.068H176.159L176.271 46.204C176.58 45.7773 176.954 45.452 177.391 45.228C177.828 44.9933 178.287 44.876 178.767 44.876ZM178.223 52.492C179.61 52.492 180.303 51.42 180.303 49.276C180.303 47.1213 179.668 46.044 178.399 46.044C177.983 46.044 177.604 46.1667 177.263 46.412C176.922 46.6573 176.623 46.972 176.367 47.356V51.468C176.58 51.7987 176.847 52.0547 177.167 52.236C177.487 52.4067 177.839 52.492 178.223 52.492ZM190.415 45.068V53.5H188.943V46.268H186.335L186.095 49.084C185.999 50.2253 185.876 51.0787 185.727 51.644C185.588 52.2093 185.364 52.6467 185.055 52.956C184.756 53.2547 184.297 53.5 183.679 53.692L183.311 52.524C183.673 52.396 183.929 52.2307 184.079 52.028C184.228 51.8253 184.34 51.516 184.415 51.1C184.489 50.684 184.569 49.9587 184.655 48.924L184.991 45.068H190.415ZM196.626 44.876C197.81 44.876 198.727 45.2707 199.378 46.06C200.039 46.8493 200.37 47.9213 200.37 49.276C200.37 50.1507 200.22 50.924 199.922 51.596C199.623 52.2573 199.191 52.7747 198.626 53.148C198.06 53.5107 197.388 53.692 196.61 53.692C195.426 53.692 194.503 53.2973 193.842 52.508C193.18 51.7187 192.85 50.6467 192.85 49.292C192.85 48.4173 192.999 47.6493 193.298 46.988C193.596 46.316 194.028 45.7987 194.594 45.436C195.159 45.0627 195.836 44.876 196.626 44.876ZM196.626 46.06C195.164 46.06 194.434 47.1373 194.434 49.292C194.434 51.436 195.159 52.508 196.61 52.508C198.06 52.508 198.786 51.4307 198.786 49.276C198.786 47.132 198.066 46.06 196.626 46.06Z" fill="#6F1B5B"/>
</svg>
