<svg width="264" height="78" viewBox="0 0 264 78" fill="none" xmlns="http://www.w3.org/2000/svg">
<rect width="264" height="78" rx="10" fill="#FEC4F3"/>
<path d="M22.456 36H20.984L20.6 31.024C20.44 29.072 20.3493 27.5733 20.328 26.528L17.944 34.752H16.52L14.008 26.512C14.008 27.8453 13.9387 29.3867 13.8 31.136L13.432 36H11.992L12.904 24.976H14.952L17.272 32.992L19.48 24.976H21.544L22.456 36ZM29.9491 36V32.288H26.4451V36H24.9731V27.568H26.4451V31.104H29.9491V27.568H31.4211V36H29.9491ZM37.6255 27.376C38.8095 27.376 39.7268 27.7707 40.3775 28.56C41.0388 29.3493 41.3695 30.4213 41.3695 31.776C41.3695 32.6507 41.2202 33.424 40.9215 34.096C40.6228 34.7573 40.1908 35.2747 39.6255 35.648C39.0602 36.0107 38.3882 36.192 37.6095 36.192C36.4255 36.192 35.5028 35.7973 34.8415 35.008C34.1802 34.2187 33.8495 33.1467 33.8495 31.792C33.8495 30.9173 33.9988 30.1493 34.2975 29.488C34.5962 28.816 35.0282 28.2987 35.5935 27.936C36.1588 27.5627 36.8362 27.376 37.6255 27.376ZM37.6255 28.56C36.1642 28.56 35.4335 29.6373 35.4335 31.792C35.4335 33.936 36.1588 35.008 37.6095 35.008C39.0602 35.008 39.7855 33.9307 39.7855 31.776C39.7855 29.632 39.0655 28.56 37.6255 28.56ZM45.2733 36H43.8013V27.568H49.0653L48.8733 28.784H45.2733V36ZM53.4224 27.376C54.6064 27.376 55.5237 27.7707 56.1744 28.56C56.8357 29.3493 57.1664 30.4213 57.1664 31.776C57.1664 32.6507 57.017 33.424 56.7184 34.096C56.4197 34.7573 55.9877 35.2747 55.4224 35.648C54.857 36.0107 54.185 36.192 53.4064 36.192C52.2224 36.192 51.2997 35.7973 50.6384 35.008C49.977 34.2187 49.6464 33.1467 49.6464 31.792C49.6464 30.9173 49.7957 30.1493 50.0944 29.488C50.393 28.816 50.825 28.2987 51.3904 27.936C51.9557 27.5627 52.633 27.376 53.4224 27.376ZM53.4224 28.56C51.961 28.56 51.2304 29.6373 51.2304 31.792C51.2304 33.936 51.9557 35.008 53.4064 35.008C54.857 35.008 55.5824 33.9307 55.5824 31.776C55.5824 29.632 54.8624 28.56 53.4224 28.56ZM59.0381 31.616V30.368H63.5661V31.616H59.0381ZM74.3073 36H72.8673L72.4833 32.016C72.4406 31.6 72.4139 31.1413 72.4033 30.64C72.3926 30.128 72.3873 29.5787 72.3873 28.992L70.4673 35.072H69.0753L67.2833 29.008C67.2833 30.416 67.2619 31.4133 67.2193 32L66.9153 36H65.4913L66.2433 27.568H68.1473L69.7953 33.6L71.6033 27.568H73.5393L74.3073 36ZM81.7616 36V32.288H78.2576V36H76.7856V27.568H78.2576V31.104H81.7616V27.568H83.2336V36H81.7616ZM89.438 27.376C90.622 27.376 91.5393 27.7707 92.19 28.56C92.8513 29.3493 93.182 30.4213 93.182 31.776C93.182 32.6507 93.0327 33.424 92.734 34.096C92.4353 34.7573 92.0033 35.2747 91.438 35.648C90.8727 36.0107 90.2007 36.192 89.422 36.192C88.238 36.192 87.3153 35.7973 86.654 35.008C85.9927 34.2187 85.662 33.1467 85.662 31.792C85.662 30.9173 85.8113 30.1493 86.11 29.488C86.4087 28.816 86.8407 28.2987 87.406 27.936C87.9713 27.5627 88.6487 27.376 89.438 27.376ZM89.438 28.56C87.9767 28.56 87.246 29.6373 87.246 31.792C87.246 33.936 87.9713 35.008 89.422 35.008C90.8727 35.008 91.598 33.9307 91.598 31.776C91.598 29.632 90.878 28.56 89.438 28.56ZM97.0858 36H95.6138V27.568H100.878L100.686 28.784H97.0858V36ZM105.235 27.376C106.419 27.376 107.336 27.7707 107.987 28.56C108.648 29.3493 108.979 30.4213 108.979 31.776C108.979 32.6507 108.83 33.424 108.531 34.096C108.232 34.7573 107.8 35.2747 107.235 35.648C106.67 36.0107 105.998 36.192 105.219 36.192C104.035 36.192 103.112 35.7973 102.451 35.008C101.79 34.2187 101.459 33.1467 101.459 31.792C101.459 30.9173 101.608 30.1493 101.907 29.488C102.206 28.816 102.638 28.2987 103.203 27.936C103.768 27.5627 104.446 27.376 105.235 27.376ZM105.235 28.56C103.774 28.56 103.043 29.6373 103.043 31.792C103.043 33.936 103.768 35.008 105.219 35.008C106.67 35.008 107.395 33.9307 107.395 31.776C107.395 29.632 106.675 28.56 105.235 28.56ZM121.965 27.568L119.405 31.472L122.269 36H120.525L118.189 32.112H117.117V36H115.645V27.568H117.117V30.96H118.221L120.349 27.568H121.965ZM130.118 27.568V36H128.646V28.768H126.038L125.798 31.584C125.702 32.7253 125.579 33.5787 125.43 34.144C125.291 34.7093 125.067 35.1467 124.758 35.456C124.459 35.7547 124.001 36 123.382 36.192L123.014 35.024C123.377 34.896 123.633 34.7307 123.782 34.528C123.931 34.3253 124.043 34.016 124.118 33.6C124.193 33.184 124.273 32.4587 124.358 31.424L124.694 27.568H130.118ZM136.537 36.048C136.206 37.0293 135.742 37.8027 135.145 38.368C134.558 38.944 133.715 39.2907 132.617 39.408L132.457 38.256C133.011 38.16 133.454 38.0213 133.785 37.84C134.115 37.6587 134.377 37.424 134.569 37.136C134.771 36.8587 134.958 36.48 135.129 36H134.633L131.801 27.568H133.369L135.625 34.928L137.833 27.568H139.353L136.537 36.048ZM144.716 28.112C145.676 28.112 146.438 28.4587 147.004 29.152C147.58 29.8453 147.868 30.7893 147.868 31.984C147.868 33.3173 147.532 34.352 146.86 35.088C146.188 35.824 145.286 36.192 144.156 36.192C143.025 36.192 142.118 35.792 141.436 34.992C140.764 34.192 140.428 32.9813 140.428 31.36C140.428 30.1333 140.518 29.1307 140.7 28.352C140.892 27.5627 141.217 26.9173 141.676 26.416C142.145 25.904 142.801 25.504 143.644 25.216C144.273 25.0027 144.774 24.8107 145.148 24.64C145.532 24.4693 145.921 24.2507 146.316 23.984L146.94 25.088C146.566 25.3227 146.177 25.5413 145.772 25.744C145.377 25.936 144.902 26.1227 144.348 26.304C143.814 26.4853 143.393 26.6933 143.084 26.928C142.774 27.152 142.524 27.4827 142.332 27.92C142.15 28.3467 142.028 28.9333 141.964 29.68C142.262 29.1893 142.646 28.8053 143.116 28.528C143.585 28.2507 144.118 28.112 144.716 28.112ZM144.156 35.008C144.806 35.008 145.324 34.7893 145.708 34.352C146.092 33.904 146.284 33.1307 146.284 32.032C146.284 31.0613 146.124 30.3627 145.804 29.936C145.494 29.5093 145.041 29.296 144.444 29.296C143.953 29.296 143.494 29.4293 143.068 29.696C142.641 29.952 142.289 30.3467 142.012 30.88V31.904C142.012 32.896 142.198 33.664 142.572 34.208C142.956 34.7413 143.484 35.008 144.156 35.008ZM155.277 36V32.288H151.773V36H150.301V27.568H151.773V31.104H155.277V27.568H156.749V36H155.277ZM166.346 36H164.89V32.192C164.89 31.552 164.911 30.944 164.954 30.368C164.996 29.792 165.034 29.4133 165.066 29.232L161.53 36H159.786V27.568H161.242V31.376C161.242 31.9413 161.22 32.528 161.178 33.136C161.135 33.7333 161.103 34.1173 161.082 34.288L164.57 27.568H166.346V36ZM175.699 27.568L173.139 31.472L176.003 36H174.259L171.923 32.112H170.851V36H169.379V27.568H170.851V30.96H171.955L174.083 27.568H175.699ZM184.236 36H182.78V32.192C182.78 31.552 182.802 30.944 182.844 30.368C182.887 29.792 182.924 29.4133 182.956 29.232L179.42 36H177.676V27.568H179.132V31.376C179.132 31.9413 179.111 32.528 179.068 33.136C179.026 33.7333 178.994 34.1173 178.972 34.288L182.46 27.568H184.236V36ZM187.654 33.968C187.974 33.968 188.241 34.0747 188.454 34.288C188.667 34.5013 188.774 34.7627 188.774 35.072C188.774 35.4027 188.678 35.7813 188.486 36.208L187.414 38.656H186.358L186.998 36C186.859 35.8933 186.747 35.76 186.662 35.6C186.587 35.44 186.55 35.264 186.55 35.072C186.55 34.7627 186.657 34.5013 186.87 34.288C187.083 34.0747 187.345 33.968 187.654 33.968ZM199.796 31.424C201.225 31.5627 201.94 32.224 201.94 33.408C201.94 34.2933 201.615 34.9493 200.964 35.376C200.324 35.792 199.465 36 198.388 36H195.348V27.68C196.34 27.4773 197.263 27.376 198.116 27.376C199.161 27.376 199.988 27.5733 200.596 27.968C201.204 28.3627 201.508 28.928 201.508 29.664C201.508 30.144 201.364 30.5333 201.076 30.832C200.788 31.1307 200.361 31.328 199.796 31.424ZM198.132 28.512C197.684 28.512 197.247 28.544 196.82 28.608V30.992H198.404C198.916 30.992 199.311 30.896 199.588 30.704C199.865 30.512 200.004 30.1867 200.004 29.728C200.004 29.3013 199.849 28.992 199.54 28.8C199.231 28.608 198.761 28.512 198.132 28.512ZM198.388 34.848C199.017 34.848 199.508 34.7413 199.86 34.528C200.212 34.3147 200.388 33.9307 200.388 33.376C200.388 32.9173 200.239 32.5867 199.94 32.384C199.641 32.1813 199.135 32.08 198.42 32.08H196.82V34.848H198.388ZM206.811 30.288C208.07 30.288 208.982 30.5333 209.547 31.024C210.113 31.5147 210.395 32.2133 210.395 33.12C210.395 34.0693 210.075 34.7893 209.435 35.28C208.806 35.76 208.022 36 207.083 36H204.379V27.568H205.851V30.288H206.811ZM211.611 27.568H213.083V36H211.611V27.568ZM206.955 34.848C207.553 34.848 208.011 34.7147 208.331 34.448C208.662 34.1813 208.827 33.7387 208.827 33.12C208.827 32.5333 208.673 32.1013 208.363 31.824C208.065 31.5467 207.542 31.408 206.795 31.408H205.851V34.848H206.955ZM219.809 28.112C220.769 28.112 221.532 28.4587 222.097 29.152C222.673 29.8453 222.961 30.7893 222.961 31.984C222.961 33.3173 222.625 34.352 221.953 35.088C221.281 35.824 220.38 36.192 219.249 36.192C218.119 36.192 217.212 35.792 216.529 34.992C215.857 34.192 215.521 32.9813 215.521 31.36C215.521 30.1333 215.612 29.1307 215.793 28.352C215.985 27.5627 216.311 26.9173 216.769 26.416C217.239 25.904 217.895 25.504 218.737 25.216C219.367 25.0027 219.868 24.8107 220.241 24.64C220.625 24.4693 221.015 24.2507 221.409 23.984L222.033 25.088C221.66 25.3227 221.271 25.5413 220.865 25.744C220.471 25.936 219.996 26.1227 219.441 26.304C218.908 26.4853 218.487 26.6933 218.177 26.928C217.868 27.152 217.617 27.4827 217.425 27.92C217.244 28.3467 217.121 28.9333 217.057 29.68C217.356 29.1893 217.74 28.8053 218.209 28.528C218.679 28.2507 219.212 28.112 219.809 28.112ZM219.249 35.008C219.9 35.008 220.417 34.7893 220.801 34.352C221.185 33.904 221.377 33.1307 221.377 32.032C221.377 31.0613 221.217 30.3627 220.897 29.936C220.588 29.5093 220.135 29.296 219.537 29.296C219.047 29.296 218.588 29.4293 218.161 29.696C217.735 29.952 217.383 30.3467 217.105 30.88V31.904C217.105 32.896 217.292 33.664 217.665 34.208C218.049 34.7413 218.577 35.008 219.249 35.008ZM228.563 27.376C229.747 27.376 230.664 27.7707 231.315 28.56C231.976 29.3493 232.307 30.4213 232.307 31.776C232.307 32.6507 232.158 33.424 231.859 34.096C231.56 34.7573 231.128 35.2747 230.563 35.648C229.998 36.0107 229.326 36.192 228.547 36.192C227.363 36.192 226.44 35.7973 225.779 35.008C225.118 34.2187 224.787 33.1467 224.787 31.792C224.787 30.9173 224.936 30.1493 225.235 29.488C225.534 28.816 225.966 28.2987 226.531 27.936C227.096 27.5627 227.774 27.376 228.563 27.376ZM228.563 28.56C227.102 28.56 226.371 29.6373 226.371 31.792C226.371 33.936 227.096 35.008 228.547 35.008C229.998 35.008 230.723 33.9307 230.723 31.776C230.723 29.632 230.003 28.56 228.563 28.56ZM238.611 27.376C239.688 27.376 240.477 27.76 240.979 28.528C241.48 29.296 241.731 30.3787 241.731 31.776C241.731 33.0987 241.443 34.1653 240.867 34.976C240.291 35.7867 239.475 36.192 238.419 36.192C237.48 36.192 236.744 35.872 236.211 35.232V39.232L234.739 39.408V27.568H236.003L236.115 28.704C236.424 28.2773 236.797 27.952 237.235 27.728C237.672 27.4933 238.131 27.376 238.611 27.376ZM238.067 34.992C239.453 34.992 240.147 33.92 240.147 31.776C240.147 29.6213 239.512 28.544 238.243 28.544C237.827 28.544 237.448 28.6667 237.107 28.912C236.765 29.1573 236.467 29.472 236.211 29.856V33.968C236.424 34.2987 236.691 34.5547 237.011 34.736C237.331 34.9067 237.683 34.992 238.067 34.992ZM17.496 55V51.288H13.992V55H12.52V46.568H13.992V50.104H17.496V46.568H18.968V55H17.496ZM27.6844 53.032C27.6844 53.3733 27.743 53.6293 27.8604 53.8C27.9777 53.96 28.1537 54.0827 28.3884 54.168L28.0524 55.192C27.615 55.1387 27.263 55.016 26.9964 54.824C26.7297 54.632 26.5324 54.3333 26.4044 53.928C25.839 54.7707 25.0017 55.192 23.8924 55.192C23.0604 55.192 22.4044 54.9573 21.9244 54.488C21.4444 54.0187 21.2044 53.4053 21.2044 52.648C21.2044 51.752 21.5244 51.064 22.1644 50.584C22.815 50.104 23.7324 49.864 24.9164 49.864H26.2124V49.24C26.2124 48.6427 26.0684 48.216 25.7804 47.96C25.4924 47.704 25.0497 47.576 24.4524 47.576C23.8337 47.576 23.0764 47.7253 22.1804 48.024L21.8124 46.952C22.8577 46.568 23.8284 46.376 24.7244 46.376C25.7164 46.376 26.4577 46.6213 26.9484 47.112C27.439 47.592 27.6844 48.28 27.6844 49.176V53.032ZM24.2284 54.088C25.071 54.088 25.7324 53.6507 26.2124 52.776V50.84H25.1084C23.551 50.84 22.7724 51.416 22.7724 52.568C22.7724 53.0693 22.895 53.448 23.1404 53.704C23.3857 53.96 23.7484 54.088 24.2284 54.088ZM33.7795 46.376C34.2808 46.376 34.7395 46.4507 35.1555 46.6C35.5715 46.7387 35.9715 46.968 36.3555 47.288L35.6515 48.216C35.3528 48.0027 35.0595 47.848 34.7715 47.752C34.4942 47.6453 34.1848 47.592 33.8435 47.592C33.1608 47.592 32.6275 47.864 32.2435 48.408C31.8702 48.952 31.6835 49.7573 31.6835 50.824C31.6835 51.8907 31.8702 52.68 32.2435 53.192C32.6168 53.6933 33.1502 53.944 33.8435 53.944C34.1742 53.944 34.4782 53.896 34.7555 53.8C35.0328 53.6933 35.3422 53.528 35.6835 53.304L36.3555 54.264C35.5875 54.8827 34.7288 55.192 33.7795 55.192C32.6382 55.192 31.7368 54.808 31.0755 54.04C30.4248 53.272 30.0995 52.2107 30.0995 50.856C30.0995 49.96 30.2488 49.176 30.5475 48.504C30.8462 47.832 31.2675 47.3093 31.8115 46.936C32.3662 46.5627 33.0222 46.376 33.7795 46.376ZM44.0441 46.568L43.8681 47.768H41.1641V55H39.6921V47.768H36.9081V46.568H44.0441ZM48.3286 46.376C49.5126 46.376 50.43 46.7707 51.0806 47.56C51.742 48.3493 52.0726 49.4213 52.0726 50.776C52.0726 51.6507 51.9233 52.424 51.6246 53.096C51.326 53.7573 50.894 54.2747 50.3286 54.648C49.7633 55.0107 49.0913 55.192 48.3126 55.192C47.1286 55.192 46.206 54.7973 45.5446 54.008C44.8833 53.2187 44.5526 52.1467 44.5526 50.792C44.5526 49.9173 44.702 49.1493 45.0006 48.488C45.2993 47.816 45.7313 47.2987 46.2966 46.936C46.862 46.5627 47.5393 46.376 48.3286 46.376ZM48.3286 47.56C46.8673 47.56 46.1366 48.6373 46.1366 50.792C46.1366 52.936 46.862 54.008 48.3126 54.008C49.7633 54.008 50.4886 52.9307 50.4886 50.776C50.4886 48.632 49.7686 47.56 48.3286 47.56ZM60.1241 46.568V55H58.6521V51.768H56.8121L55.0361 55H53.3881L55.4041 51.432C54.4121 50.9627 53.9161 50.2 53.9161 49.144C53.9161 48.312 54.2148 47.6773 54.8121 47.24C55.4095 46.792 56.2468 46.568 57.3241 46.568H60.1241ZM58.6521 50.648V47.704H57.2921C56.6841 47.704 56.2255 47.8213 55.9161 48.056C55.6175 48.28 55.4681 48.6427 55.4681 49.144C55.4681 49.6773 55.6068 50.0613 55.8841 50.296C56.1721 50.5307 56.6308 50.648 57.2601 50.648H58.6521ZM72.8566 53.816H74.1366V57.4H72.9366L72.6966 55H63.1606V46.568H64.6006V53.816H67.3046V46.568H68.7126V53.816H71.4166V46.568H72.8566V53.816ZM82.1068 50.536C82.1068 50.7813 82.0961 51.032 82.0748 51.288H76.6988C76.7628 52.216 76.9974 52.8987 77.4028 53.336C77.8081 53.7733 78.3308 53.992 78.9708 53.992C79.3761 53.992 79.7494 53.9333 80.0908 53.816C80.4321 53.6987 80.7894 53.512 81.1628 53.256L81.8028 54.136C80.9068 54.84 79.9254 55.192 78.8588 55.192C77.6854 55.192 76.7681 54.808 76.1068 54.04C75.4561 53.272 75.1308 52.216 75.1308 50.872C75.1308 49.9973 75.2694 49.224 75.5468 48.552C75.8348 47.8693 76.2401 47.336 76.7628 46.952C77.2961 46.568 77.9201 46.376 78.6348 46.376C79.7548 46.376 80.6134 46.744 81.2108 47.48C81.8081 48.216 82.1068 49.2347 82.1068 50.536ZM80.6508 50.104C80.6508 49.272 80.4854 48.6373 80.1548 48.2C79.8241 47.7627 79.3281 47.544 78.6668 47.544C77.4614 47.544 76.8054 48.4293 76.6988 50.2H80.6508V50.104ZM85.9295 55H84.4575V46.568H89.7215L89.5295 47.784H85.9295V55ZM94.0786 46.376C95.2626 46.376 96.18 46.7707 96.8306 47.56C97.492 48.3493 97.8226 49.4213 97.8226 50.776C97.8226 51.6507 97.6733 52.424 97.3746 53.096C97.076 53.7573 96.644 54.2747 96.0786 54.648C95.5133 55.0107 94.8413 55.192 94.0626 55.192C92.8786 55.192 91.956 54.7973 91.2946 54.008C90.6333 53.2187 90.3026 52.1467 90.3026 50.792C90.3026 49.9173 90.452 49.1493 90.7506 48.488C91.0493 47.816 91.4813 47.2987 92.0466 46.936C92.612 46.5627 93.2893 46.376 94.0786 46.376ZM94.0786 47.56C92.6173 47.56 91.8866 48.6373 91.8866 50.792C91.8866 52.936 92.612 54.008 94.0626 54.008C95.5133 54.008 96.2386 52.9307 96.2386 50.776C96.2386 48.632 95.5186 47.56 94.0786 47.56ZM111.049 55H109.593V51.192C109.593 50.552 109.614 49.944 109.657 49.368C109.699 48.792 109.737 48.4133 109.769 48.232L106.233 55H104.489V46.568H105.945V50.376C105.945 50.9413 105.923 51.528 105.881 52.136C105.838 52.7333 105.806 53.1173 105.785 53.288L109.273 46.568H111.049V55ZM107.737 44.712C107.086 44.712 106.537 44.5467 106.089 44.216C105.651 43.8747 105.401 43.416 105.337 42.84L106.313 42.632C106.419 42.9733 106.585 43.2187 106.809 43.368C107.043 43.5173 107.353 43.592 107.737 43.592C108.121 43.592 108.435 43.5173 108.681 43.368C108.926 43.208 109.102 42.9627 109.209 42.632L110.185 42.84C110.121 43.416 109.859 43.8747 109.401 44.216C108.953 44.5467 108.398 44.712 107.737 44.712ZM120.451 50.536C120.451 50.7813 120.44 51.032 120.419 51.288H115.043C115.107 52.216 115.341 52.8987 115.747 53.336C116.152 53.7733 116.675 53.992 117.315 53.992C117.72 53.992 118.093 53.9333 118.435 53.816C118.776 53.6987 119.133 53.512 119.507 53.256L120.147 54.136C119.251 54.84 118.269 55.192 117.203 55.192C116.029 55.192 115.112 54.808 114.451 54.04C113.8 53.272 113.475 52.216 113.475 50.872C113.475 49.9973 113.613 49.224 113.891 48.552C114.179 47.8693 114.584 47.336 115.107 46.952C115.64 46.568 116.264 46.376 116.979 46.376C118.099 46.376 118.957 46.744 119.555 47.48C120.152 48.216 120.451 49.2347 120.451 50.536ZM118.995 50.104C118.995 49.272 118.829 48.6373 118.499 48.2C118.168 47.7627 117.672 47.544 117.011 47.544C115.805 47.544 115.149 48.4293 115.043 50.2H118.995V50.104ZM128.091 46.568L127.915 47.768H125.211V55H123.739V47.768H120.955V46.568H128.091ZM136.174 55H134.718V51.192C134.718 50.552 134.739 49.944 134.782 49.368C134.824 48.792 134.862 48.4133 134.894 48.232L131.358 55H129.614V46.568H131.07V50.376C131.07 50.9413 131.048 51.528 131.006 52.136C130.963 52.7333 130.931 53.1173 130.91 53.288L134.398 46.568H136.174V55Z" fill="#6F1B5B"/>
</svg>
