<svg width="333" height="297" viewBox="0 0 333 297" fill="none" xmlns="http://www.w3.org/2000/svg">
<path d="M33.0066 168.882C29.3074 168.882 24.3572 170.096 24.3572 165.038C24.3572 163.487 24.2479 162.434 25.5318 161.407C26.2525 160.831 29.6812 161.44 28.7353 161.941C23.8484 164.528 19.7069 161.077 15.9214 158.311C10.5403 154.378 10.9026 148.92 10.9026 142.934C10.9026 141.823 10.2156 138.226 11.8636 138.129C12.9175 138.067 16.1862 138.362 13.5722 139.303C6.95987 141.684 5.71005 134.764 4.38886 129.479C3.23815 124.876 1.49341 116.752 4.17529 112.394C5.70977 109.901 7.23845 106.774 6.09738 104.492" stroke="white" stroke-width="5" stroke-linecap="round"/>
<path d="M6.09732 104.492C6.09732 92.6923 4.30176 79.4795 7.16515 68.026C8.77488 61.5871 9.43382 54.518 16.7222 54.518C19.3978 54.518 22.7593 53.9557 25.2648 55.0519C25.897 55.3285 27.8858 57.9934 28.1479 56.8138C29.507 50.6981 27.0834 45.2901 33.0065 40.6363C37.2432 37.3074 44.6558 37.2192 49.7714 37.2192C52.5954 37.2192 54.5234 37.5931 56.5521 39.6218C57.9707 41.0404 57.7798 42.4012 58.0471 39.9956C59.1055 30.47 70.5986 19.9094 79.6171 17.5712C85.4178 16.0673 97.3505 15.243 101.614 20.4543C102.682 21.7594 101.45 24.2891 102.736 22.2696C105.491 17.9393 108.488 15.0426 112.88 12.2321C117.213 9.4588 130.959 -1.29654 136.319 4.06321C139.534 7.27813 139.682 12.2615 139.682 16.5568C139.682 18.1505 137.826 10.9625 142.619 10.3634C150.543 9.37283 157.057 8.91326 164.189 13.1397C167.904 15.3414 174.927 17.4156 173.265 23.2307C172.512 25.8688 171.397 20.7685 171.397 20.3476C171.397 15.5432 172.406 12.8973 176.683 10.3634C183.36 6.40614 194.268 5.33902 199.694 11.7516C200.978 13.2693 202.857 21.8466 199.694 22.7502C195.637 23.9093 197.967 17.4441 202.737 17.0907C215.811 16.1223 232.747 17.7836 238.189 31.9335C239.653 35.7387 234.932 40.3325 234.932 37.6463C234.932 31.7473 241.264 30.2351 245.878 32.0403C252.121 34.4833 260.049 42.7705 263.604 48.3246C266.941 53.5395 268.564 62.2625 267.448 68.3997C267.099 70.319 265.339 70.0282 265.632 67.9726C266.049 65.0583 270.496 64.3435 272.84 64.1818C285.253 63.3258 293.64 72.9546 300.604 81.9077C303.569 85.72 306.637 96.1096 302.579 100.168C299.066 103.681 298.15 101.084 302.526 98.2989C312.246 92.1135 333.106 141.542 320.839 150.035C317.057 152.653 315.939 147.739 320.839 147.739C327.002 147.739 327.057 163.413 327.513 167.387C328.194 173.323 333.223 194.286 324.416 196.539C323.859 196.681 312.747 198.399 315.767 195.044C318.454 192.058 324.296 192.327 326.125 195.791C330.703 204.465 329.003 214.52 327.833 223.875C327.074 229.953 326.24 236.155 319.397 236.155C317.471 236.155 317.976 236.092 319.611 236.155C322.268 236.257 322.394 238.07 323.242 240.213C325.787 246.652 326.279 254.964 326.125 261.89C325.96 269.292 316.254 268.831 310.962 268.831C308.011 268.831 305.048 268.913 302.099 268.831C300.79 268.794 297.198 267.018 298.468 267.336C300.344 267.805 300.292 271.572 299.963 272.888C298.617 278.272 292.847 281.235 288.431 283.673C278.696 289.048 269.389 291.65 258.638 293.604C257.277 293.852 243.978 294.201 245.611 290.935C246.41 289.337 248.193 290.771 246.145 290.935C244.134 291.096 242.452 291.896 240.378 291.896C235.281 291.896 228.07 292.667 225.429 287.091C225.016 286.22 224.972 284.109 225.429 283.246C225.916 282.325 228.182 282.285 227.137 282.285C219.756 282.285 214.103 271.708 211.013 266.161C209.063 262.661 207.916 259.57 207.916 255.59C207.916 255.35 207.79 251.833 208.664 252.707C209.715 253.758 207.496 256.345 206.955 257.085C204.916 259.875 201.387 259.17 198.52 258.259C189.869 255.513 182.569 245.371 182.929 236.369C182.985 234.97 182.918 238.309 181.968 239.786C180.476 242.106 178.845 244.032 175.988 244.591C163.874 246.961 151.877 237.038 145.876 227.506C144.73 225.686 144.488 221.206 144.488 221.206C144.488 221.206 144.409 224.659 143.313 225.797C136.574 232.795 125.943 228.061 120.675 221.74C119.31 220.102 114.521 209.914 119.5 210.207C121.07 210.299 120.534 213.05 120.248 214.051C119.172 217.818 114.906 218.887 111.599 219.817C98.6053 223.472 82.8864 223.109 73.5839 212.129C70.3035 208.257 68.698 202.762 68.5651 197.713C68.5258 196.22 69.5262 191.841 69.5262 193.335C69.5262 203.15 43.5938 203.695 38.0253 203.266C27.2092 202.434 16.6688 196.261 16.6688 184.472C16.6688 181.583 18.7023 179.131 21.474 177.745C24.4979 176.233 32.6746 173.146 26.2792 168.882" stroke="white" stroke-width="5" stroke-linecap="round"/>
</svg>
