<svg width="261" height="315" viewBox="0 0 261 315" fill="none" xmlns="http://www.w3.org/2000/svg">
<path d="M136.954 286.852C130.988 292.817 101.79 314.591 96.1513 298.929C95.8967 298.222 102.122 293.775 98.0282 297.869C93.9555 301.941 89.1221 305.266 83.7474 307.416C69.6742 313.046 38.2295 315.998 32.9895 297.134C32.1479 294.104 31.635 289.139 34.7848 288.239C35.5973 288.007 24.8433 288.635 21.6465 286.689C16.7472 283.707 -1.00692 255.899 11.3644 253.149C14.9106 252.361 8.43142 257.092 6.5497 250.13C3.46763 238.726 3.28552 227.491 3.28552 215.775C3.28552 210.448 4.74677 198.989 11.7724 198.719C14.8788 198.6 19.2728 201.084 15.8526 200.107C7.0788 197.6 16.2337 166.262 19.1168 161.671C19.9051 160.415 32.4999 148.287 32.4999 155.387C32.4999 161.486 25.4205 151.966 24.9923 149.92C22.922 140.029 23.0421 116.462 38.5386 116.462C41.0573 116.462 40.2762 123.643 39.2731 123.643C35.8322 123.643 37.0367 110.932 37.0697 109.444C37.392 94.9402 49.5832 78.1742 65.6313 82.7594C68.9531 83.7085 67.9162 89.2924 67.9162 80.8825C67.9162 69.4795 70.091 62.1705 75.2606 51.8313C77.6586 47.0354 93.9357 10.8276 102.435 26.126C104.495 29.8351 100.232 31.4391 100.232 25.7179C100.232 18.5418 100.982 13.7009 105.373 7.84658C108.769 3.31799 115.744 3.214 120.796 3.35834C128.457 3.57722 130.878 13.4769 132.22 19.516C132.47 20.6399 133.638 32.6912 134.832 31.8383C141.75 26.8967 144.671 21.1719 154.58 20.9849C164.178 20.8038 167.568 23.0253 171.554 32.0831C175.554 41.1735 178.082 47.6508 178.082 57.7069C178.082 60.9462 174.359 65.2816 175.226 61.3791C176.508 55.6093 188.696 57.2536 192.444 58.3597C207.754 62.8772 222.706 88.1254 215.539 103.895C212.917 109.663 210.009 106.7 213.335 105.037C220.438 101.486 231.026 107.45 235.205 112.79C245.774 126.294 242.053 144.93 233.9 158.325C232.399 160.79 228.803 172.279 225.086 172.279C223.282 172.279 229.942 170.677 233.9 173.095C250.632 183.321 256.255 194.87 255.933 214.55C255.815 221.712 251.694 226.628 244.182 226.628C237.971 226.628 242.076 224.971 245.651 225.159C258.542 225.838 260.032 264.047 255.606 271.837C251.835 278.474 245.552 284.608 237.572 285.301C234.363 285.581 223.886 285.818 223.617 280.976C223.331 275.829 226.529 280.276 224.27 283.18C219.625 289.153 212.531 295.573 205.256 297.787C195.116 300.873 178.082 301.549 178.082 287.668C178.082 280.848 178.651 289.369 177.756 291.259C176 294.964 169.139 296.508 165.597 297.053C162.984 297.455 152.657 298.572 150.5 296.808C147.999 294.761 147.116 289.988 145.032 288.321C142.674 286.434 144.086 283.914 139.891 283.914C136.229 283.914 132.41 284.973 131.078 280.976" stroke="white" stroke-width="5" stroke-linecap="round"/>
</svg>
