<svg width="261" height="265" viewBox="0 0 261 265" fill="none" xmlns="http://www.w3.org/2000/svg">
<path d="M50.312 46.7862C50.312 42.4491 49.2512 36.5144 51.1702 32.5392C53.5281 27.6551 56.9712 22.9169 61.8984 20.5237C65.6245 18.7139 69.4011 18.9789 73.4418 18.9789C75.4099 18.9789 79.4967 21.7382 80.8657 20.867C93.9362 12.5494 114.163 0.966976 128.327 14.3443C129.833 15.7663 134.922 12.038 136.523 11.2117C143.789 7.46181 152.661 4.25637 160.769 2.92959C171.687 1.14303 183.179 7.18237 187.031 17.7773C188.293 21.2473 192.102 17.0607 194.927 15.8892C201.239 13.272 207.965 13.5719 214.667 13.5719C219.852 13.5719 224.546 13.336 228.742 16.8333C233.244 20.5848 238.824 28.5695 239.556 34.4274C240.288 40.2801 243.197 48.696 240.672 54.4676C240.082 55.8166 238.626 55.687 239.9 56.3986C242.554 57.8818 245.033 60.3517 246.508 63.0071C249.642 68.6487 253.413 73.6671 255.348 80.0005C257.117 85.789 260.112 94.604 257.322 100.513C256.53 102.19 252.805 104.885 251.314 102.401C250.773 101.498 252.073 102.644 252.301 102.873C254.17 104.742 254.714 108.472 255.005 110.94C256.014 119.515 258.642 127.584 256.979 136.388C255.789 142.688 253.761 149.908 247.281 152.222C244.637 153.167 240.738 152.067 239.599 149.218C238.914 147.505 242.324 151.946 242.818 153.724C245.004 161.596 244.191 169.926 244.191 178.056C244.191 183.426 244.399 190.018 239.385 193.547C235.486 196.291 229.48 198.626 224.88 196.637C220.268 194.642 223.015 195.535 223.292 198.31C224.003 205.42 223.43 212.77 217.928 217.879C212.237 223.164 204.611 224.444 197.073 224.444" stroke="white" stroke-width="5" stroke-linecap="round"/>
<path d="M193.998 224.479C193.998 228.905 194.971 239.395 190.909 242.588C188.008 244.867 182.028 243.975 178.593 243.746C174.527 243.475 170.809 242.742 166.963 241.644C165.357 241.185 161.841 236.408 161.556 236.408C161.321 236.408 160.811 238.137 160.784 238.382C160.617 239.881 158.929 241.07 158.08 242.244C155.976 245.158 153.985 249.635 151.129 251.857C149.367 253.227 147.44 253.058 145.335 253.058C137.986 253.058 130.225 253.811 122.935 252.887C118.317 252.301 115.916 249.959 112.507 247.308C110.902 246.059 107.732 250.575 106.628 251.556C95.2866 261.638 76.4321 262.996 61.9135 261.383C55.4933 260.67 49.2394 257.69 46.1216 251.9C44.7505 249.353 45.9593 245.905 46.422 243.36C47.0095 240.129 46.4515 238.776 43.3323 237.996C35.1545 235.952 28.855 231.163 23.7213 224.436C18.1968 217.197 16.6353 208.002 17.7135 199.16C18.7653 190.536 23.4336 186.279 29.2999 180.622C31.6579 178.348 32.2062 178.628 29.4287 176.545C23.658 172.217 20.7834 165.247 17.9281 158.822C13.3619 148.548 14.7472 135.525 19.43 125.608C21.3054 121.637 18.2834 122.308 15.1817 121.274C9.88553 119.508 5.3173 115.437 3.63822 110.16C2.67906 107.145 2.57546 102.985 4.9256 100.719C10.05 95.7774 16.3425 90.2077 22.3481 86.386C22.9018 86.0336 27.8258 83.9708 26.7681 83.1246C25.3751 82.0102 24.837 80.6322 24.837 78.8763C24.837 76.2694 24.878 74.3948 26.3819 72.139C29.5357 67.4083 33.6668 59.0604 39.3415 57.0338C40.8534 56.4938 42.4883 56.5519 44.3193 55.9181C46.6683 55.105 48.762 53.7792 51.0995 53" stroke="white" stroke-width="5" stroke-linecap="round"/>
<path d="M54.1741 52.9658C54.1741 49.5742 57.0124 42.8404 52.6293 41.3794" stroke="white" stroke-width="5" stroke-linecap="round"/>
</svg>
