<svg width="331" height="283" viewBox="0 0 331 283" fill="none" xmlns="http://www.w3.org/2000/svg">
<path d="M85.4072 254.094C71.7942 254.094 51.2196 256.443 42.9045 242.836C41.7745 240.987 41.2085 235.708 43.2839 234.487C49.1508 231.036 42.1827 232.607 38.6668 232.4C21.983 231.419 9.99092 218.452 6.28383 202.8C3.83348 192.454 -1.54818 178.609 11.9762 175.603C13.616 175.239 7.86485 169.937 6.85306 167.318C3.93599 159.768 5.27734 148.52 8.18127 141.26C15.0591 124.065 28.9222 105.204 45.3079 96.1006C48.2327 94.4757 57.4947 94.7995 58.1472 91.863C59.3661 86.3782 64.891 80.8473 68.3302 76.7467C74.0556 69.9202 78.1277 63.8474 86.0396 59.4167C94.1098 54.8974 102.119 52.5859 111.339 52.5859C113.172 52.5859 116.01 54.2882 116.715 53.7244C124.638 47.3859 132.66 40.972 140.559 34.497C150.22 26.5785 160.626 16.0232 173.069 12.7397C178.938 11.1909 211.049 5.2731 204.693 20.7089C203.81 22.8524 207.23 17.3963 208.425 16.7243C217.419 11.6652 225.933 7.31868 235.685 3.88494C249.013 -0.808192 272.792 6.98944 273.254 23.6183C273.396 28.729 272.071 27.0689 269.902 30.3226C268.233 32.8255 270.528 23.5596 273.001 21.8474C277.246 18.9086 286.852 20.4437 291.469 21.3414C300.741 23.1441 306.651 27.9208 313.1 34.3705C321.909 43.1793 321.026 51.6373 314.239 61.4407C312.681 63.6903 307.888 63.5476 311.392 62.7689C317.084 61.5041 320.042 67.8437 322.208 72.8253C326.886 83.5844 330.626 94.9505 325.054 106.094C322.812 110.577 319.514 111.972 314.492 111.786C310.14 111.625 313.174 109.509 315.946 109.509C322.93 109.509 321.216 139.275 317.022 144.232C311.637 150.597 301.916 169.108 291.533 165.863C285.652 164.025 286.796 162.345 286.915 167.824C287.122 177.327 286.496 186.556 282.868 195.463C280.157 202.118 277.432 202.673 270.977 203.749C263.8 204.945 256.139 207.417 248.84 207.417C247.792 207.417 246.439 207.644 245.425 207.354C244.636 207.129 244.234 205.066 243.654 205.646C243.142 206.159 243.432 210.013 243.148 210.833C241.674 215.092 238.7 219.296 236.76 223.419C230.215 237.326 220.605 249.199 203.302 244.354C200.001 243.43 195.023 241.208 193.625 237.713C191.281 231.855 195.144 250.353 194.447 256.624C193.458 265.524 186.803 282.667 175.346 279.394C165.569 276.6 154.824 261.802 153.715 251.817C153.288 247.971 150.591 253.925 150.3 254.727C148.557 259.52 144.197 263.106 140.686 266.617C133.172 274.131 119.927 279.456 109.568 275.472C105.946 274.079 106.941 270.075 105.836 267.313C105.827 267.29 102.768 271.451 102.231 272.31C99.4778 276.715 90.179 271.68 89.961 267.756C89.6825 262.742 86.5456 258.063 86.5456 252.956" stroke="white" stroke-width="5" stroke-linecap="round"/>
</svg>
