<svg width="352" height="356" viewBox="0 0 352 356" fill="none" xmlns="http://www.w3.org/2000/svg">
<path d="M241.14 316.131C238.491 316.425 236.71 319.834 234.437 321.112C231.812 322.589 223.959 325.632 221.769 322.711C220.065 320.44 219.001 311.816 219.001 314.655C219.001 317.742 218.509 320.385 216.787 323.019C211.852 330.567 201.935 335.846 193.602 338.762C189.891 340.061 184.004 341.743 180.257 339.869C178.81 339.146 177.438 337.887 176.444 336.61C176.067 336.125 175.906 333.966 175.276 333.966C174.922 333.966 173.134 338.694 172.754 339.377C171.034 342.474 166.636 344.445 163.653 346.019C152.427 351.944 134.376 358.083 124.048 347.372C119.711 342.875 123.189 334.873 116.606 339.992C111.227 344.176 92.0597 343.172 87.8867 337.102C84.8783 332.726 84.9158 327.882 85.0577 322.773C85.1396 319.825 88.468 318.064 88.3787 318.099C78.3483 322 60.363 314.994 53.0171 308.382C49.7669 305.457 47.4208 303.149 47.4208 298.665C47.4208 296.025 46.9622 289.168 49.6347 287.596C52.2081 286.082 52.4166 290.394 51.6027 291.778C49.9595 294.571 41.8049 292.502 39.672 291.778C21.8828 285.736 17.9019 272.956 19.8695 255.248C20.6045 248.633 24.7952 243.805 30.2012 240.365C33.146 238.491 34.0401 242.078 31.3082 243.071C20.6143 246.96 10.6194 236.62 6.46289 227.573C3.10358 220.262 1.12661 202.306 7.56986 196.578C9.24321 195.091 12.7349 196.209 10.3373 193.811C6.9513 190.425 6.46289 185.042 6.46289 180.466C6.46289 176.486 4.46211 156.764 10.0298 154.759C11.8115 154.118 16.9273 153.727 17.4711 156.174C18.0452 158.757 16.4256 152.572 16.4256 151.131C16.4256 144.56 25.7536 130.609 32.4767 129.115C38.3795 127.803 38.565 139.426 38.565 131.513C38.565 123.37 47.4345 116.467 53.8166 112.449C56.6087 110.691 60.2894 111.342 63.4718 111.342C66.7399 111.342 67.0148 106.428 68.5147 104.085C72.5096 97.8428 79.5053 86.1158 87.8252 84.8358C89.7687 84.5368 94.6946 83.9823 95.8815 85.8813C96.8631 87.452 97.2344 89.8514 97.2344 86.9883C97.2344 81.7765 99.9832 75.9842 105.537 74.7501C108.153 74.1687 109.867 73.6204 112.732 73.7046C117.043 73.8314 116.482 77.6327 119.374 78.9935C122.273 80.3577 137.36 66.1641 140.406 63.9879C144.779 60.8648 153.18 59.4735 158.118 61.5895C161.287 62.9479 166.235 74.1764 168.634 73.6431C171.376 73.0338 175.612 66.6672 179.15 65.0949C183.967 62.9543 189.306 66.3413 191.327 70.3837" stroke="white" stroke-width="5" stroke-linecap="round"/>
<path d="M191.327 69.277C191.327 57.1823 200.903 53.6886 212.236 54.9479C213.526 55.0912 215.837 55.9028 216.541 57.1003C216.859 57.6401 217.894 59.7865 217.894 59.7448C217.894 54.8399 219.794 49.6298 222.322 45.4771C225.685 39.9516 229.349 36.0154 235.852 34.7149C240.607 33.764 249.447 31.0903 253.317 34.9609C255.022 36.6653 254.424 43.1149 254.424 36.9289C254.424 22.0898 265.246 11.1311 278.532 5.31874C297.461 -2.96309 321.585 14.0946 325.824 32.747C326.097 33.9492 327.612 44.3337 325.762 44.8622C321.634 46.0418 325.771 42.3479 328.099 42.7712C335.442 44.1063 345.158 59.811 336.34 63.9881C333.733 65.2229 338.574 61.8443 341.629 65.9561C344.759 70.1697 346.248 78.2727 347.164 83.4216C347.83 87.167 348.657 94.5967 345.749 97.5047C343.687 99.567 340.168 101.379 343.535 101.379C348.355 101.379 348.517 110.925 348.517 114.109C348.517 122.341 347.807 129.101 342.92 136.126C341.272 138.496 336.32 142.731 333.019 140.984C330.371 139.582 334.368 138.26 336.094 140.369C343.622 149.57 340.618 172.791 336.094 182.188C333.361 187.864 331.069 187.949 325.947 189.998C325.941 190.001 327.538 214.302 326.869 217.549C324.219 230.421 310.172 233.8 298.826 228.127C294.338 225.883 295.339 222.146 296.735 227.574C298.818 235.673 297.596 244.948 297.596 253.28C297.596 259.717 296.754 264.946 292.061 269.639C290.39 271.309 287.633 277.536 287.633 275.173" stroke="white" stroke-width="5" stroke-linecap="round"/>
<path d="M241.141 316.131C241.141 312.302 240.232 308.628 240.034 305.061C239.94 303.381 236.713 295.842 236.713 300.08C236.713 304.412 243.991 302.847 246.614 302.847C252.421 302.847 257.3 303.123 260.205 297.313C260.848 296.026 262.173 294.36 262.173 292.885C262.173 291.391 259.959 291.391 259.959 292.885C259.959 296.213 270.975 291.737 272.136 291.286C273.821 290.63 290.851 282.87 286.526 280.708" stroke="white" stroke-width="5" stroke-linecap="round"/>
</svg>

