<svg width="295" height="304" viewBox="0 0 295 304" fill="none" xmlns="http://www.w3.org/2000/svg">
<path d="M101.976 284.554C96.5853 284.554 91.1942 284.554 85.803 284.554C82.5663 284.554 75.6941 279.619 79.0373 275.533C80.8759 273.286 81.4566 279.206 80.4549 280.494C76.5777 285.479 64.2055 283.75 59.0621 282.75C48.7127 280.737 38.6064 277.413 30.3237 270.636C27.7886 268.562 23.5325 259.454 27.7463 256.975C32.9477 253.916 27.8443 256.638 24.2667 254.849C17.0066 251.219 14.5793 242.448 13.2482 235.26C11.6642 226.707 14.8088 221.077 18.7252 213.803C20.1671 211.126 22.1853 208.207 25.1688 207.102C26.9161 206.455 28.0081 207.111 25.3621 206.78C19.3498 206.028 13.6627 197.146 10.6063 192.668C3.0361 181.577 2.3345 165.454 3.64722 152.589C4.47582 144.469 9.5253 133.822 16.1478 128.619C17.8339 127.294 19.6532 126.539 21.6893 125.913C22.705 125.6 25.8449 126.686 24.7822 126.686C22.8835 126.686 21.9668 112.727 21.947 111.479C21.7465 98.8487 26.2236 86.9939 32.3856 76.0392C35.6709 70.1988 39.4737 64.7146 46.2394 63.0232C48.8064 62.3814 52.103 62.4277 52.103 59.5436C52.103 44.4702 62.5616 36.6039 72.9803 27.1324C78.1454 22.4368 83.5387 19.4147 90.378 18.0469C92.9804 17.5264 98.0896 22.6147 98.4969 18.949C98.9032 15.292 106.589 8.92581 109.515 6.89947C113.2 4.34837 117.63 5.70058 121.629 4.4509C127.965 2.47112 137.275 3.0733 142.313 7.60826C146.646 11.5074 143.533 15.6467 144.955 20.6243C145.047 20.946 147.979 17.4229 149.788 16.887C155.434 15.2141 165.575 15.8676 171.31 16.887C182.327 18.8457 188.965 21.8134 188.965 33.4471C188.965 34.4276 188.78 42.3428 190.383 38.4086C192.828 32.4059 197.817 26.5221 204.687 25.9725C212.621 25.3378 223.933 24.3155 231.622 26.4236C239.975 28.7139 248.207 37.0542 252.499 44.2079C254.196 47.0367 256.323 51.0368 254.496 54.3243C252.16 58.53 252 50.7721 254.045 49.7494C269.656 41.944 287.115 67.1879 290.129 79.5188C292.496 89.2015 293.945 114.755 278.273 115.216C272.131 115.397 275.953 115.518 275.953 121.66C275.953 131.379 276.77 141.486 275.889 151.172C275.167 159.118 269.282 165.936 263.195 170.631C258.614 174.165 257.194 171.186 259.716 172.307C264.85 174.588 264.708 179.125 266.03 184.227C268.531 193.874 265.464 203.346 259.136 210.775C254.427 216.303 247.663 219.432 242.318 224.242C241.134 225.307 234.487 226.262 234.263 227.27C233.599 230.262 234.134 233.538 233.49 236.614C231.853 244.438 228.219 251.924 224.662 259.037C219.475 269.412 215.351 273.405 204.301 276.435C198.487 278.029 189.806 280.037 183.746 278.69C178.516 277.528 182.632 272.712 183.101 274.824C186.481 290.033 167.882 294.845 157.907 298.472C153.033 300.244 148.966 300.792 143.795 300.792C139.813 300.792 138.219 299.466 134.968 298.537C131.297 297.488 125.307 290.601 123.111 294.993C114.858 311.5 104.038 286.099 101.976 279.915" stroke="white" stroke-width="5" stroke-linecap="round"/>
</svg>
