<svg width="264" height="220" viewBox="0 0 264 220" fill="none" xmlns="http://www.w3.org/2000/svg">
<path d="M10.2959 74.0918L12.5778 76.5918M12.5778 76.5918L18.9672 83.5918H34.2695H42.4307H46.0012H51.6121H55.1826L63.3439 81.5918H67.9346L73.5454 85.5918V88.0918V93.0918L77.626 98.5918L82.7268 100.592H88.3376V105.592H92.9283H99.0493H104.15L99.0493 118.092V123.592L107.721 127.092V131.092L112.821 137.092L132.714 141.592H138.835H147.507L165.359 154.592L177.601 160.092H184.742H193.413H200.044L203.615 167.092L208.716 185.092V192.092L213.307 208.092L226.569 215.092L238.3 210.092L246.972 196.592L254.623 185.092V173.092L255.643 156.092V145.592L254.623 137.092V125.592L250.032 109.592L242.891 88.0918L234.73 72.5918L226.569 58.5918L216.877 50.0918L213.307 42.5918L208.716 36.5918L196.984 26.0918L182.192 17.0918H168.42L158.728 19.5918L154.648 14.5918H143.936L138.835 10.5918H132.714H118.432H115.882L99.0493 12.5918H79.6663L65.8942 14.5918L51.6121 19.5918L38.3501 29.0918L24.578 38.5918L15.9067 48.0918L13.3563 58.5918L8.76562 69.0918L12.5778 76.5918Z" stroke="#DF9424" stroke-width="3"/>
<path d="M39.9573 63.1553C36.0757 63.1553 32.1881 63.5638 29.3871 60.3448C28.0662 58.8267 26.401 56.4685 26.401 54.3481C26.401 53.2941 31.2161 55.2253 31.5804 55.4102C35.6464 57.4733 39.0222 61.7622 37.9226 66.5357C37.5853 67.9999 37.0039 69.9498 35.7953 70.9522C34.3847 72.1223 32.1312 72.5368 30.4441 73.18C28.1839 74.0416 26.682 74.2843 25.0269 72.6619C24.2239 71.8748 23.2064 71.4017 22.4901 70.4989C20.1613 67.5639 21.0531 64.6612 22.1201 61.5234" stroke="#FF9900" stroke-width="20" stroke-linecap="round"/>
<path d="M57.6818 72.9434C55.1326 72.9434 54.2652 70.3302 53.4335 68.292C52.8782 66.9312 52.6416 65.4906 52.0919 64.1277C51.3901 62.3876 50.8189 60.804 49.9678 59.1353C47.4984 54.2942 41.9002 51.6085 39.6203 46.6422C39.0867 45.4799 39.3471 43.9076 39.3471 42.6483C39.3471 40.7065 40.0064 38.6567 41.2352 37.108C42.5013 35.5124 43.8179 34.0649 45.3841 32.6149C45.8633 32.1713 46.5751 31.8453 47.1729 31.5677C49.2333 30.611 50.7862 28.8845 52.9739 28.134C55.1694 27.3807 55.5565 28.9801 56.216 30.6423C57.4694 33.8018 57.9054 37.3564 57.9054 40.7245C57.9054 44.8589 60.1625 47.7798 63.2716 50.3195C66.9606 53.3329 71.1122 56.0862 73.7681 60.1216C75.5403 62.8143 75.7929 65.3594 75.7929 68.4503C75.7929 69.235 74.0886 70.9708 73.3334 70.9708C71.2374 70.9708 67.6969 71.5826 66.0666 69.9846C65.3477 69.2799 64.3292 68.6024 63.4952 68.012C62.4599 67.279 60.8954 65.1604 60.5885 63.9572" stroke="#D78304" stroke-width="20" stroke-linecap="round"/>
<path d="M72.9169 38.9962C72.9169 35.4326 69.8373 31.4548 67.9057 28.4795C66.7465 26.6938 66.2148 23.965 67.8385 22.3145C68.896 21.2394 72.7417 17.8786 74.5817 19.2815C76.5999 20.8201 77.8721 22.9245 79.2734 24.9849C80.9662 27.4739 81.344 30.7552 81.7118 33.639C82.2622 37.9556 85.2071 41.6886 87.5133 45.2271C91.0112 50.5939 96.1205 54.4155 98.1748 60.6396C99.1519 63.6002 99.5491 67.7594 98.4775 70.7607C97.6139 73.1792 96.4205 75.6502 94.3407 77.2719C91.8912 79.1819 88.6278 83.2061 85.1759 83.2061C83.9203 83.2061 81.563 83.6879 80.7869 82.5467C78.3798 79.0074 80.2429 73.4927 82.3171 70.3157C83.3848 68.6804 84.4341 66.9341 85.1591 65.1068C85.4451 64.3859 86.1734 62.3011 85.8654 61.5462C85.0777 59.616 83.2585 58.7888 81.9976 57.2439C81.0393 56.0696 79.5952 55.5071 78.668 54.1944C77.9296 53.1488 76.8363 52.359 76.0952 51.3097C74.7633 49.4239 75.0358 45.6357 75.0358 43.4469" stroke="#E7A33D" stroke-width="20" stroke-linecap="round"/>
<path d="M95.069 18.1899C95.069 19.8402 97.6223 21.663 98.6979 22.7173C100.237 24.2264 101.777 25.7355 103.316 27.2446C105.872 29.7496 107.943 32.7419 109.42 35.9579C112.097 41.7907 112.478 48.7382 113.287 54.9836C113.887 59.6184 113.769 64.2795 112.04 68.6374C108.766 76.8899 103.125 84.3472 96.7918 90.5555C95.2517 92.0652 92.9337 91.9209 90.9086 91.9209C89.499 91.9209 88.3032 91.9023 86.9865 91.6155C85.6964 91.3345 89.3646 87.8112 90.1205 87.0702" stroke="#CB8620" stroke-width="20" stroke-linecap="round"/>
<path d="M90.1205 87.0704C91.8999 83.3639 94.5428 80.0355 96.5352 76.3988C99.7841 70.4687 102.74 64.6243 105.296 58.3613C106.939 54.3338 109.01 50.0539 109.566 45.6955C109.71 44.5682 109.032 43.8839 108.265 43.0905C104.472 39.1658 100.78 35.0209 96.3886 31.7003C95.4554 30.9946 94.0285 29.2037 93.7677 28.0533C93.6475 27.5233 93.0322 25.971 92.5947 25.6279C92.2232 25.3366 91.8489 23.7961 91.6967 23.2924C91.2984 21.9747 90.7669 20.6374 90.4687 19.322C89.9448 17.0111 93.676 17.8668 95.2339 17.8668C97.6575 17.8668 101.947 17.059 104.123 18.0285C106.801 19.2219 109.413 18.9793 110.574 22.3941" stroke="#CB8620" stroke-width="20" stroke-linecap="round"/>
<path d="M123.953 34.796C123.953 31.601 123.855 28.2649 122.252 25.4378C121.888 24.7952 121.86 23.1579 121.86 22.4324C121.86 21.2504 121.67 19.9867 122.383 18.9569C122.811 18.339 124.07 17.4087 124.868 18.0168C125.314 18.3567 125.63 18.8471 126.103 19.1563C126.804 19.6146 127.721 19.7929 128.268 20.4525C131.522 24.3781 135.722 28.5723 135.722 34.0268C135.722 38.5971 133.917 42.8567 133.165 47.359C132.882 49.0574 132.845 50.6374 132.845 52.3585C132.845 54.6694 133.792 56.2754 134.531 58.3837C135 59.7219 135.775 60.9017 136.231 62.2437C136.958 64.3804 137.224 66.7304 137.553 68.9525C138.028 72.1517 138.648 77.1944 136.769 80.1197C135.872 81.5155 134.351 82.597 133.368 83.9655C132.734 84.8495 132.398 85.5972 131.276 85.8172" stroke="#DDB06D" stroke-width="20" stroke-linecap="round"/>
<path d="M99.1047 105.303C102.013 105.303 105.084 104.233 107.794 103.252C112.635 101.498 117.652 98.026 120.305 93.637C121.428 91.78 122.793 90.0741 123.11 87.8683C123.561 84.7307 123.952 81.8856 123.952 78.6953C123.952 74.2739 123.691 69.8843 123.691 65.4486C123.691 60.6209 126.056 56.266 125.783 51.4612C125.676 49.5614 124.999 47.6978 124.999 45.6925C124.999 43.7646 127.333 44.0338 128.66 43.5132" stroke="#DDB06D" stroke-width="20" stroke-linecap="round"/>
<path d="M150.547 43.0596C150.547 39.2075 151.062 34.9418 149.352 31.3509C148.409 29.3685 147.104 27.5284 146.012 25.6245C145.175 24.1662 145.106 22.6137 143.492 21.9107C141.314 20.9617 143.481 21.3252 144.836 21.3252C147.44 21.3252 149.772 21.6186 152.227 22.4778C154.247 23.1852 156.323 23.9025 158.106 25.1123C161.173 27.1936 162.25 28.7425 163.313 32.1924C165.533 39.401 161.269 45.7042 157.266 51.3106C156.022 53.0523 154.914 54.7617 154.914 56.9088C154.914 60.1575 156.415 62.7365 157.602 65.7087C158.589 68.1815 159.282 70.6846 159.282 73.356C159.282 76.2777 158.385 78.2435 157.602 80.9301C157.214 82.2622 155.957 83.815 155.176 84.955C153.028 88.0888 151.166 91.4036 148.774 94.3768C143.762 100.606 138.838 106.963 134.571 113.715C133.926 114.734 133.169 116.495 131.734 116.495" stroke="#FF9900" stroke-width="20" stroke-linecap="round"/>
<path d="M131.734 117.154C130.768 117.259 129.634 118.677 128.71 119.13C127.47 119.738 126.175 120.376 124.847 120.776C121.867 121.675 119.818 122.752 116.542 122.752C114.69 122.752 112.752 122.423 111.073 122.423C109.121 122.423 109.153 119.935 110.401 118.984C112.63 117.285 116.742 114.741 119.565 114.52C121.826 114.342 124.33 111.466 125.874 110.074C127.753 108.379 130.014 107.195 131.902 105.482C133.911 103.658 135.998 101.802 138.117 100.103C140.476 98.2111 143.016 96.5369 145.34 94.5964C146.543 93.5912 148.677 92.6853 149.203 91.1387" stroke="#FF9900" stroke-width="20" stroke-linecap="round"/>
<path d="M179.426 61.8944C179.426 60.2619 177.431 59.0487 176.324 58.0238C175.121 56.9102 174.785 56.4302 174.647 54.5987C174.472 52.2825 174.349 49.9857 174.349 47.6562C174.349 45.1902 174.913 42.8272 174.913 40.3911C174.913 36.8982 175.235 33.8023 173.629 30.6532C173.099 29.615 171.998 29.061 171.529 28.0268C171.143 27.1749 170.647 26.453 170.119 25.6768" stroke="#D78304" stroke-width="20" stroke-linecap="round"/>
<path d="M119.204 134.633C125.44 134.633 131.629 134.295 137.605 132.378C142.983 130.653 146.77 128.287 149.852 123.568C152.149 120.048 153.279 115.289 154.175 111.25C155.593 104.855 159.699 98.4771 164.057 93.6714C166.99 90.4369 169.639 86.6527 172.108 83.0657C174.805 79.1474 177.85 75.3283 180.073 71.1239C181.323 68.7626 181.309 66.7396 181.309 64.1718C181.309 62.8946 181.381 61.4184 180.84 60.226C180.426 59.3136 179.524 59.3924 178.625 59.0986" stroke="#D78304" stroke-width="20" stroke-linecap="round"/>
<path d="M175.175 69.9964C174.211 69.8782 175.045 64.3597 174.6 63.3992C173.894 61.877 174.408 59.2388 174.408 57.5953C174.408 54.4962 174.856 51.444 175.388 48.3884C175.994 44.9076 177.972 41.3936 177.177 37.8872C176.536 35.0614 175.404 30.2983 176.41 27.4485C177.357 24.7677 183.505 22.5866 185.696 24.7345C187.642 26.6413 186.178 30.3153 186.889 32.6052C187.615 34.9432 188.193 37.3616 188.784 39.7452C189.329 41.9405 190.427 44.3379 190.51 46.6139C190.618 49.5848 189.827 52.5195 188.401 55.1318C188.112 55.6615 185.685 60.5386 185.143 59.4742" stroke="#D78304" stroke-width="20" stroke-linecap="round"/>
<path d="M162.524 141.396C162.524 137.994 164.286 137.584 167.295 136.511C168.121 136.217 169.424 135.768 169.424 134.799C169.424 131.781 170.575 128.806 170.575 125.822C170.575 124.027 171.804 122.04 172.406 120.269C173.91 115.847 177.111 112.026 179.307 107.951C180.251 106.199 181.582 104.745 182.629 103.066C183.723 101.312 184.395 99.2709 185.334 97.4289C188.588 91.0496 190.499 83.9209 193.768 77.512C194.51 76.0571 195.764 74.8499 196.643 73.4618C197.973 71.3619 199.269 69.3347 200.775 67.3656C203.834 63.3676 203.927 57.1527 203.927 52.334" stroke="#DDB06D" stroke-width="20" stroke-linecap="round"/>
<path d="M203.544 52.3342C203.544 50.4925 203.545 48.8621 203.075 47.0732C202.698 45.6335 201.993 42.9404 201.052 41.833C199.541 40.0553 199.546 37.0606 198.177 35.0479" stroke="#DDB06D" stroke-width="20" stroke-linecap="round"/>
<path d="M212.361 60.6016C213.215 60.7062 208.108 74.4442 207.399 76.009C204.668 82.031 201.684 87.67 198.177 93.2953C194.905 98.5441 189.999 101.989 185.334 105.884C180.667 109.781 177.475 114.256 173.642 118.849C169.663 123.616 167.823 129.769 162.141 133.046C159.781 134.406 157.156 138.39 154.09 138.39" stroke="#DDB06D" stroke-width="20" stroke-linecap="round"/>
<path d="M174.827 150.932C178.121 150.932 180.891 148.393 183.597 146.92C185.566 145.847 188.47 144.225 188.47 141.761C188.47 139.371 190.147 135.951 191.025 133.737C192.527 129.951 195.066 125.279 197.825 122.274C204.313 115.208 209.577 107.258 213.894 98.7953C216.525 93.6369 220.313 87.8431 221.603 82.1525C221.987 80.459 222.487 78.1472 223.358 76.6119C224.088 75.3233 224.722 74.4618 224.722 72.9819" stroke="#FF9900" stroke-width="20" stroke-linecap="round"/>
<path d="M224.722 72.9818C224.722 71.8355 224.722 70.6892 224.722 69.5429C224.722 68.2854 223.813 67.5423 223.531 66.295C223.272 65.1524 222.187 64.2291 222.015 63.0471C221.831 61.7836 221.36 60.8977 220.434 59.9902" stroke="#FF9900" stroke-width="20" stroke-linecap="round"/>
<path d="M195.988 153.667C199.264 153.667 202.005 153.721 204.78 151.745C207.24 149.994 209.873 147.878 211.777 145.544C214.061 142.747 215.715 139.177 216.937 135.823C219.29 129.366 220.652 122.351 223.707 116.157C224.368 114.817 224.753 113.332 225.524 112.049C226.109 111.075 226.881 110.415 227.65 109.611C227.892 109.359 229.306 108.757 229.239 108.691" stroke="#E7A33D" stroke-width="20" stroke-linecap="round"/>
<path d="M229.239 108.691C229.239 105.976 228.855 102.95 229.796 100.355C230.481 98.4684 230.712 96.409 231.241 94.4877C231.814 92.4102 232.215 90.0021 233.285 88.1145C233.664 87.4454 233.261 87.708 232.686 87.3861C232.28 87.1586 232.583 84.8817 232.583 84.4727" stroke="#E7A33D" stroke-width="20" stroke-linecap="round"/>
<path d="M204.719 145.838C204.719 143.953 203.735 141.948 203.325 140.102C202.849 137.956 204.197 136.283 205.462 134.649C207.368 132.186 210.293 131.77 212.706 129.996" stroke="#E7A33D" stroke-width="20" stroke-linecap="round"/>
<path d="M209.393 163.649C209.443 163.251 211.046 162.263 211.422 161.974C212.444 161.19 213.498 160.45 214.519 159.671C217.503 157.396 219.218 154.309 221.353 151.285C224.63 146.646 227.303 141.5 230.324 136.688C231.747 134.42 233.33 132.176 234.596 129.825C234.869 129.317 235.338 128.112 235.877 127.848" stroke="#D78304" stroke-width="20" stroke-linecap="round"/>
<path d="M235.877 127.848C235.877 125.778 236.519 123.901 237.111 121.939C237.86 119.463 238.179 116.848 238.702 114.286C239.011 112.771 239.305 111.248 239.615 109.726C239.934 108.163 240.087 106.264 240.742 104.817C241.016 104.213 240.974 103.472 241.217 102.817C241.894 100.991 242.232 99.2809 242.499 97.2803" stroke="#D78304" stroke-width="20" stroke-linecap="round"/>
<path d="M211.243 178.071C220.893 178.071 228.071 169.15 233.483 162.329C235.665 159.578 237.931 157.005 239.859 154.052C242.779 149.58 245.226 144.816 248.258 140.422C250.632 136.983 252.763 131.591 252.763 127.389" stroke="#DDB06D" stroke-width="20" stroke-linecap="round"/>
<path d="M215.029 196.517C217.62 196.517 220.276 196.684 222.841 196.337C227.162 195.752 230.615 193.584 234.079 191.078C237.038 188.939 239.19 185.411 241.096 182.401C242.041 180.908 243.025 179.485 243.89 177.943C246.844 172.678 248.958 166.936 251.376 161.428" stroke="#CB8620" stroke-width="20" stroke-linecap="round"/>
<path d="M222.47 207.506C222.673 206.713 225.552 207.506 226.065 207.506C228.397 207.506 230.551 207.693 232.719 206.906C235.639 205.846 238.467 202.612 240.23 200.218C241.74 198.169 243.066 196.008 244.223 193.74C244.989 192.239 246.15 190.614 246.15 188.882C246.15 187.468 246.528 186.224 246.686 184.833C246.798 183.845 246.533 182.81 246.839 181.849C247.061 181.151 247.252 180.042 247.252 179.315C247.252 177.853 247.474 182.232 247.527 183.694C247.63 186.508 247.595 189.443 246.15 191.971C243.914 195.886 241.251 199.603 238.777 203.397C237.262 205.721 235.688 207.573 233.209 208.855C228.539 211.271 224.314 212.364 219.044 212.364C215.704 212.364 216.688 207.553 216.688 205.347" stroke="#CB8620" stroke-width="15" stroke-linecap="round"/>
<path d="M192.755 158.244C192.663 158.606 190.262 158.376 189.949 158.376C188.366 158.376 186.782 158.376 185.199 158.376C184.314 158.376 183.442 158.363 182.573 158.178C182.18 158.094 182.015 157.979 182.49 157.979C185.129 157.979 187.766 158.066 190.392 157.78C191.492 157.661 192.61 157.563 193.701 157.376C195.342 157.094 196.585 156.304 197.888 155.331" stroke="#E7A33D" stroke-width="10" stroke-linecap="round"/>
<path d="M184.516 158.244C184.516 157.57 184.583 156.819 184.816 156.184C185.104 155.402 185.847 154.901 186.34 154.257C188.679 151.199 191.316 148.263 193.911 145.401C196.986 142.01 200.304 138.875 203.186 135.316C204.491 133.704 205.743 132.057 206.908 130.344C207.246 129.846 207.689 129.288 207.883 128.718" stroke="#E7A33D" stroke-width="10" stroke-linecap="round"/>
<path d="M233.817 75.3608C234.253 75.3608 234.88 76.2385 235.167 76.5598C236.03 77.5264 236.885 78.4316 237.463 79.5977C238.026 80.7319 238.788 81.7442 239.152 82.9739C239.345 83.6255 239.843 85.2343 239.414 85.8941C239.022 86.4982 238.45 86.975 238.004 87.5418C237.452 88.2429 236.937 88.9855 236.353 89.6602C234.815 91.4362 233.293 93.0218 232.053 95.0372C229.321 99.4776 226.871 104.128 225.367 109.123C224.141 113.196 224.332 117.525 222.876 121.569" stroke="#E7A33D" stroke-width="10" stroke-linecap="round"/>
<path d="M249.985 123.212C250.653 123.13 249.781 115.86 249.781 114.997C249.781 114.632 250.19 113.238 250.19 114.253C250.19 115.037 250.351 115.779 251.017 116.309C252.453 117.452 253.981 119.478 254.986 121.011C258.062 125.701 258.926 131.78 257.946 137.262C257.6 139.198 257.052 141.027 256.234 142.809C255.984 143.353 255.76 144.038 255.247 144.421C254.862 144.707 252.756 147.451 252.435 146.822" stroke="#DDB06D" stroke-width="10" stroke-linecap="round"/>
<path d="M178.258 133.978C178.258 128.839 177.976 123.742 180.768 119.146C181.991 117.134 183.477 115.195 184.964 113.366C185.639 112.536 186.334 111.715 186.973 110.857C187.165 110.599 187.282 110.354 187.589 110.254" stroke="#DDB06D" stroke-width="10" stroke-linecap="round"/>
<path d="M191.962 110.54C191.962 115.334 187.521 119.372 183.976 122.084C181.164 124.235 177.978 126.075 175.925 129.039C174.857 130.582 173.758 132.176 172.871 133.827C172.238 135.007 171.856 136.284 171.259 137.479C170.71 138.581 170.101 139.671 169.218 140.552C168.609 141.16 167.954 141.702 167.388 142.347C166.262 143.627 165.422 145.286 164.698 146.809C164.201 147.857 163.867 149.121 163.24 150.096C162.01 152.012 160.416 151.948 158.138 151.7C155.504 151.413 152.938 150.177 150.856 148.619C149.621 147.696 148.925 146.272 147.713 145.348C146.815 144.663 146.62 144.124 146.62 142.966C146.62 141.185 147.633 139.998 148.628 138.583C149.947 136.709 151.352 134.901 152.597 132.978C156.131 127.518 159.794 122.13 163.354 116.685C164.766 114.526 166.137 112.324 167.46 110.111C168.541 108.303 169.295 106.368 170.611 104.688C172.631 102.11 174.903 99.9648 177.237 97.6773C178.249 96.6852 179.379 95.8572 180.444 94.9301C181.942 93.6278 183.082 91.7438 184.381 90.2456" stroke="#DDB06D" stroke-width="10" stroke-linecap="round"/>
<path d="M212.228 51.2297C212.228 50.166 212.374 49.1055 212.374 48.0538C212.374 46.3979 211.41 45.1904 210.487 43.8774C207.991 40.3305 204.006 37.9202 201.148 34.6514" stroke="#DDB06D" stroke-width="10" stroke-linecap="round"/>
<path d="M149.418 77.9251C149.418 74.4196 149.819 70.6702 148.989 67.2449C147.296 60.26 143.741 53.6747 143.241 46.4416C143.046 43.6286 142.947 40.8078 142.844 37.99C142.746 35.3054 142.662 32.6392 142.662 29.9483C142.662 28.4698 142.766 26.9682 142.469 25.5122" stroke="#FF9900" stroke-width="10" stroke-linecap="round"/>
<path d="M142.469 25.7017C141.899 25.0731 141.522 24.2668 140.936 23.6203C140.139 22.7417 139.103 21.9185 138.415 20.9713C137.263 19.3837 135.189 17.7037 134.598 15.8204C134.355 15.0476 134.299 13.048 134.984 12.4986C136.018 11.6688 137.847 11.1757 139.08 10.7641C140.938 10.1441 143.165 9.7681 145.129 10.0388C146.743 10.2613 148.235 11.0313 149.804 11.4159C151.168 11.7502 152.78 12.2773 154.051 12.877C156.254 13.9167 158.245 14.9968 158.298 17.7546C158.333 19.6207 158.188 21.2102 157.525 22.9791C156.348 26.1209 155.415 29.3537 154.287 32.5135C152.333 37.9862 151.004 43.6538 149.901 49.3432C149.156 53.1808 148.708 57.0801 147.874 60.8959" stroke="#FF9900" stroke-width="10" stroke-linecap="round"/>
<path d="M102.898 118.417C101.192 118.417 101.354 119.653 101.161 121.119C101.012 122.246 100.52 124.257 101.847 124.945C103.197 125.646 104.518 126.542 105.944 127.079C107.058 127.499 107.924 127.12 109.075 126.932" stroke="#FF9900" stroke-width="10" stroke-linecap="round"/>
<path d="M87.0926 88.4905C86.9931 88.7506 86.4889 88.7909 86.2704 88.8819C85.1054 89.3676 84.0042 90.0511 82.8996 90.6549C82.2137 91.0299 80.584 91.7152 80.163 92.4279C78.9944 94.4066 77.7905 97.3996 77.7905 99.6696C77.7905 101.014 78.0824 100.759 79.2704 101.235C80.7018 101.809 82.2384 101.792 83.71 102.122C86.6726 102.786 88.2578 100.404 89.4064 98.0117C90.6132 95.4979 90.9562 92.6141 91.6379 89.9411C92.4402 86.7952 93.4959 84.0783 95.1262 81.2373" stroke="#CB8620" stroke-width="10" stroke-linecap="round"/>
<path d="M99.5657 16.373C101.79 14.1928 104.821 12.8973 107.599 11.5605C109.31 10.7375 110.655 10.1405 112.156 8.90104C113.356 7.91069 114.554 6.92487 115.915 6.14943C116.246 5.9606 117.009 5.4126 117.43 5.4126C118.524 5.4126 117.23 9.40017 116.972 9.76451C114.896 12.694 111.396 14.8773 108.656 17.1559C107.036 18.5032 105.43 19.975 103.629 21.0933C102.385 21.8666 100.984 22.0804 99.5657 22.3828" stroke="#CB8620" stroke-width="10" stroke-linecap="round"/>
<path d="M38.6138 30.936C38.0233 31.3991 36.5268 31.0958 35.7815 31.1096C34.222 31.1384 32.6028 32.3998 31.2775 33.105C30.3361 33.606 28.3469 34.5196 28.3469 35.7945C28.3469 36.2293 28.9586 36.5676 29.2713 36.8742C30.4124 37.9927 31.4097 39.2776 32.3396 40.5662C34.4007 43.4227 37.161 45.8226 39.6758 48.2878" stroke="#D78304" stroke-width="10" stroke-linecap="round"/>
<path d="M48.8804 73.1011C48.8804 73.8804 48.8268 74.6767 48.8902 75.4532C48.9989 76.7852 50.2893 78.1752 51.2602 78.991C53.128 80.5603 55.3339 81.0568 57.7114 81.507C61.2963 82.1859 64.8688 82.471 68.5192 82.471C69.0422 82.471 69.4756 82.6203 69.7288 82.124C70.1874 81.2248 70.1221 79.8208 70.1221 78.8271" stroke="#D78304" stroke-width="10" stroke-linecap="round"/>
<path d="M24.9478 43.4062C22.8241 44.5019 20.7212 46.4209 19.2024 48.2135C17.372 50.3738 15.6475 52.7165 14.5085 55.3073C13.069 58.5818 12.0286 62.2709 11.631 65.8214C11.4359 67.5643 11.0786 70.086 11.9083 71.7438C13.2915 74.5078 15.1952 77.1234 17.2044 79.4654C18.0412 80.441 19.3136 81.0364 20.3973 81.6957C21.7537 82.521 23.2082 83.1296 24.7375 83.5512C27.7602 84.3845 30.8011 84.5632 33.9339 84.5632C36.2823 84.5632 38.6447 84.7343 40.9126 84.0197C41.8635 83.7201 42.3344 83.3743 42.1171 82.3329C41.513 79.4379 39.9895 77.861 37.5093 76.2981" stroke="#FF9900" stroke-width="10" stroke-linecap="round"/>
<path d="M10.2803 60.6874C7.73669 65.6742 5.27994 69.9148 5.27994 75.6796C5.27994 82.8549 4.79302 90.5533 7.23996 97.4492C7.47759 98.1189 9.86451 103.144 11.1754 100.717C12.6953 97.9028 14.7251 94.7796 14.7251 91.5189C14.7251 90.1629 14.0027 88.692 13.3361 87.5251C12.1738 85.4906 11.5 83.176 10.697 80.9896C9.6272 78.0767 9.44691 75.7518 9.44691 72.6842C9.44691 69.5598 9.6354 66.7126 10.2186 63.6828C10.5206 62.1136 11.1403 60.6476 11.4532 59.1141C11.8395 57.2209 11.982 55.1059 12.8422 53.3351C13.7518 51.4627 14.8955 49.3556 16.3919 47.8889C16.9874 47.3051 19.238 45.1503 17.7808 46.9358C14.0163 51.5485 10.0337 57.3482 9.50864 63.4105C8.93509 70.0322 11.4334 77.9104 15.7745 83.0168C17.7058 85.2886 19.7673 86.9125 22.3645 88.3269C24.3589 89.413 20.77 92.6551 19.8798 93.9243C18.9217 95.2903 17.451 97.5366 16.0523 98.5385C14.5059 99.6463 12.2845 101.806 10.2803 101.806" stroke="#CB8620" stroke-width="10" stroke-linecap="round"/>
</svg>
