<svg width="171" height="170" viewBox="0 0 171 170" fill="none" xmlns="http://www.w3.org/2000/svg">
<ellipse cx="85.2405" cy="85.0444" rx="85" ry="84.5" fill="#B4CF40"/>
<path d="M93.7454 90.4875C93.6746 91.0596 88.3864 90.7027 87.7356 90.6818C85.1984 90.6005 81.8897 89.5001 81.3637 86.5781C80.8521 83.7362 83.1329 81.6227 85.4947 80.5311C89.4425 78.7064 93.5053 79.8913 95.3751 83.9832C96.1419 85.6613 96.489 87.3969 96.7559 89.2072C96.8699 89.9802 96.0474 90.1494 95.443 90.2817C92.9578 90.8261 90.3203 90.911 87.7922 91.1048C84.3554 91.3682 80.8702 91.5537 77.8325 89.6187C75.9386 88.4123 72.9796 85.1309 75.4558 82.9773C77.8028 80.9361 83.4909 78.1763 86.1851 80.9655C88.1958 83.047 89.0602 86.5198 88.6071 89.3672C88.2548 91.581 84.2781 92.5989 82.5408 93.1623C80.035 93.975 77.3282 94.1911 74.7088 94.1911C72.521 94.1911 70.6781 92.563 69.4121 90.8876C67.1724 87.9234 65.6485 82.443 67.058 78.805C68.5512 74.9508 73.2191 73.2239 77.0403 73.0095C78.8255 72.9093 81.4962 72.5367 82.9029 73.8668C84.5587 75.4324 86.0899 77.4054 87.2263 79.388C88.2744 81.2164 89.119 83.3953 89.0598 85.5493C89.026 86.7799 86.6022 87.7242 85.755 88.1784C84.4575 88.8741 80.6878 90.0996 79.4963 88.7157C77.9589 86.93 78.5331 83.2257 79.202 81.2284C81.3191 74.9066 86.4581 70.6317 93.1342 69.9574C95.5116 69.7173 97.36 70.8981 99.144 72.3922C101.442 74.3168 103.537 76.4824 105.244 78.965C108.454 83.6331 105.424 89.0077 102.505 92.9566C99.6309 96.8457 93.3935 98.0053 88.8674 97.1632C85.1395 96.4696 81.8961 92.5346 80.5035 89.2529" stroke="#E3EBC9" stroke-width="10" stroke-linecap="round"/>
<path d="M86.6152 105.92C86.6152 115.163 86.5401 124.399 86.4228 133.64C86.3978 135.606 86.4114 137.572 86.4114 139.538C86.4114 140.101 86.5485 140.871 86.3096 141.402C86.0635 141.949 85.728 140.753 85.5966 140.487" stroke="#A1B071" stroke-width="7" stroke-linecap="round"/>
<path d="M80.2998 104.273C80.2998 106.249 79.4607 108.143 78.7946 109.966C77.7287 112.883 76.4615 115.75 75.2747 118.619C73.9639 121.789 72.4817 124.914 71.3361 128.141C70.9476 129.236 70.8697 130.125 70.7137 131.228C70.6267 131.842 69.3252 135.19 69.0952 134.726" stroke="#A1B071" stroke-width="7" stroke-linecap="round"/>
<path d="M56.2609 129.17C56.4631 128.941 56.4422 128.78 56.4872 128.484C56.6467 127.437 57.0767 126.485 57.585 125.57C58.6415 123.667 59.7484 121.813 60.8446 119.934C62.627 116.879 64.4985 113.912 66.4469 110.961C67.2423 109.756 67.7338 108.231 68.6878 107.154C69.3971 106.354 70.0443 105.237 70.5213 104.274C71.0767 103.152 71.8112 102.08 72.3548 100.981" stroke="#A1B071" stroke-width="7" stroke-linecap="round"/>
<path d="M43.6301 123.821C43.6301 122.51 45.0573 120.81 45.7126 119.751C47.12 117.477 48.5418 115.341 50.2284 113.259C52.8423 110.032 54.8779 106.339 57.4831 103.085C58.7439 101.51 59.8262 99.8498 61.2519 98.4097C62.2493 97.4024 62.7452 94.8206 64.0022 94.3975" stroke="#A1B071" stroke-width="7" stroke-linecap="round"/>
<path d="M36.5 102.216C37.1678 102.132 38.3519 101.171 38.9446 100.776C40.2034 99.9362 41.5608 99.1802 42.8832 98.4439C45.3458 97.0727 47.8661 95.9618 50.3756 94.6945C52.2304 93.7578 53.8859 92.7196 55.6497 91.631C56.9005 90.859 58.4882 90.4948 59.7241 89.8706" stroke="#A1B071" stroke-width="7" stroke-linecap="round"/>
<path d="M34.6665 88.4302C37.6525 88.4302 40.6241 86.9132 43.6076 86.5783C45.9103 86.3199 48.587 85.6904 50.7604 84.8866C52.8177 84.1256 54.9219 83.9239 56.9739 83.2862C57.8806 83.0044 58.5633 82.6689 59.5204 82.6689" stroke="#A1B071" stroke-width="7" stroke-linecap="round"/>
<path d="M33.2405 73.6152C38.3758 73.6152 43.1784 73.9923 48.2705 74.7583C51.4295 75.2335 54.6495 76.2901 57.8454 76.2901C58.9235 76.2901 59.8096 76.2304 60.7427 76.7016" stroke="#A1B071" stroke-width="7" stroke-linecap="round"/>
<path d="M38.4574 57.6899C39.1238 57.6899 39.7813 57.8846 40.356 58.2297C41.806 59.1005 43.241 59.9901 44.6594 60.9143C46.3067 61.9877 47.8476 63.2228 49.5675 64.1812C50.9135 64.9312 52.339 65.6497 53.6178 66.5107C55.8845 68.0369 58.22 69.4627 60.4807 70.985" stroke="#A1B071" stroke-width="7" stroke-linecap="round"/>
<path d="M45.6449 45.793C51.1846 51.3881 55.7775 57.8741 61.3036 63.4554C62.4281 64.5912 63.6771 65.8775 64.5451 67.2261C64.8057 67.6311 65.2293 68.0955 65.5667 68.4363C65.7763 68.648 65.9309 68.9356 66.191 69.0669" stroke="#A1B071" stroke-width="7" stroke-linecap="round"/>
<path d="M71.8668 68.2644C71.8668 67.5822 71.2621 66.8595 70.9019 66.3217C70.1155 65.1476 69.2081 64.0895 68.3983 62.9332C67.517 61.6747 66.5596 60.4283 65.6235 59.2071C63.8961 56.9535 62.5996 54.3351 61.1964 51.8695C60.3006 50.2954 59.2819 48.7978 58.5856 47.1179C58.1022 45.9515 57.4677 44.8514 56.8829 43.7357C56.2573 42.5423 55.7549 41.1403 54.9531 40.0605" stroke="#A1B071" stroke-width="7" stroke-linecap="round"/>
<path d="M77.9966 65.742C77.9966 64.5989 77.4273 63.6432 76.9182 62.6528C75.9996 60.866 75.187 59.0163 74.4713 57.1369C73.7543 55.254 72.9941 53.3795 72.2073 51.5254C71.3716 49.5559 70.3784 47.6795 69.6848 45.6528C68.9574 43.5276 67.8775 41.4921 67.2757 39.3215C67.1 38.6877 66.9098 38.025 66.6451 37.4235C66.5313 37.1649 66.4357 36.5152 66.191 36.3916" stroke="#A1B071" stroke-width="7" stroke-linecap="round"/>
<path d="M84.1264 66.774C84.1264 63.8483 84.1264 60.9226 84.1264 57.9969C84.1264 55.8779 84.0147 53.7463 83.7858 51.6402C83.5461 49.4339 83.4608 47.2204 83.2182 45.016C82.9244 42.3449 82.8194 39.667 82.3669 37.0159C82.2398 36.2714 82.1669 35.5297 82.0579 34.7866C82.0136 34.4846 82.0337 33.7872 81.7426 33.6401" stroke="#A1B071" stroke-width="7" stroke-linecap="round"/>
<path d="M90.7102 63.5636C90.7102 55.1705 90.9372 46.7907 90.9372 38.398C90.9372 36.5414 90.8237 34.6776 90.8237 32.8311C90.8237 32.2453 91.0278 30.9112 90.4832 30.5444" stroke="#A1B071" stroke-width="7" stroke-linecap="round"/>
<path d="M96.1589 64.2515C96.1589 62.7954 97.0476 61.5563 97.6346 60.2897C99.04 57.2573 100.456 54.2389 101.809 51.1814C103.582 47.1766 105.348 43.1804 107.29 39.2578C107.945 37.9332 108.677 36.6462 109.32 35.3151C109.511 34.9196 109.781 34.4382 109.781 33.9839" stroke="#A1B071" stroke-width="7" stroke-linecap="round"/>
<path d="M101.267 67.233C101.334 66.8977 101.775 66.5288 101.967 66.284C102.517 65.584 103.053 64.8866 103.651 64.2267C105.178 62.5415 106.714 60.8642 108.217 59.1566C111.2 55.7669 114.362 52.5429 117.525 49.3222C119.982 46.8201 122.416 44.2679 124.878 41.7808" stroke="#A1B071" stroke-width="7" stroke-linecap="round"/>
<path d="M106.375 71.2451C107.059 71.2451 107.806 70.6076 108.305 70.1878C110.38 68.4415 112.407 66.6616 114.536 64.9776C116.737 63.2358 119.011 61.5918 121.246 59.8948C123.709 58.0243 126.071 56.0314 128.485 54.0986C130.61 52.3981 132.653 50.5885 134.817 48.9394C135.741 48.2347 136.72 47.5952 137.592 46.8247" stroke="#A1B071" stroke-width="7" stroke-linecap="round"/>
<path d="M110.802 76.8633C112.534 76.8633 114.271 75.6676 115.734 74.8633C118.111 73.5567 120.579 72.7771 123.087 71.7933C127.294 70.1433 131.584 68.754 135.82 67.1818C137.466 66.5706 139.113 65.8416 140.77 65.2837" stroke="#A1B071" stroke-width="7" stroke-linecap="round"/>
<path d="M114.321 84.3152C117.673 84.3152 121.049 84.4431 124.386 84.1113C128.839 83.6687 133.319 83.7067 137.768 83.1941C140.916 82.8316 144.075 82.3968 147.241 82.2515" stroke="#A1B071" stroke-width="7" stroke-linecap="round"/>
<path d="M108.873 91.08C109.516 91.08 110.166 91.0522 110.809 91.0864C112.135 91.1569 113.493 91.7741 114.725 92.2265C118.771 93.7124 123.033 94.7882 127.293 95.3857C129.835 95.7423 132.381 96.1846 134.867 96.8125C136.019 97.1032 137.327 97.4241 138.386 97.959" stroke="#A1B071" stroke-width="7" stroke-linecap="round"/>
<path d="M106.489 97.1562C106.859 97.1936 107.32 97.4774 107.624 97.6658C108.954 98.4903 110.201 99.6446 111.383 100.666C115.33 104.077 119.345 107.384 123.402 110.659C126.75 113.361 130.127 116.006 133.505 118.666C134.193 119.208 135.05 119.583 135.662 120.201" stroke="#A1B071" stroke-width="7" stroke-linecap="round"/>
<path d="M99.6779 102.774C100.013 102.774 100.337 103.053 100.586 103.258C101.501 104.011 102.328 104.792 103.134 105.666C106.77 109.608 110.408 113.542 113.911 117.608C115.896 119.912 118.164 121.946 120.451 123.933C121.604 124.935 122.7 126.005 123.85 127.01C124.478 127.559 125.164 128.428 125.9 128.799" stroke="#A1B071" stroke-width="7" stroke-linecap="round"/>
<path d="M92.2994 102.889C92.2994 103.111 92.3579 103.304 92.4382 103.513C92.903 104.72 93.6318 105.864 94.2544 106.991C95.6911 109.59 97.3867 112.029 98.9968 114.519C101.132 117.822 103.244 121.137 105.442 124.398C107.581 127.572 109.864 130.639 112.026 133.793C112.136 133.954 112.977 135.316 113.073 135.22" stroke="#A1B071" stroke-width="7" stroke-linecap="round"/>
<path d="M122.757 108.584C122.237 108.584 121.924 108.561 121.539 108.15C121.086 107.665 121.476 107.412 121.985 107.514C122.65 107.649 123.401 108.135 123.602 108.817C123.661 109.021 123.654 109.276 123.426 109.34C122.524 109.595 121.558 108.87 120.894 108.367" stroke="#222603" stroke-width="5" stroke-linecap="round"/>
<path d="M131.86 118.356C131.656 118.356 131.461 118.239 131.589 117.994C131.747 117.693 132.651 117.893 132.863 118.05C133.108 118.233 133.11 118.519 133.166 118.79C133.223 119.074 133.006 119.092 132.76 119.064C131.912 118.968 131.247 118.468 130.57 117.994" stroke="#222603" stroke-width="5" stroke-linecap="round"/>
<path d="M110.502 100.693C110.502 100.222 110.574 99.9621 110.574 100.585C110.574 100.725 110.624 100.989 110.542 101.112C110.422 101.289 110.171 101.202 110.128 101.023C110.053 100.714 109.847 99.6543 110.398 99.7604C110.753 99.8286 111.074 100.447 111.203 100.75C111.251 100.863 111.338 101.094 111.282 101.22C111.244 101.308 110.817 100.932 110.789 100.911" stroke="#222603" stroke-width="5" stroke-linecap="round"/>
<path d="M118.811 94.0154C117.98 94.0154 117.135 94.0596 116.305 94.0154C115.913 93.9946 116.494 93.4556 116.641 93.4059C117.597 93.0843 118.536 93.066 119.543 93.066C119.851 93.066 120.385 92.9558 120.459 93.3825C120.565 93.9867 119 93.5242 118.811 93.488" stroke="#222603" stroke-width="5" stroke-linecap="round"/>
<path d="M134.061 96.4417C134.268 96.4155 134.135 95.8513 134.455 95.7267C134.766 95.6061 134.847 95.7166 134.902 95.967C135.049 96.6349 134.155 96.8314 133.956 96.2307" stroke="#222603" stroke-width="5" stroke-linecap="round"/>
<path d="M118.394 85.5759C118.686 85.5759 118.885 85.1442 119.078 84.9429C119.193 84.8241 119.68 84.4762 119.38 84.7788C119.274 84.8857 118.852 84.8796 118.817 85.0015C118.739 85.278 118.916 85.2951 118.916 84.9429" stroke="#222603" stroke-width="5" stroke-linecap="round"/>
<path d="M134.583 83.3602C134.113 83.3008 135.209 81.8826 135.511 82.569C135.784 83.1885 135.362 83.5521 134.792 83.3602" stroke="#222603" stroke-width="5" stroke-linecap="round"/>
<path d="M135.418 67.5367C135.418 67.2604 135.409 66.9815 135.5 66.7162C135.576 66.4923 135.836 66.3892 135.836 66.6928C135.836 67.0184 135.562 67.8388 135.418 67.1147" stroke="#222603" stroke-width="5" stroke-linecap="round"/>
<path d="M120.483 72.6005C120.483 72.2821 120.587 73.2315 120.587 73.55C120.587 73.8796 120.556 74.1004 120.169 74.0774C119.805 74.0558 120.002 73.0028 120.065 72.8115" stroke="#222603" stroke-width="5" stroke-linecap="round"/>
<path d="M128.63 71.4397C128.594 71.7251 128.489 71.2618 128.711 71.4631C128.855 71.5946 128.889 71.8151 128.838 71.9672" stroke="#222603" stroke-width="5" stroke-linecap="round"/>
<path d="M108.262 70.5957C108.596 70.6332 108.768 71.4397 108.367 71.4397C107.932 71.4397 107.845 70.7428 107.845 70.3848" stroke="#222603" stroke-width="5" stroke-linecap="round"/>
<path d="M120.587 58.9916C120.587 58.7345 120.433 57.8226 120.61 57.6436C120.834 57.4177 121.061 58.225 120.796 58.3586" stroke="#222603" stroke-width="5" stroke-linecap="round"/>
<path d="M129.361 53.2957C129.361 53.1008 129.297 52.7799 129.384 52.6042C129.418 52.5343 129.751 52.3144 129.773 52.4108C129.822 52.6333 129.778 52.9093 129.778 53.1375C129.778 53.615 129.186 52.6145 129.152 52.5573" stroke="#222603" stroke-width="5" stroke-linecap="round"/>
<path d="M96.1466 63.1057C96.1466 62.5484 96.7096 63.3694 96.402 63.68C95.956 64.1304 95.9377 63.1947 95.9377 63.0002" stroke="#222603" stroke-width="5" stroke-linecap="round"/>
<path d="M99.1755 53.2955C99.2585 53.2955 99.1381 52.9004 99.4309 52.9849C99.4837 53.0001 99.2729 53.1686 99.1755 52.8735" stroke="#222603" stroke-width="5" stroke-linecap="round"/>
<path d="M105.756 45.0673C105.756 44.9407 105.799 44.1347 106.011 44.2878C106.12 44.3662 106.174 44.8509 106.174 44.7508" stroke="#222603" stroke-width="5" stroke-linecap="round"/>
<path d="M108.889 57.6206C108.889 57.8124 109.081 58.1533 108.936 58.3004C108.727 58.5111 108.785 57.8393 108.785 57.7261" stroke="#222603" stroke-width="5" stroke-linecap="round"/>
<path d="M115.364 51.7134C115.165 51.8145 115.364 52.0386 115.364 51.7134" stroke="#222603" stroke-width="5" stroke-linecap="round"/>
<path d="M88.0401 62.4567C88.0701 62.2445 88.5117 62.8317 88.1639 62.8317C87.9311 62.8317 88.0401 62.1174 88.0401 61.9565" stroke="#222603" stroke-width="5" stroke-linecap="round"/>
<path d="M91.7539 44.0781C91.7184 44.3645 91.8727 44.045 92.0014 44.2726C92.1419 44.5208 92.1406 44.7989 92.1252 45.0783C92.1072 45.4062 91.7815 44.8878 91.7607 44.7727C91.7282 44.5921 91.7539 44.3865 91.7539 44.2032" stroke="#222603" stroke-width="5" stroke-linecap="round"/>
<path d="M80.6128 42.8275C80.6128 42.5155 80.848 42.2191 81.1079 42.6052C81.3316 42.9374 81.4856 43.8424 81.1079 42.9525" stroke="#222603" stroke-width="5" stroke-linecap="round"/>
<path d="M81.8507 64.082C82.3947 64.1431 82.0983 65.187 82.0983 64.2071" stroke="#222603" stroke-width="5" stroke-linecap="round"/>
<path d="M84.4503 52.7043C84.9483 52.2572 84.5741 53.692 84.5741 52.8293" stroke="#222603" stroke-width="5" stroke-linecap="round"/>
<path d="M76.8992 64.3321C76.8992 64.7574 76.7754 64.2542 76.7754 64.082" stroke="#222603" stroke-width="5" stroke-linecap="round"/>
<path d="M60.1875 49.3286C60.2029 49.4684 60.5034 50.0788 60.1875 50.0788C59.9792 50.0788 60.0637 49.5982 60.0637 49.4536" stroke="#222603" stroke-width="5" stroke-linecap="round"/>
<path d="M65.263 57.3306C65.1098 57.3306 64.5255 57.3252 64.7678 57.0806" stroke="#222603" stroke-width="5" stroke-linecap="round"/>
<path d="M70.4621 48.5787C70.4621 49.3768 70.0907 48.4669 70.0907 48.0786" stroke="#222603" stroke-width="5" stroke-linecap="round"/>
<path d="M48.9121 47.9288C48.9121 48.3031 48.7714 48.0114 48.7714 47.7866" stroke="#222603" stroke-width="5" stroke-linecap="round"/>
<path d="M59.1856 62.001C59.1856 62.0939 59.1896 62.1055 59.1158 62.1431" stroke="#222603" stroke-width="5" stroke-linecap="round"/>
<path d="M69.5308 69.606C69.538 69.5397 69.5659 69.5168 69.6005 69.4639" stroke="#222603" stroke-width="5" stroke-linecap="round"/>
<path d="M53.447 68.4097C53.5644 68.4393 53.6142 69.1394 53.36 68.4976" stroke="#222603" stroke-width="5" stroke-linecap="round"/>
<path d="M46.3108 63.0479C46.3375 62.8326 46.4967 63.2725 46.3447 63.3067C46.0555 63.3716 45.8735 62.9577 45.7017 62.7842" stroke="#222603" stroke-width="5" stroke-linecap="round"/>
<path d="M55.8837 76.5842C55.8837 76.1784 56.3203 76.614 55.9707 76.4963" stroke="#222603" stroke-width="5" stroke-linecap="round"/>
<path d="M38.2174 73.7715C38.3195 73.7845 38.3037 73.9483 38.3037 73.8594" stroke="#222603" stroke-width="5" stroke-linecap="round"/>
<path d="M63.368 70.8706C63.3551 70.9746 63.2806 70.9585 63.194 70.9585" stroke="#222603" stroke-width="5" stroke-linecap="round"/>
<path d="M103.106 96.3174V96.4207" stroke="#222603" stroke-width="5" stroke-linecap="round"/>
<path d="M109.857 85.5728C109.857 85.6383 109.857 85.6383 109.857 85.5728" stroke="#222603" stroke-width="5" stroke-linecap="round"/>
<path d="M87.2051 105.636C87.0328 105.615 87.0595 105.341 87.0595 105.489" stroke="#222603" stroke-width="5" stroke-linecap="round"/>
<path d="M87.0594 99.1636C87.0594 99.2752 87.102 99.2156 87.2051 99.1636" stroke="#222603" stroke-width="5" stroke-linecap="round"/>
<path d="M96.6722 107.254C96.6722 108.213 96.3809 108.138 96.3809 107.254" stroke="#222603" stroke-width="5" stroke-linecap="round"/>
<path d="M100.896 119.317C100.896 119.42 101.003 119.384 100.605 119.464" stroke="#222603" stroke-width="5" stroke-linecap="round"/>
<path d="M105.12 125.054C105.12 124.772 104.999 124.159 105.265 124.024" stroke="#222603" stroke-width="5" stroke-linecap="round"/>
<path d="M115.169 121.376C115.169 121.179 115.236 121.095 115.315 120.935" stroke="#222603" stroke-width="5" stroke-linecap="round"/>
<path d="M108.178 110.638C108.178 110.367 108.219 110.281 108.47 110.196" stroke="#222603" stroke-width="5" stroke-linecap="round"/>
<path d="M62.1358 76.7949C62.1181 76.9375 62.086 76.8974 61.9825 76.9497" stroke="#222603" stroke-width="5" stroke-linecap="round"/>
<path d="M65.2001 92.1147C65.7376 92.1147 65.4811 92.9918 65.3533 92.7337" stroke="#222603" stroke-width="5" stroke-linecap="round"/>
<path d="M58.7649 101.864C58.7702 101.907 59.4293 102.07 58.9181 102.328" stroke="#222603" stroke-width="5" stroke-linecap="round"/>
<path d="M51.2573 95.519C52.0212 95.519 51.5638 96.9238 51.5638 95.519" stroke="#222603" stroke-width="5" stroke-linecap="round"/>
<path d="M50.9509 86.2347C50.9509 85.5751 51.054 86.1053 50.7977 86.2347" stroke="#222603" stroke-width="5" stroke-linecap="round"/>
<path d="M58.3053 82.5204C58.3053 81.8042 58.4397 81.0705 58.7649 82.0562" stroke="#222603" stroke-width="5" stroke-linecap="round"/>
<path d="M42.6771 90.2577C42.6636 90.148 42.5715 90.0443 42.5239 89.9482" stroke="#222603" stroke-width="5" stroke-linecap="round"/>
<path d="M53.2492 116.256C52.6267 115.548 53.7089 114.655 53.7089 115.327" stroke="#222603" stroke-width="5" stroke-linecap="round"/>
<path d="M64.8936 115.327C64.8936 114.505 65.5285 114.852 65.2 115.018" stroke="#222603" stroke-width="5" stroke-linecap="round"/>
<path d="M70.7158 104.65C70.7456 104.89 70.7965 103.566 71.1755 103.566" stroke="#222603" stroke-width="5" stroke-linecap="round"/>
<path d="M76.5381 117.649C77.5424 118.55 77.231 116.868 77.151 117.03" stroke="#222603" stroke-width="5" stroke-linecap="round"/>
<path d="M85.5778 131.731C85.7695 131.755 85.4246 132.312 85.4246 131.576" stroke="#222603" stroke-width="5" stroke-linecap="round"/>
<path d="M86.4971 121.672C86.5742 121.321 86.892 121.37 87.1099 121.517" stroke="#222603" stroke-width="5" stroke-linecap="round"/>
<path d="M80.3685 102.638C80.3685 102.799 80.2749 102.173 80.5217 102.173C80.878 102.173 80.9288 102.664 80.6749 102.792" stroke="#222603" stroke-width="5" stroke-linecap="round"/>
<path d="M78.5299 98.9238C78.6468 99.1599 78.7161 98.9473 78.5299 98.9238" stroke="#222603" stroke-width="5" stroke-linecap="round"/>
<path d="M65.5065 97.2212C66.2694 97.2212 67.1093 97.0097 67.311 97.9606C67.3835 98.3022 67.4717 99.27 67.0386 98.614" stroke="#222603" stroke-width="5" stroke-linecap="round"/>
<path d="M39.6854 99.8494C39.6854 100.948 39.5016 99.7817 39.5016 99.2925" stroke="#222603" stroke-width="5" stroke-linecap="round"/>
<path d="M59.7205 89.6388C59.7205 89.1932 59.7203 88.8965 59.9043 88.5249" stroke="#222603" stroke-width="5" stroke-linecap="round"/>
<path d="M102.364 74.23C102.711 74.2738 102.571 74.8678 102.364 74.9726" stroke="#222603" stroke-width="5" stroke-linecap="round"/>
<path d="M98.6877 69.589C98.6528 69.8358 98.3966 69.4806 98.3201 69.4033" stroke="#222603" stroke-width="5" stroke-linecap="round"/>
<path d="M111.186 82.0271C111.14 82.3587 111.011 81.6959 111.003 81.6558" stroke="#222603" stroke-width="5" stroke-linecap="round"/>
<path d="M96.1005 98.9224C96.1005 94.8313 97.9722 98.9432 96.9202 99.4744" stroke="#222603" stroke-width="5" stroke-linecap="round"/>
<path d="M100.556 83.918C100.926 83.9648 99.7396 84.0541 99.6124 84.0541C99.1948 84.0541 98.3305 84.2209 97.9954 83.918C97.1612 83.1642 96.675 82.0552 95.8992 81.2716C95.4314 80.7991 94.7819 80.4025 94.2223 80.0391C93.616 79.6455 93.0062 79.2884 92.4031 78.8823C91.9796 78.5971 91.2173 78.2564 90.9882 77.7935" stroke="#E3EBC9" stroke-width="10" stroke-linecap="round"/>
</svg>
