<svg width="230" height="167" viewBox="0 0 230 167" fill="none" xmlns="http://www.w3.org/2000/svg">
<path d="M65.076 75.5543C67.3516 75.5543 69.6272 75.5543 71.9028 75.5543C75.0415 75.5543 77.0837 81.3952 77.3263 84.2171C78.1619 93.9368 77.3771 101.082 71.789 109.524C67.2543 116.374 58.3029 124.223 57.6044 110.927C57.0793 100.933 59.4406 93.6541 65.7586 86.062C67.2489 84.2712 71.2201 79.56 71.2201 84.2973C71.2201 88.9292 70.7883 93.3808 70.1961 97.9733C69.5833 102.726 69.645 109.466 67.124 113.655C62.3477 121.591 56.5624 104.994 55.8977 101.543C54.6272 94.9474 52.883 86.7446 58.4009 82.0514C59.7764 80.8815 69.0387 73.2141 70.3857 76.5971C72.0017 80.6556 70.6277 86.1346 67.124 87.9871C62.4602 90.4529 50.9893 95.6213 50.7397 86.3828C50.6571 83.3279 50.2644 80.1006 52.105 77.5596C55.2272 73.2493 59.2401 69.9412 63.5589 67.052C65.981 65.4316 76.9257 57.8979 78.1986 63.282C82.586 81.8396 76.9897 103.075 59.0835 110.767C53.168 113.308 44.0771 111.021 39.5133 106.195C37.7699 104.351 37.9619 97.9165 38.4893 95.4066C39.4413 90.8765 44.1645 86.0935 46.6436 82.4525C49.6907 77.9772 53.7139 74.8533 57.5285 71.2229C64.1705 64.9018 70.7353 58.5327 80.057 57.5469C87.5595 56.7536 96.4793 57.4875 96.4793 66.8915C96.4793 88.2875 90.0319 113.026 77.3263 130.018C71.2685 138.119 62.3377 144.918 53.8496 149.87C49.2674 152.543 44.8896 152.798 39.8168 152.798C35.6075 152.798 30.3981 153.588 26.4665 152.076C22.5229 150.559 16.6056 144.572 16.6056 139.803C16.6056 132.178 15.9522 124.217 17.1366 116.703C19.8346 99.5847 25.7578 84.4155 35.7207 70.501C38.9842 65.9431 42.1698 65.153 47.3262 65.4477C55.1902 65.8972 55.7203 86.5127 56.2011 91.5966C57.4899 105.225 56.5173 118.96 51.8016 131.782C50.7252 134.709 46.732 135.008 45.6575 131.702C41.0234 117.447 47.1379 103.961 57.8699 94.8451C60.5879 92.5363 66.4186 87.5475 70.4236 89.0298C73.5442 90.1848 72.6385 98.2543 72.32 100.54C70.1988 115.76 64.2164 130.277 56.9596 143.493C54.6115 147.77 51.5177 154.366 46.6436 156.006C40.9165 157.933 34.6488 149.69 31.6246 145.579C26.0315 137.974 22.067 129.033 22.067 119.189C22.067 113.524 21.5358 107.48 22.2187 101.864C22.9659 95.7189 25.6035 91.0307 28.2112 85.6609C33.2215 75.3434 44.4711 70.1106 54.3048 66.7311C61.7007 64.1893 71.0918 62.0834 78.5779 65.4477C84.5144 68.1157 92.8563 72.989 95.1139 79.8857C97.8074 88.1137 94.4369 97.4995 91.8522 105.152C87.6186 117.688 84.5786 132.307 75.3162 141.969C67.5805 150.039 55.6867 155.276 45.5816 159.134C42.4183 160.342 39.0325 160.017 35.7207 160.017C28.3913 160.017 24.0298 155.835 19.8673 149.91C14.6027 142.416 12.0686 135.547 11.8268 126.087C11.7581 123.398 9.34862 110.927 13.8749 110.927" stroke="#A7C932" stroke-width="10" stroke-linecap="round"/>
<path d="M13.8749 110.928C13.8749 103.185 15.3351 96.2892 18.6536 89.2709C20.138 86.1315 22.8564 83.5999 24.1151 80.4477C26.204 75.216 28.6282 70.0605 32.459 66.0097C39.048 59.0421 45.3282 54.3452 54.0013 51.0102C57.5873 49.6313 61.9851 50.2883 65.7586 50.2883C72.0689 50.2883 78.2276 50.4399 84.4944 50.9701C91.8252 51.5902 99.162 53.9185 102.927 61.1569C107.345 69.6514 107.344 80.1745 106.682 89.6318C105.756 102.839 98.2133 116.845 90.9799 127.171C87.0837 132.733 81.9301 136.5 77.4021 141.288C72.7003 146.26 67.9594 151.145 62.1935 154.803C56.3107 158.536 49.7301 162.315 42.5475 160.579C36.9736 159.231 28.4077 157.085 24.1151 152.798C18.97 147.66 13.114 144.172 9.09609 137.799C5.29174 131.764 5 127.18 5 119.952C5 108.056 8.8602 96.7381 12.8508 85.7015C16.236 76.3393 21.7741 65.758 28.5525 58.5901C34.1683 52.6518 40.8708 50.2883 48.6916 50.2883C53.409 50.2883 57.6258 53.9274 60.904 57.1463C62.3634 58.5793 63.3726 63.3088 61.5108 64.7263C57.9625 67.4278 54.0944 67.161 52.105 62.4001C51.4972 60.9455 49.3903 55.6455 50.8914 54.0582C51.478 53.4379 54.3485 53.8872 54.9874 53.8978C61.648 54.0078 67.4239 55.8101 72.5855 60.3949C84.1555 70.672 87.7824 85.2335 87.6044 100.661C87.5408 106.182 85.2097 109.169 80.7776 111.65C79.2111 112.527 78.2431 113.904 77.8952 111.329C76.6057 101.784 81.3469 90.9473 85.5564 82.854C86.1097 81.7901 94.7372 66.4772 97.162 68.6566C99.3112 70.5885 97.8664 80.1737 97.693 82.6134C96.9486 93.0814 93.8194 104.506 87.301 112.652C82.6167 118.506 81.3391 105.934 81.1569 103.869C80.9562 101.595 81.6595 72.4703 88.9698 77.4397C96.5779 82.6117 89.1231 104.27 86.5804 110.046C83.2793 117.544 78.8145 125.998 73.2302 131.903C65.2863 140.303 51.1356 157.412 38.11 153.841C31.4041 152.002 26.1929 145.615 22.4463 139.804C17.6126 132.307 18.3307 120.926 19.7914 112.372C20.5921 107.682 24.8366 90.8366 32.3073 97.6931C41.1516 105.81 41.1821 121.042 41.1821 132.264C41.1821 140.387 38.4376 139.635 34.8863 132.986C30.9271 125.574 29.0448 116.958 28.3629 108.522C28.3047 107.802 27.4517 101.481 28.5146 100.982C30.8233 99.8967 34.5537 105.354 35.569 106.757C38.8256 111.256 40.8114 116.65 41.8648 122.157C42.2432 124.136 43.495 128.844 42.3958 130.82C41.4175 132.579 36.835 123.792 36.555 123.2C34.7771 119.44 33.2257 115.232 32.459 111.088C31.7139 107.061 33.6108 108.605 35.4931 110.848C41.9017 118.482 51.4223 131.401 51.4223 142.331C51.4223 144.203 48.4995 143.449 47.2883 143.373C42.4764 143.074 38.7206 139.902 36.0999 135.793C34.8348 133.81 28.2974 118.043 35.4172 120.754C39.2418 122.21 41.8648 128.031 41.8648 132.224C41.8648 133.824 38.2567 135.174 37.0102 135.833C28.8209 140.163 20.6863 138.568 16.6435 129.376C12.5818 120.142 15.108 114.63 21.2326 107.198C30.1785 96.3426 46.5748 79.5779 61.966 86.5036C69.1468 89.7348 72.8593 99.0921 74.6335 106.596" stroke="#A7C932" stroke-width="10" stroke-linecap="round"/>
<path d="M31.6245 126.088C32.6789 125.948 32.9899 124.859 32.9899 126.809C32.9899 127.713 33.3667 129.811 32.6486 130.419C29.8779 132.763 29.4475 129.129 29.5765 126.809C29.6748 125.043 32.549 123.531 33.976 123.962C36.0033 124.574 35.038 131.702 35.038 133.307C35.038 142.205 25.5329 132.822 30.6005 128.654C32.8513 126.803 35.038 128.752 35.038 131.141C35.038 132.813 35.3189 134.201 33.6726 135.071C32.0384 135.935 30.6733 135.78 30.2592 134.028" stroke="#D00D08" stroke-width="10" stroke-linecap="round"/>
<path d="M47.2689 97.8055C46.6066 97.8055 45.7408 98.0157 45.6308 97.0854C45.5914 96.7521 45.375 94.449 45.7964 94.3216C46.9646 93.9687 47.2689 99.4005 47.2689 100.258" stroke="#A7C932" stroke-width="10" stroke-linecap="round"/>
<path d="M48.1855 117.672C51.5662 117.672 54.6787 116.673 57.9904 116.155C59.7481 115.879 64.6999 113.435 66.2541 114.75C68.0032 116.229 65.866 119.37 64.6864 120.426C61.8264 122.985 57.7089 123.936 54.1907 124.977C51.8965 125.657 51.0553 125.576 51.0553 123.123C51.0553 119.742 54.2539 117.896 56.4227 115.93C65.685 107.535 75.5783 100.962 87.591 98.2001C90.279 97.5821 88.8652 100.407 87.777 101.6C83.2255 106.591 78.5491 111.359 73.3221 115.593C67.0128 120.703 59.5206 122.536 51.6398 122.73C46.0158 122.868 51.9915 117.412 53.4733 115.649C57.3472 111.04 62.2386 108.724 67.317 106.039" stroke="#E1F256" stroke-width="10" stroke-linecap="round"/>
<path d="M38.62 102.499C38.6872 102.996 40.8765 101.086 41.3835 102.218C41.8167 103.185 41.6309 105.49 41.4366 106.517C41.0426 108.6 39.0167 107.843 37.6635 107.557" stroke="#E1F256" stroke-width="10" stroke-linecap="round"/>
<path d="M42.237 148.181C42.237 146.786 40.1924 146.905 40.1924 145.822" stroke="#A7C932" stroke-width="10" stroke-linecap="round"/>
<path d="M49.3147 138.115C50.0658 137.364 50.4776 137.412 51.3594 136.98C52.0876 136.622 52.7581 136.132 53.4827 135.756C54.295 135.335 55.1836 135.078 55.9992 134.655C58.7011 133.254 61.2968 131.635 64.0992 130.409C66.4421 129.384 68.6541 128.143 70.9235 126.966C71.5508 126.641 72.5168 126.497 73.2215 126.477C75.2628 126.418 77.3132 126.477 79.3555 126.477" stroke="#A7C932" stroke-width="10" stroke-linecap="round"/>
<path d="M84.7032 116.883C84.2693 117.23 83.6229 117.436 83.1304 117.704C81.9936 118.324 81.0411 119.384 79.9323 120.09C77.3995 121.701 74.851 123.273 72.3304 124.904C67.563 127.989 62.3167 130.302 57.7469 133.712C54.5519 136.096 51.7386 138.851 49.0002 141.733" stroke="#A7C932" stroke-width="10" stroke-linecap="round"/>
<path d="M67.9691 94.5542C67.0248 94.5542 65.919 94.3904 65.0396 94.7862C63.9449 95.2788 62.857 95.6662 61.818 96.2896C60.4369 97.1182 58.9391 97.9038 57.6085 98.8067C57.2534 99.0477 56.4402 99.3479 56.4402 99.3479C56.4402 99.3479 57.242 99.3479 57.6429 99.3479C60.6577 99.3479 63.3977 97.7495 65.9245 96.2896C67.4646 95.3997 68.8069 94.4339 70.134 93.2312C71.1005 92.3553 72.1027 91.5274 73.072 90.654C75.7345 88.2548 77.8498 85.3118 80.0306 82.4927" stroke="#A7C932" stroke-width="10" stroke-linecap="round"/>
<path d="M89.4632 69.1941C89.6271 69.1941 88.8557 69.059 88.733 69.0051C87.6441 68.5271 86.206 67.62 85.5629 66.5911C85.4384 66.3918 85.3029 65.7162 85.5629 65.5602C86.0556 65.2646 86.8737 65.1939 87.41 65.0877C89.0145 64.7698 90.6395 64.5908 92.2638 64.409C93.3232 64.2905 96.4115 63.4655 97.3066 64.4949C98.066 65.3683 96.7416 66.2382 96.1469 66.6083C91.7752 69.3284 86.8997 71.6264 82.1266 73.5239C78.3224 75.0362 74.0984 76.2683 69.9534 75.8692C67.7897 75.6608 63.0161 73.3056 65.8212 70.7576C68.5448 68.2837 72.2255 67.0451 75.7866 66.3935C78.1868 65.9543 82.6383 65.1334 84.6867 67.0292C85.4363 67.723 85.7848 69.0616 85.1506 69.9157C83.2264 72.507 79.44 74.2555 76.5426 75.3967C72.9519 76.8109 68.8848 77.0915 65.0652 76.7369C62.5899 76.507 60.2066 75.8237 57.763 75.4139C55.4338 75.0233 53.0136 74.6488 51.0278 76.1699C49.9568 76.9902 49.0287 77.9817 47.9351 78.7729C46.5744 79.7572 44.8051 79.8273 43.2101 80.1818C39.358 81.0378 35.0452 82.0222 31.5695 83.9532C31.0222 84.2572 30.5464 84.663 30.0146 84.9669C29.1656 85.4521 31.9866 84.6887 32.8582 84.2453C39.9209 80.6519 45.8942 74.8879 51.8869 69.8127C56.2779 66.0938 60.6897 62.3813 65.3917 59.0569C66.4575 58.3034 67.7264 57.7156 68.6218 56.7546C69.7006 55.5968 70.7659 54.4452 71.4912 53.0262C71.5447 52.9214 72.198 51.4502 71.8004 51.9437C70.2863 53.8233 68.1101 55.1839 66.2507 56.6859C62.6196 59.6191 59.1323 62.7088 55.6153 65.775C54.9934 66.3172 54.3141 67.0292 53.4332 67.0292" stroke="#A7C932" stroke-width="10" stroke-linecap="round"/>
<path d="M78.821 121.304C81.9706 117.761 85.018 113.796 87.8689 109.955C91.0961 105.607 94.3122 101.281 97.2697 96.7365C98.3544 95.0697 99.3581 93.3424 100.46 91.6896C100.782 91.2059 101.179 90.8383 101.179 90.2383" stroke="#A7C932" stroke-width="10" stroke-linecap="round"/>
<path d="M99.5316 103.889C99.4344 103.901 98.5047 107.983 98.3549 108.583C98.298 108.81 97.9076 109.839 97.8842 109.066C97.8456 107.791 97.9511 106.564 98.1195 105.301" stroke="#A7C932" stroke-width="10" stroke-linecap="round"/>
<path d="M167.783 10.2203C165.354 10.4631 162.618 12.5349 161.847 14.8488C159.782 21.0416 158.521 27.9311 161.35 34.1081C163.193 38.1338 165.997 41.3618 169.861 43.522C173.483 45.5468 178.598 47.5383 182.688 45.5878C186.445 43.7958 187.815 39.1663 188.088 35.3502C188.607 28.0867 185.545 20.9485 180.779 15.5549C179.249 13.8236 176.978 11.5214 174.425 11.6324C173.642 11.6664 173.329 12.5752 173.026 13.1622C171.752 15.6276 170.739 18.2012 169.953 20.8633C168.368 26.2305 167.144 32.9838 168.593 38.5405C168.754 39.1581 169.934 42.2072 170.96 41.9792C172.639 41.6059 172.228 35.0855 172.228 34.0166C172.228 32.2495 172.284 27.2936 170.136 26.2763C169.299 25.8797 169.885 30.4146 169.901 30.5648C170.344 34.8842 171.69 40.8633 175.065 43.9404C176.77 45.4947 178.072 44.911 179.092 42.9598C181.369 38.6072 181.755 32.6423 180.086 28.0414C179.275 25.8057 177.566 21.9916 174.738 21.7654C172.765 21.6076 173.431 23.2589 173.431 24.9426C173.431 31.4543 173.274 37.8663 175.68 44.0319C175.824 44.4008 178.086 49.486 178.491 47.1045C178.981 44.2202 178.997 41.14 178.975 38.2267C178.945 34.383 178.608 30.5009 176.778 27.0477C173.349 20.5757 166.044 19.6649 159.362 19.6342C156.916 19.623 154.199 20.0074 152.067 21.334C151.125 21.9198 151.084 23.2243 151.073 24.2104C151.041 27.1505 150.85 30.1777 152.014 32.9444C152.952 35.1727 154.413 37.3301 156.12 39.0373C157.843 40.7603 159.116 42.8397 160.827 44.5811C164.422 48.2415 167.618 52.2549 172.241 54.688C175.155 56.2216 178.857 57.1127 182.139 57.2768C184.355 57.3876 186.531 57.4508 188.506 56.3223C191.394 54.6721 194.358 52.8912 196.207 50.0464C198.192 46.9926 198.464 43.5818 198.325 40.0049C198.228 37.5005 198.047 34.8468 197.018 32.526C195.856 29.9041 193.528 27.9177 191.396 26.0932C187.068 22.3903 182.394 18.7916 177.523 15.8294C176.958 15.4859 174.194 13.4997 173.954 15.0842C173.224 19.9004 173.291 25.038 173.483 29.8849C173.674 34.7091 175.028 39.7558 177.902 43.7181C179.163 45.4559 181.056 47.0344 182.792 48.2943C184.206 49.3204 185.72 49.7041 187.382 48.8435C190.6 47.177 193.981 43.5171 195.148 40.0572C195.846 37.9884 195.872 35.6541 195.972 33.4936C196.033 32.1681 196.284 30.4695 195.972 29.1527C195.707 28.0328 194.86 30.1235 194.795 30.2772C193.691 32.895 192.554 35.497 191.435 38.109C189.933 41.6127 188.859 45.1862 185.512 47.2876C179.45 51.0942 173.006 53.1067 165.952 53.995C162.296 54.4553 158.056 54.4983 155.544 51.2885C154.848 50.3991 153.951 49.6488 153.191 48.8043C151.99 47.4696 151.328 45.5733 150.367 44.0581C148.174 40.5998 147.062 35.6759 146.654 31.637C146.488 30.0028 146.472 28.1448 146.654 26.5116C146.913 24.1797 148.273 22.2642 149.53 20.3533C153.731 13.968 161.873 8.94092 169.325 7.51381C175.901 6.25464 183.015 6.49805 189.67 6.71624C198.913 7.01931 206.582 11.8653 213.152 17.9868C218.399 22.8746 222.943 28.722 224.501 35.8209C225.316 39.5323 223.78 42.8865 221.795 45.9932C213.422 59.0987 195.476 62.7326 181.145 58.7019C176.225 57.3181 171.593 54.617 167.495 51.5892C161.442 47.1173 155.774 41.0137 152.393 34.2519C151.753 32.9705 150.35 28.9383 148.484 29.0481C147.95 29.0796 148.049 39.2492 148.026 40.0572C147.979 41.7649 147.655 44.2121 149.19 45.4179C150.051 46.0942 150.701 47.1298 151.53 47.8759C152.409 48.6666 153.34 49.4555 154.185 50.2817C160.151 56.1208 166.304 61.6164 174.137 64.821C178.989 66.8058 184.174 67.4098 189.382 67.4098C191.876 67.4098 194.567 67.7214 196.913 66.7038C199.275 65.6795 201.057 63.6864 202.954 62.0099C206.062 59.2632 208.432 56.0008 210.799 52.6352C211.46 51.695 211.869 50.6508 212.499 49.7064C212.643 49.4904 213.411 48.4188 213.192 49.4057C213.087 49.8784 212.633 50.1711 212.499 50.6086C212.057 52.043 211.266 53.3345 210.629 54.688C209.649 56.7692 208.14 58.4684 206.327 59.8787C203.851 61.8048 200.74 63.743 197.698 64.5726C197.503 64.6257 196.221 65.0563 197.083 65.0563C198.022 65.0563 199.2 65.7986 200.025 66.1808C202.418 67.2887 203.735 65.3717 205.255 63.8273C209.159 59.8606 213.246 55.8928 216.591 51.4323C219.628 47.3826 218.922 41.1285 215.977 37.2853C213.713 34.3313 210.187 32.7224 207.504 30.1987C202.678 25.6594 200.025 19.9152 197.711 13.842C197.621 13.6059 197.283 12.9497 197.306 13.2014C197.542 15.8032 198.852 18.5494 199.594 21.0202C202.809 31.7383 204.021 42.757 205.425 53.8119C205.603 55.2126 205.966 56.7028 205.909 58.1267C205.875 58.9728 204.899 56.7441 204.588 55.9562C203.527 53.2631 202.785 50.4452 202.196 47.6145C201.965 46.5086 201.137 43.9301 201.777 42.8029C202.653 41.2592 208.092 46.9047 208.628 47.536C208.905 47.8615 209.802 49.5075 210.224 49.628C210.87 49.8128 210.165 48.2832 210.093 47.6145C209.82 45.0837 209.504 42.5587 209.204 40.031C208.459 33.7565 207.792 27.3379 207.792 21.0071C207.792 19.5242 207.843 21.5469 208.027 22.223" stroke="#A7C932" stroke-width="10" stroke-linecap="round"/>
<path d="M216.97 30.9308C216.796 32.3249 210.032 29.0658 209.308 28.342C208.047 27.0807 209.661 26.4592 210.668 26.4592C212.247 26.4592 214.184 26.6046 214.381 28.5774C214.483 29.5999 215.025 30.4601 213.518 30.4601C205.795 30.4601 197.294 27.3526 191.186 22.746C187.004 19.5917 183.739 15.7141 183.786 10.2725C183.835 4.49828 189.349 5.92291 192.494 8.6774C195.204 11.0511 197.803 13.9508 199.45 17.1761C200.183 18.613 201.202 20.536 201.202 22.1968C201.202 23.2111 199.606 22.4786 199.11 22.2753C195.991 20.9972 193.021 18.952 190.702 16.5093C190.035 15.8065 188.519 14.2843 188.519 13.1752C188.519 12.2599 190.734 13.2955 190.977 13.4367C192.182 14.1374 193.401 15.07 194.468 15.9732C194.611 16.0938 195.293 16.6663 194.716 16.5616C193.621 16.3624 192.654 15.5488 191.539 15.2933C189.52 14.8306 187.507 14.5783 185.433 14.7441C180.824 15.1129 176.287 17.1942 171.731 18.039C167.155 18.8875 162.394 19.9163 158.316 22.223C151.723 25.9524 149.441 36.1445 150.733 43.1558C151.274 46.0959 153.441 48.638 155.204 50.9485C157.324 53.7264 159.845 56.4926 162.487 58.7934C165.642 61.5418 169.482 64.3473 173.666 65.1609C179.825 66.3585 186.258 66.7169 192.494 67.4097C195.584 67.7531 198.444 67.8004 201.437 66.9913C202.978 66.5748 204.568 65.351 205.961 64.5333C208.033 63.3169 209.62 61.7839 211.322 60.114C212.849 58.6146 214.552 57.3648 215.558 55.407C216.4 53.7676 217.21 52.0986 217.794 50.347C219.428 45.4425 219.116 40.3238 217.205 35.5463C216.166 32.9477 215.161 30.3734 213.91 27.8713C212.86 25.7702 212.226 24.2143 209.909 23.6351" stroke="#A7C932" stroke-width="10" stroke-linecap="round"/>
<path d="M160.13 14.0897C160.005 14.7761 159.406 15.3744 159.003 15.9077C157.994 17.243 157.055 18.6245 156.073 19.9793C154.908 21.5875 153.716 23.1774 152.557 24.7871C150.465 27.6929 149.312 31.9373 149.312 35.5146C149.312 43.4805 155.213 50.5282 158.913 57.1048C160.495 59.9185 163.416 62.6676 166.56 63.5804C169.929 64.5585 173.732 64.1212 177.197 64.1212C180.424 64.1212 190.07 64.9326 186.843 64.9326C183.458 64.9326 180.072 64.9326 176.687 64.9326C173.468 64.9326 170.992 63.9022 167.972 63.0395C167.037 62.7721 166.229 62.2674 165.208 62.2281C162.503 62.1241 158.128 61.7036 155.923 59.8994C153.806 58.1677 151.219 56.3805 150.123 53.7844C148.392 49.6839 148.062 45.1437 147.164 40.8032C146.48 37.499 146.608 33.9475 146.608 30.5866C146.608 27.4848 146.651 24.418 147.689 21.4517C148.386 19.4613 148.958 17.3027 149.973 15.4569C150.306 14.8508 150.789 14.141 150.394 13.5488" stroke="#A7C932" stroke-width="10" stroke-linecap="round"/>
<path d="M148.252 15.0938C148.484 13.0031 151.867 10.8704 153.567 10.0519C159.854 7.02473 167.51 5.17315 174.459 5.02371C179.665 4.91175 184.335 5.13144 189.202 7.11425C193.818 8.99473 197.533 12.1654 201.13 15.5311C205.171 19.311 208.6 23.6389 211.078 28.5936C212.451 31.3407 213.92 34.0991 213.92 37.229" stroke="#A7C932" stroke-width="10" stroke-linecap="round"/>
<path d="M146.959 15.2344C146.959 17.9915 146.815 20.7621 146.815 23.5429C146.815 25.324 147.334 27.1531 147.85 28.8431C148.702 31.6312 149.666 34.3759 150.755 37.08C151.619 39.2254 152.716 41.2504 153.691 43.3432C154.599 45.2913 155.914 47.19 156.27 49.3279" stroke="#A7C932" stroke-width="10" stroke-linecap="round"/>
<path d="M160.835 20.4498C160.835 20.9729 163.418 19.699 163.494 20.9815C163.705 24.5823 161.84 19.0324 163.375 20.5679C165.083 22.2756 161.367 27.9486 161.367 21.5132" stroke="#D00D08" stroke-width="10" stroke-linecap="round"/>
<path d="M184.762 48.0993C184.61 49.3145 178.893 48.6496 177.85 48.631C175.242 48.5844 173.43 47.2455 172.119 45.0271C170.754 42.7175 171.29 40.1625 173.596 38.9418C178.214 36.4967 196.427 43.8962 192.207 50.2262" stroke="#E1F256" stroke-width="10" stroke-linecap="round"/>
<path d="M171.469 11.9419C174.841 11.9419 177.765 10.8146 181.04 10.3467" stroke="#E1F256" stroke-width="10" stroke-linecap="round"/>
</svg>
