<svg width="163" height="235" viewBox="0 0 163 235" fill="none" xmlns="http://www.w3.org/2000/svg">
<path d="M49.3458 181.152C50.8335 180.986 53.272 179.237 54.7625 178.571C56.0224 178.008 57.1096 178.055 58.4686 178.055C60.9097 178.055 62.0281 179.419 63.3151 181.037C66.6172 185.189 66.28 192.278 66.28 197.269C66.28 204.691 62.0765 211.993 56.9291 217.171C54.0368 220.081 50.5819 222.238 47.2932 224.628C44.8029 226.437 41.6646 228.523 38.4555 228.643C32.9011 228.85 25.2779 230.908 20.0959 228.012C14.374 224.814 11.9304 221.95 9.83281 215.737C7.45616 208.698 5.72756 201.512 5.72756 194.057C5.72756 187.684 5.11566 179.476 9.34816 174.154C13.2386 169.263 16.0982 165.089 22.6617 164.146C25.1827 163.784 24.8911 164.879 26.5104 166.182C27.8437 167.255 29.8055 168.196 30.8722 169.537C32.7443 171.891 37.7002 173.766 40.3656 174.957C43.6863 176.442 47.1698 177.011 50.8853 176.477C55.3695 175.833 62.5061 173.878 66.5365 177.309C70.0881 180.332 71.766 185.914 72.4093 190.444C74.7388 206.847 59.5257 219.945 45.8107 225.144C41.8666 226.639 32.1319 230.429 28.8196 225.431C25.5092 220.436 21.6107 215.923 18.6705 210.69C16.5141 206.852 17.017 202.428 17.017 198.187C17.017 193.408 16.969 188.626 17.017 183.848C17.04 181.56 17.1507 178.128 18.1573 175.99C20.1495 171.759 22.0905 180.217 22.2626 181.152C23.5067 187.91 25.0091 194.767 25.2275 201.685C25.3303 204.942 26.8795 208.911 29.4468 210.977C30.7879 212.056 30.8722 209.304 30.8722 208.797C30.8722 204.812 31.1476 200.719 30.7582 196.753C30.3328 192.42 28.6028 188.148 29.4468 183.733C29.6898 182.461 31.1133 179.266 32.4117 178.686C33.6009 178.154 34.7334 183.338 34.9775 183.962C38.4482 192.84 39.5959 202.006 39.5959 211.493C39.5959 215.259 39.8965 216.113 42.1616 212.755C45.0344 208.496 47.9304 204.445 48.9467 199.334C49.4579 196.762 49.2366 194.38 50.4862 191.992C51.3753 190.293 57.0432 187.586 57.0432 190.988C57.0432 195.412 57.4886 199.828 55.2471 203.836C53.557 206.859 50.5955 206.962 47.5213 206.962C43.9329 206.962 40.6222 198.656 40.6222 195.634C40.6222 193.03 40.2415 190.309 41.9336 188.121C43.4267 186.189 44.0799 186.314 46.552 186.314C50.1092 186.314 49.3458 188.855 49.3458 191.763C49.3458 198.422 50.2697 205.32 46.7515 211.292C42.941 217.761 35.2394 222.095 28.3064 224.226C27.2937 224.537 18.6913 226.958 22.4051 223.222C24.4818 221.133 29.758 220.751 32.3832 220.125C39.1492 218.513 43.1461 215.697 46.495 209.572C48.2506 206.361 48.3195 204.41 48.3195 200.768C48.3195 193.53 35.9521 194.573 31.1003 194.573C24.2236 194.573 17.5301 192.892 17.5301 184.765" stroke="#C11706" stroke-width="10" stroke-linecap="round"/>
<path d="M14.4511 194.056C15.602 194.056 17.1591 193.765 18.2713 194.085C19.5171 194.443 17.9543 198.14 17.6441 198.702C17.338 199.256 14.6964 199.695 14.4796 198.932C13.7773 196.459 14.5643 192.857 14.9643 190.443" stroke="#EFCC98" stroke-width="10" stroke-linecap="round"/>
<path d="M110.721 166.66C109.026 166.66 107.674 166.675 106.094 167.164C102.031 168.421 98.0978 172.039 95.4089 175.214C93.798 177.117 91.5395 178.803 90.7125 181.253C89.7373 184.141 90.0636 187.839 90.3373 190.813C90.9586 197.562 93.514 203.65 97.2152 209.235C99.1545 212.161 102.876 213.702 105.455 215.972C107.856 218.086 111.061 218.9 113.778 220.445C115.739 221.56 118.57 221.824 120.725 222.457C124.246 223.492 127.683 223.771 131.327 223.771C134.293 223.771 137.235 223.999 139.928 222.513C142.528 221.079 144.995 219.205 147.097 217.09C149.319 214.855 151.163 211.532 152.739 208.802C154.315 206.071 155.344 202.696 155.99 199.619C157.195 193.877 157.24 188.239 157.24 182.385C157.24 179.054 156.584 174.953 155.476 171.818C154.358 168.657 153.322 164.95 151.488 162.132C149.315 158.792 147.473 156.689 143.735 155.227C141.432 154.326 137.546 154.387 135.982 156.541C135.054 157.818 133.648 159.056 132.536 160.175C131.075 161.644 130.166 163.799 128.478 165.025C127.021 166.084 125.636 167.299 123.99 168.044C122.864 168.554 121.507 169.612 120.225 169.679C119.621 169.711 118.333 169.918 117.849 169.54C117.317 169.124 117.067 168.469 116.473 168.17" stroke="#C11706" stroke-width="10" stroke-linecap="round"/>
<path d="M119.725 194.335C119.725 195.242 118.033 194.848 117.432 194.824C115.126 194.735 112.926 193.904 112.277 191.456C111.987 190.361 111.513 187.895 112.124 186.802C112.791 185.609 115.296 184.884 116.487 184.677C118.791 184.276 121.556 184.332 123.226 186.201C126.252 189.587 126.32 195.53 125.811 199.758C124.862 207.634 118.677 213.539 110.61 212.268C103.323 211.12 99.7146 201.442 101.759 194.964C103.078 190.784 107.002 186.554 111.721 188.101C114.272 188.937 115.837 192.222 116.446 194.615C117.155 197.406 118.029 201.089 117.335 203.98C117.021 205.288 115.751 205.26 114.612 205.349C111.422 205.599 108.532 204.011 106.525 201.575C104.42 199.021 104.3 195.465 104.51 192.295C104.816 187.676 107.574 183.482 110.777 180.302C113.85 177.25 117.952 175.634 122.142 177.381C128.074 179.853 131.379 187.063 132.063 193.133C132.269 194.962 133.097 197.996 130.702 198.361C128.151 198.749 125.489 198.632 122.921 198.598C119.553 198.554 116.082 198.496 112.833 197.494C109.62 196.504 106.283 194.343 105.997 190.673C105.67 186.486 109.003 183.44 112.069 181.127C115.159 178.796 121.571 174.907 125.505 177.702C127.778 179.317 128.209 184.203 127.186 186.62C126.141 189.091 122.066 189.765 119.808 190.31C114.88 191.499 109.608 192.574 104.524 192.574C100.696 192.574 98.6003 190.664 99.3551 186.76C99.6866 185.045 100.267 183.342 101.217 181.868C102.012 180.633 102.764 180.603 104.191 180.861C109.381 181.802 114.773 184.06 119.572 186.187C123.666 188.001 128.771 190.024 132.119 193.133C134.798 195.621 134.522 200.482 134.3 203.784C133.968 208.724 132.394 213.598 130.354 218.083C129.64 219.652 128.669 221.427 127.228 222.457C125.155 223.939 123.316 219.62 122.782 218.376C118.927 209.412 124.218 198.498 133.758 196.152C137.639 195.198 141.526 195.369 144.624 198.109C147.346 200.517 148.2 204.014 148.598 207.502C148.713 208.509 149.053 210.928 147.681 211.388C144.547 212.438 141.365 206.559 140.345 204.623C136.201 196.764 136.174 186.725 137.427 178.122C138.106 173.453 139.668 167.344 143.235 163.935C144.423 162.799 146.575 161.631 147.987 163.11C151.245 166.524 150.423 173.692 149.932 177.898C149.664 180.194 149.024 183.216 146.833 184.495C144.381 185.927 140.938 184.381 139.15 182.594C137.281 180.727 134.989 176.505 136.287 173.747C137.888 170.348 142.285 173.27 143.749 175.005C148.295 180.395 149.445 187.751 149.487 194.587C149.515 199.114 149.695 204.799 146.625 208.564C144.934 210.638 141.38 210.714 138.969 210.521C132.641 210.015 128.687 204.561 127.673 198.612C126.352 190.871 127.698 183.213 131.535 176.388C133.98 172.041 137.374 166.287 141.831 163.725C143.277 162.894 146.054 162.211 146.625 164.452C146.895 165.509 147.137 167.899 146.18 168.673C143.732 170.654 140.368 171.873 137.51 173.062C134.784 174.196 132.012 175.466 129.006 175.466C128.531 175.466 127.903 175.166 128.729 175.214C130.05 175.293 131.575 178.754 132.23 179.743" stroke="#C11706" stroke-width="10" stroke-linecap="round"/>
<path d="M139.516 178.099C140.079 178.042 143.218 175.64 143.259 176.342C143.353 177.947 141.92 178.623 140.764 177.848" stroke="#EFCC98" stroke-width="10" stroke-linecap="round"/>
<path d="M49.4514 169.978C50.446 169.728 50.0233 167.576 50.0233 166.846C50.0233 162.814 50.2401 159.152 51.4846 155.277C54.006 147.427 56.644 139.468 58.2832 131.373C60.0933 122.434 60.9074 113.003 62.032 103.953C63.3431 93.402 64.3649 82.8786 65.4631 72.3145C66.8047 59.409 67.4777 46.5669 69.466 33.7094C70.2154 28.8629 70.7584 24.0846 72.1981 19.3923C72.4716 18.5009 72.451 14.9876 73.2148 14.4388C74.3053 13.6552 74.0163 18.8092 74.0408 19.2645C74.1628 21.5359 76.043 23.8522 76.9 25.9117C78.3731 29.4517 79.8855 32.9782 81.3477 36.5217C86.9673 50.1404 91.4498 64.8418 95.199 79.0895C99.6866 96.1434 106.457 112.325 111.655 129.136C114.735 139.093 117.794 149.577 120.932 159.048" stroke="#989D6C" stroke-width="6" stroke-linecap="round"/>
<path d="M72.1841 16.8623C72.1841 14.3752 69.2135 6.51881 71.1675 4.3348C73.1448 2.12469 72.7559 6.08685 72.7559 7.08317C72.7559 10.8006 73.5818 15.5522 72.47 19.1313C72.1087 20.2944 70.2732 21.7791 69.0707 20.5694C67.7208 19.2115 68.1812 15.3832 68.1812 13.6665C68.1812 8.98908 68.7185 4.20697 74.4715 4.20697" stroke="#583421" stroke-width="6" stroke-linecap="round"/>
<path d="M108.257 176.862C110.179 176.647 119.46 171.002 117.517 176.65C116.632 179.222 110.01 182.715 107.52 180.461C104.649 177.862 107.31 173.813 107.31 171.146C107.31 165.692 106.031 174.051 105.416 175.909" stroke="#C11706" stroke-width="6" stroke-linecap="round"/>
<path d="M24.9166 175.909C27.9513 175.909 29.372 176.323 31.9668 177.815C33.0475 178.436 32.4464 179.72 31.3354 179.72C29.1038 179.72 27.8398 177.897 26.3898 176.438C24.5111 174.549 21.6977 172.529 20.3918 170.193C19.9031 169.319 23.1643 171.694 23.9695 172.099" stroke="#C11706" stroke-width="6" stroke-linecap="round"/>
</svg>
