<svg width="275" height="256" viewBox="0 0 275 256" fill="none" xmlns="http://www.w3.org/2000/svg">
<path d="M58.9462 101.368C58.7656 98.4277 56.5304 95.82 55.6951 93.0199C54.9746 90.6048 53.242 87.738 51.8214 85.5999C50.2143 83.1811 48.2378 81.7679 47.2559 78.8423C46.0148 75.1439 45.7208 69.6024 47.1176 65.9234C48.8778 61.2872 56.6606 61.2923 60.3296 59.0333C63.542 57.0554 65.609 54.4408 68.3191 51.8451C73.4558 46.9254 78.2036 42.5613 84.471 38.8931C97.0131 31.5522 109.503 33.0351 120.233 41.4437C124.865 45.0727 127.471 48.6138 130.229 53.3689C134.063 59.9789 137.203 66.7278 139.567 73.9728C141.233 79.0776 140.678 83.0795 147.349 84.5398C152.46 85.6587 162.067 86.2263 165.403 90.7674C166.868 92.7611 168.139 95.0135 169.277 97.1937C170.46 99.4592 173.934 99.981 176.298 100.473C185.572 102.404 195.625 104.869 199.921 114.22C203.44 121.881 203.044 132.219 200.751 140.124C200.071 142.468 197.578 144.18 196.185 146.12C194.383 148.631 191.621 150.483 189.683 152.977C186.908 156.549 184.137 160.247 181.59 163.975C179.179 167.503 177.855 170.532 177.855 174.707C177.855 179.432 179.233 184.398 177.993 189.017C177.035 192.587 171.327 195.568 168.551 197.961C166.462 199.762 164.6 201.257 162.291 202.731" stroke="#011EAB" stroke-width="20" stroke-linecap="round"/>
<path d="M162.291 202.732C162.291 207.403 162.291 212.073 162.291 216.744C162.291 218.981 158.003 221.148 156.549 222.541C149.332 229.453 141.461 235.282 133.1 240.826C123.242 247.362 109.046 245.43 98.4785 242.35C91.3481 240.272 80.069 237.641 76.3777 230.756C72.6233 223.754 75.4992 215.456 73.2649 207.966C72.0566 203.915 70.1488 199.277 66.7281 196.504C63.9457 194.25 61.3389 195.118 58.3235 194.086C51.968 191.912 50.8529 188.872 50.8529 182.459C50.8529 179.921 51.6978 178.347 53.6544 176.762C55.3324 175.402 57.1001 173.889 58.6002 172.356C58.8836 172.067 61.0936 170.655 60.4333 170.865C55.4255 172.464 50.3261 174.708 44.904 174.708C37.2382 174.708 29.7092 170.765 25.328 164.704C23.3875 162.02 21.505 155.22 22.9761 152.05C23.6726 150.549 24.5298 148.805 21.8694 149.963C19.0602 151.186 15.496 149.705 13.1882 148.174C7.78293 144.59 10.9229 138.465 13.8107 134.162C15.7868 131.218 18.1554 129.113 20.9701 126.875C23.1957 125.105 25.4813 123.407 27.8183 121.774C29.3337 120.714 31.0982 120.707 32.6604 119.852C36.0071 118.021 40.1132 118.488 43.6935 117.169C47.3092 115.837 58.4622 113.293 54.5882 113.293" stroke="#011EAB" stroke-width="20" stroke-linecap="round"/>
<path d="M196.079 80.2C189.018 80.2 175.826 75.32 176.165 66.8667C176.249 64.769 178.938 63.2393 180.314 61.9219C183.031 59.3196 187.05 53.2605 187.736 49.6482C188.143 47.5016 185.76 46.2189 185.339 43.997C184.921 41.7982 184.497 35.8474 186.122 34.1073C190.214 29.7278 194.263 29.864 198.983 27.3524C201.716 25.8981 204.671 25.0841 206.912 22.9374C210.875 19.1423 215.069 15.4156 220.326 13.4451C225.941 11.341 242.119 7.09632 243.421 15.8292C244.549 23.3917 244.205 31.1445 244.205 38.8755C244.205 45.7769 249.51 48.7207 254.577 52.827C260.927 57.9735 263.465 64.7853 264.073 72.6503C264.389 76.7414 264.325 80.9579 263.289 84.9241C262.337 88.5739 259.141 88.8551 259.141 93.2684C259.141 102.947 258.583 109.138 250.382 115.564C244.977 119.799 237.379 119.221 234.432 113.577C232.997 110.829 233.276 112.056 231.39 113.577C228.208 116.144 220.008 116.756 215.993 116.756C212.468 116.756 209.094 117.301 206.405 114.725C201.527 110.054 201.058 104.141 201.058 97.86C201.058 94.4466 202.97 96.6785 200.228 97.86C196.098 99.6399 191.461 97.654 187.828 95.6967C185.018 94.183 184.463 90.6094 184.463 87.7938C184.463 85.6297 186.952 84.7167 186.952 82.5841" stroke="#011EAB" stroke-width="20" stroke-linecap="round"/>
<path d="M108.959 228.938C103.676 228.376 97.9083 219.634 96.6377 215.397C95.1171 210.327 96.3138 207.309 100.61 204.435C104.723 201.684 115.04 197.214 117.913 203.532C119.39 206.779 121.473 213.836 119.26 217.202C110.202 230.98 96.3893 206.413 96.2337 198.438C96.0588 189.475 98.8218 183.595 108.353 180.898C111.161 180.104 116.155 179.264 118.519 181.479C121.065 183.864 121.605 190.004 121.347 193.215C120.823 199.733 115.979 200.055 110.137 200.792C102.788 201.718 97.4394 197.635 94.1466 191.538C92.3904 188.286 91.9921 185.594 91.9921 181.93C91.9921 178.501 91.1551 173.881 92.6654 170.678C93.3502 169.225 99.8694 160.935 99.8694 166.39C99.8694 173.762 90.0775 177.585 83.5088 179.157C81.102 179.734 77.4844 181.15 75.1602 179.609C72.1963 177.644 71.6653 173.463 72.0295 170.323C72.3144 167.867 75.6386 165.192 77.1801 163.359C79.6826 160.384 82.3201 157.704 85.6296 155.557C88.4448 153.73 94.1859 150.591 97.7486 150.591C99.8855 150.591 99.8934 154.902 98.8931 156.073C95.7224 159.784 86.6877 159.038 82.3306 159.587C76.1176 160.37 67.4227 161.084 62.0314 157.523C60.2558 156.351 53.963 150.967 57.1502 148.592C61.2314 145.552 62.3068 152.643 60.9542 155.234C58.1768 160.554 46.8734 158.943 42.4391 157.427C37.2356 155.647 31.3975 152.805 31.3975 146.819C31.3975 142.847 42.1619 140.452 45.0313 139.855C48.2129 139.193 51.1979 139.481 54.1204 140.726C55.5908 141.351 56.233 146.391 55.164 145.239C53.0766 142.99 55.9404 138.077 57.5878 136.534C64.0924 130.443 72.4636 125.975 81.691 126.217C88.9601 126.408 98.5869 144.402 88.9624 146.078C84.1843 146.91 72.7035 150.45 70.4473 144.208C68.731 139.459 71.447 137.401 75.6315 135.954C79.4519 134.632 92.3779 130.117 94.2812 136.083C96.0625 141.666 90.8905 141.306 86.5386 141.306C80.0161 141.306 71.9858 138.419 71.4236 131.15C71.0306 126.068 73.428 122.276 77.7187 119.317C80.5438 117.369 86.7162 115.529 89.198 118.962C89.664 119.607 89.7654 121.058 89.5346 121.832C88.8708 124.057 84.4646 117.951 84.2494 117.383C81.6972 110.639 82.6607 103.467 85.9326 97.1995C86.2895 96.5159 91.7691 87.9582 93.0693 89.2035C93.9526 90.0495 91.2083 94.0581 90.7802 94.8781C89.0827 98.1296 87.4176 103.741 82.5999 102.938C77.7079 102.124 72.2082 95.441 69.6394 91.7506C68.0744 89.5023 67.152 86.3019 67.7879 83.5613C68.6308 79.9284 76.5039 78.0424 78.3246 81.5301C80.137 85.0016 77.8958 94.145 72.9048 89.3648C69.5554 86.1569 64.4447 80.5509 64.7245 75.7266C64.8076 74.2933 84.0635 73.3878 85.192 73.4052C90.0938 73.4809 91.3108 79.3017 91.3861 83.2711C91.4428 86.2545 92.6448 91.3289 89.8713 93.3949C87.5407 95.131 85.4841 86.9005 85.3267 85.8827C84.7192 81.9556 84.1785 77.8344 85.3267 73.9855C86.7215 69.31 92.2808 64.1196 97.4456 64.1196" stroke="#1085ED" stroke-width="20" stroke-linecap="round"/>
<path d="M71.996 74.5661C71.996 67.2144 81.541 58.9708 86.8417 54.8342C90.7485 51.7853 95.1454 49.0308 100.341 49.0308C105.175 49.0308 106.518 50.0464 109.093 54.1249C116.05 65.1439 115.548 81.7984 110.81 93.4274C109.895 95.6746 109.077 100.961 106.838 102.391C105.069 103.52 106.779 100.862 107.814 100.456C111.241 99.1135 117.851 99.9025 121.044 101.359C126.449 103.824 131.65 109.885 133.701 115.19C135.014 118.584 135.729 122.584 135.62 126.217C135.549 128.595 131.3 128.004 129.696 127.829C126.58 127.489 121.87 126.712 120.606 123.444C119.557 120.73 126.105 121.006 127.406 120.994C136.679 120.911 141.99 123.901 145.753 132.536C149.129 140.284 151.367 154.139 145.888 161.747C141.695 167.569 127.579 155.768 124.747 153.332C117.308 146.934 108.943 136.537 109.935 126.282C110.637 119.022 118.492 116.722 124.983 115.319C134.247 113.317 146.83 112.893 152.183 122.026C153.579 124.408 155.657 131.319 151.712 132.601C143.588 135.241 132.158 135.187 124.175 132.472C122.239 131.814 112.435 126.918 115.422 123.315C119.943 117.863 129.418 127.982 131.109 130.924C134.593 136.985 135.511 143.888 135.856 150.688C136.019 153.903 136.557 158.913 134.274 161.683C128.964 168.124 120.679 147.104 120 144.788C118.039 138.095 114.932 128.503 121.212 123.09C125.707 119.215 134.889 115.938 140.973 117.931C143.575 118.783 145.897 123.21 145.282 125.862C144.721 128.28 138.671 121.643 138.414 121.252C136.543 118.397 135.429 115.093 135.62 111.708C135.801 108.511 140.914 108.448 143.363 108.484C146.564 108.532 149.765 110.369 150.634 113.449C151.334 115.93 149.991 116.761 147.739 115.642C143.901 113.733 137.141 105.895 142.319 102.423C145.809 100.083 152.555 98.958 153.159 104.164C153.477 106.904 153.193 109.852 153.193 112.611C153.193 114.663 151.973 125.953 154.506 125.347C158.991 124.272 168.036 121.776 171.371 126.088C173.667 129.056 177.223 133.791 174.401 137.695C172.861 139.825 166.886 137.873 165.177 137.115C161.048 135.283 156.872 131.537 157.569 126.797C158.286 121.922 165.359 118.69 169.553 117.06C172.467 115.928 179.191 114.468 182.278 116.029C184.438 117.121 184.096 120.182 184.096 122.122C184.096 124.049 182.735 123.896 181.066 123.896C180.176 123.896 178.99 122.515 180.191 122.187C183.113 121.387 183.1 127.757 183.12 128.925C183.376 143.913 167.767 149.467 154.775 150.85C153.665 150.968 144.777 152.321 144.777 149.753C144.777 149.154 146.399 149.493 146.662 149.56C149.004 150.158 150.855 152.368 151.914 154.332C157.123 163.999 155.133 178.739 151.375 188.508C149.371 193.717 145.094 200.771 138.044 199.083C133.721 198.048 131.55 193.568 132.119 189.604C132.901 184.16 139.655 182.471 144.44 182.059C148.445 181.715 151.113 183.394 152.217 187.154C153.091 190.132 152.615 192.944 149.187 193.795C144.572 194.941 140.39 191.572 138.111 188.056C136.925 186.226 135.793 183.858 139.02 184.316C143.284 184.921 144.808 190.007 145.181 193.537C145.698 198.437 143.5 201.048 139.727 203.984C137.057 206.062 132.628 208.03 129.09 207.337C127.079 206.943 126.17 204.118 128.955 204.693C133.422 205.616 134.514 212.499 134.88 216.042C135.302 220.138 132.475 224.013 128.82 226.037C125.793 227.713 121.099 228.862 117.577 228.939C115.524 228.983 115.536 227.951 116.095 228.487C117.494 229.827 114.677 230.112 114.042 230.067C108.733 229.69 105.074 225.519 103.875 220.749C102.18 214.003 102.287 207.357 106.636 201.63C110.301 196.803 115.421 190.618 121.347 188.121C122.595 187.595 125.17 188.279 123.367 187.476C117.5 184.862 113.614 176.674 112.392 171.033C111.514 166.978 110.611 160.406 115.624 158.717C117.533 158.073 121.027 157.718 122.155 159.877C122.903 161.31 120.925 161.105 120.068 160.973C116.478 160.423 111.955 156.096 111.45 152.591C110.209 143.977 128.192 138.385 134.072 136.18C140.342 133.828 146.704 131.739 153.395 130.86C155.348 130.603 158.42 129.788 160.363 130.602C160.658 130.725 161.597 131.674 160.801 131.892C158.841 132.428 155.982 129.142 154.977 128.087C148.987 121.798 143.005 113.577 142.353 104.841C142.13 101.851 142.286 98.8119 142.286 95.8132C142.286 95.6206 142.294 96.4771 142.286 96.6193C142.242 97.3252 141.589 97.1996 141.007 97.1996C129.382 97.1996 125.479 88.3745 122.29 79.2088C121.13 75.8785 120.732 71.42 117.711 69.0528C114.407 66.4634 107.382 64.6016 103.505 66.7959C98.9528 69.3722 95.0219 74.0853 95.0219 79.2088C95.0219 81.0375 94.2846 84.5027 95.1566 86.173C95.5523 86.931 97.5369 87.7973 97.917 86.6244C98.5056 84.808 97.9909 82.4333 98.119 80.563C98.3865 76.6559 99.4676 72.8011 100.475 69.0205C101.087 66.7272 102.489 59.4982 105.458 58.4453C110.877 56.5228 120.288 62.8971 124.242 65.8608C128.609 69.1341 128.784 72.4973 131.076 76.8875C133.523 81.5747 135.019 86.6817 137.707 91.3639C139.027 93.6613 140.126 96.6193 143.195 96.6193C147.778 96.6193 152.214 96.0389 156.795 96.0389C166.265 96.0389 166.995 106.051 164.1 112.289C162.216 116.347 162.152 121.268 162.282 125.637C162.397 129.491 169.085 130.622 171.977 129.699" stroke="#1085ED" stroke-width="20" stroke-linecap="round"/>
<path d="M141.074 179.609C141.204 180.611 141.157 180.19 139.593 180.19C136.331 180.19 133.464 180.728 132.321 177.288C131.444 174.648 131.156 167.791 135.89 168.615C136.57 168.733 137.371 169.964 137.371 170.614C137.371 172.771 131.114 170.689 130.503 170.388C122.875 166.633 115.564 158.656 113.066 150.818C110.898 144.018 109.493 134.397 111.988 127.507C112.604 125.807 113.768 122.155 116.23 122.155C117.181 122.155 117.857 123.346 117.375 124.154C115.503 127.29 100.816 109.545 99.6001 106.55C98.6591 104.232 100.356 112.145 99.7347 112.74C98.4517 113.969 94.5007 108.058 93.8099 107.066" stroke="#1085ED" stroke-width="20" stroke-linecap="round"/>
<path d="M219.241 94.8777C219.241 92.493 225.204 85.5432 227.253 89.0742C228.015 90.3879 228.769 91.8104 228.296 93.3946C227.77 95.1586 223.454 87.4165 223.213 86.5271C222.931 85.4841 222.111 81.7351 223.482 81.0783C225.183 80.2639 229.205 80.8423 231.023 80.9816C233.699 81.1866 235.365 83.4347 236.073 85.7211C236.788 88.0328 234.995 86.9789 234.995 85.0118C234.995 83.792 235.846 83.5449 237.082 83.8833C238.559 84.2874 239.214 89.6429 239.237 90.8152C239.249 91.4368 239.729 95.7793 238.9 96.0061C237.581 96.3671 237.419 94.2043 237.419 93.4268C237.419 92.2714 237.988 91.3252 239.237 91.3956C240.396 91.4609 239.93 90.2773 239.809 88.7195C239.622 86.3001 237.497 77.4672 242.267 77.4672C243.603 77.4672 244.023 78.8666 242.57 79.176C240.83 79.5463 240.481 76.8197 240.449 75.7262C240.399 74.0633 240.018 71.5602 241.358 70.2774C242.232 69.4404 242.712 72.8692 241.055 73.6627C238.568 74.8535 235.776 71.5221 234.524 69.9227C233.853 69.0656 233.334 65.8005 233.75 66.7953C234.709 69.0917 232.093 72.2258 230.484 73.5338C224.909 78.0673 218.518 78.1142 211.498 78.0476C209.588 78.0295 203.486 78.3807 203.486 75.436C203.486 73.9187 203.447 72.8305 205.304 72.3731C208.308 71.6332 210.038 72.4087 211.027 75.1136C211.663 76.8558 211.915 79.2083 209.512 79.2083C205.843 79.2083 202.696 75.75 201.197 72.8245C200.424 71.3159 199.599 67.2617 201.062 65.8603C202.804 64.1923 202.343 67.8754 202.241 68.762C201.867 71.9845 199.312 72.4149 196.45 72.2119C193.638 72.0124 190.276 70.5842 190.155 67.4724C190.029 64.2087 195.66 64.2185 198.1 63.8291C203.13 63.0261 211.578 61.3992 214.864 66.5696C216.092 68.5011 216.38 72.8485 213.518 73.5338C204.032 75.805 198.868 59.5474 205.439 54.2533C209.009 51.3768 217.107 49.7781 220.655 53.4473C221.848 54.6819 224.054 60.1833 221.934 61.4754C215.772 65.2312 208.234 42.9678 212.306 38.3582C217.648 32.3121 224.922 48.0175 219.847 50.3199C215.673 52.2134 208.957 36.4539 214.528 33.4898C223.094 28.9319 233.048 38.2637 229.205 46.6766C227.516 50.3739 225.514 43.5507 225.3 42.5174C224.723 39.7222 222.791 34.0877 224.391 31.3296C225.284 29.7904 225.906 31.1337 225.906 32.3291C225.906 36.892 225.083 40.9118 222.876 44.9678C222.14 46.3203 218.607 51.5317 216.211 50.3843C213.076 48.883 213.464 41.8455 213.922 39.1643C214.333 36.756 216.563 34.5021 219.241 36.0691C222.293 37.8558 223.01 44.5944 221.9 47.5471C220.304 51.7934 211.422 52.0857 207.728 52.5123C202.512 53.1146 189.246 55.1838 186.318 49.3204C183.768 44.2144 189.792 42.5242 193.791 44.3874C195.384 45.1299 196.821 47.0166 196.821 48.7078C196.821 51.8125 195.609 46.8537 195.609 45.8705C195.609 38.7878 208.493 39.4977 209.546 45.5481" stroke="#1085ED" stroke-width="20" stroke-linecap="round"/>
<path d="M108.857 142.65C114.617 143.34 105.033 150.437 104.717 145.293C104.587 143.18 106.865 134.871 108.857 138.686" stroke="white" stroke-width="20" stroke-linecap="round"/>
<path d="M219.595 63.0781C218.76 63.9918 220.342 63.6189 220.342 64.8668C220.342 66.1545 219.356 66.1982 218.848 65.2246" stroke="white" stroke-width="15" stroke-linecap="round"/>
<path d="M163.284 184.544C162.992 184.501 164.258 183.633 164.416 183.516C165.383 182.795 166.579 182.039 167.259 181.002C168.647 178.884 166.465 174.239 166.155 172.087C165.711 169.005 165.056 164.812 166.776 162.03C167.836 160.316 168.87 158.963 170.24 157.544" stroke="#1085ED" stroke-width="15" stroke-linecap="round"/>
<path d="M97.2405 219.996C94.1047 219.996 92.0545 217.677 91.3305 214.203C90.7537 211.436 89.5323 209.048 89.1784 206.186C88.6171 201.649 87.7094 197.182 87.7094 192.569C87.7094 190.272 87.8577 187.608 86.9066 185.472C86.4256 184.392 84.1608 179.391 83.0976 179.258C81.9387 179.113 82.3139 180.248 82.1069 181.061C81.3248 184.135 80.9656 187.364 80.1939 190.459C79.8059 192.015 80.0125 193.514 80.4843 194.985C81.5458 198.296 82.6509 201.587 83.5588 204.959C84.2072 207.367 85.1375 209.722 85.5402 212.209C85.6926 213.15 86.1631 214.153 86.7871 214.817C88.3114 216.439 89.9052 217.973 91.3989 219.65C92.7658 221.185 94.8538 222.687 96.0107 224.311C96.2593 224.66 97.1512 225.519 96.1644 225.519C94.7609 225.519 93.3478 225.576 91.9454 225.519C89.9023 225.438 86.5033 221.831 85.5572 219.919C82.4447 213.628 83.4051 204.506 83.4051 197.67C83.4051 190.72 84.2559 184.072 85.079 177.206C85.4329 174.253 85.9622 169.666 84.1737 167.194C83.6002 166.401 82.6924 166.126 81.8678 165.794C80.447 165.222 79.0281 164.283 77.8026 163.3C75.5056 161.458 73.7184 159.042 72.0293 156.549C70.2252 153.887 69.6402 150.643 68.7839 147.496C67.2752 141.952 64.7 137.015 64.36 131.098C64.2059 128.415 64.1955 125.511 64.36 122.831C64.5179 120.26 66.4287 118.144 67.0417 115.735C67.7211 113.064 67.6799 110.565 68.0324 107.794C68.5447 103.768 70.3915 103.074 72.6442 100.544" stroke="#1085ED" stroke-width="9" stroke-linecap="round"/>
<path d="M72.2481 100.544C68.6458 100.544 64.556 96.9646 61.9609 94.4194C60.438 92.9258 59.3054 90.9676 58.4393 88.975C57.4647 86.7329 57.2596 83.6076 57.2596 81.1675C57.2596 77.967 57.005 74.8981 58.3525 71.9611C59.6065 69.2281 60.8633 66.0959 63.1926 64.2103C64.9007 62.8276 67.0219 62.0586 68.9694 61.2423C70.2466 60.707 72.3855 60.4626 73.1155 59.0305C74.9603 55.4119 79.093 53.6023 82.2405 51.5444" stroke="#1085ED" stroke-width="9" stroke-linecap="round"/>
<path d="M141.24 214.914C141.444 216.727 148.622 214.148 149.681 213.205C150.704 212.294 151.276 210.373 151.83 209.14C152.871 206.82 153.738 204.171 155.36 202.264C156.342 201.109 158.024 199.958 159.418 199.605C161.414 199.099 163.61 197.675 165.352 196.433C169.576 193.422 171.684 188.166 172.958 182.871C173.869 179.08 172.405 177.032 171.014 173.544" stroke="#1085ED" stroke-width="9" stroke-linecap="round"/>
<path d="M171.24 172.544C171.518 169.099 174.081 166.644 175.99 164.264C178.954 160.569 182.661 157.44 185.421 153.568C188.441 149.333 190.753 144.474 191.935 139.192C192.923 134.778 193.458 129.638 193.157 125.084C192.879 120.9 190.396 117.108 188.644 113.544" stroke="#1085ED" stroke-width="9" stroke-linecap="round"/>
<path d="M23.9353 145.341C23.9353 143.7 23.7035 142.017 24.7372 140.619C26.7502 137.895 29.7629 135.54 32.9344 134.337C40.3733 131.515 48.5363 130.846 55.989 128.1C61.5397 126.055 67.5875 124.869 69.9554 131.798C71.2157 135.485 71.7527 139.522 72.6507 143.314C73.7967 148.153 75.3545 152.929 76.0588 157.859C77.0211 164.596 78.4418 171.228 73.6531 176.615C72.3341 178.099 70.4083 180.938 68.1289 181.025C66.9197 181.072 66.0597 181.767 65.0549 182.406C64.6033 182.694 63.4494 183.03 64.2308 183.03C65.6446 183.03 66.7142 183.786 68.0398 184.144C70.3679 184.773 72.619 185.634 75.0564 185.814C78.6798 186.083 80.4764 185.8 83.2759 183.431" stroke="#1085ED" stroke-width="9" stroke-linecap="round"/>
<path d="M102.923 125.293C97.3839 125.293 93.4222 125.109 88.7111 128.501C88.0955 128.944 87.532 129.452 86.9068 129.882C86.537 130.136 85.8599 131.177 85.8599 130.728C85.8599 128.097 93.1233 124.781 94.9035 123.779C101.534 120.043 108.069 116.921 115.753 116.495C118.633 116.335 127.28 116.071 124.396 116.071C115.386 116.071 106.491 114.668 97.4651 114.891C90.873 115.054 84.3494 115.67 77.7518 115.67C76.1717 115.67 66.837 116.671 66.837 115.047C66.837 112.821 69.5273 110.306 71.0247 108.943C73.0918 107.062 75.6693 105.003 78.4646 104.444" stroke="#1085ED" stroke-width="9" stroke-linecap="round"/>
<path d="M210.534 90.4303C210.534 92.5808 209.5 96.3718 211.964 97.268C213.586 97.8575 214.75 99.3048 216.143 100.262C217.82 101.415 219.499 102.461 221.171 103.525C223.313 104.888 224.302 104.407 226.623 103.793C227.396 103.588 228.765 102.929 228.634 104.106C228.477 105.521 224.319 104.893 223.405 104.91C220.156 104.97 216.657 106.063 213.529 104.687C210.361 103.293 205.68 98.4558 211.562 98.0501C217.456 97.6436 225.267 96.216 230.645 99.5025C233.669 101.351 236.655 103.104 239.494 105.312C246.766 110.969 247.136 94.5694 247.136 90.7431C247.136 86.3258 250.725 83.2498 252.946 79.6151C254.442 77.1675 253.43 74.1032 252.141 71.526C250.081 67.4052 245.251 62.5173 240.79 60.979C237.967 60.0054 233.555 57.7811 232.746 54.6329C232.224 52.6032 235.474 45.5838 235.07 45.3818" stroke="#1085ED" stroke-width="9" stroke-linecap="round"/>
<path d="M242.309 57.4482C238.031 56.9728 238.116 46.0409 239.896 43.3706" stroke="#1085ED" stroke-width="9" stroke-linecap="round"/>
<path d="M239.896 43.3709C239.896 40.0394 239.886 36.7206 239.472 33.4048C238.929 29.0614 236.699 24.4617 234.667 20.6232C233.883 19.1414 231.249 20.567 230.243 21.0701C228.915 21.7342 227.197 23.757 226.221 22.4555" stroke="#1085ED" stroke-width="9" stroke-linecap="round"/>
</svg>
