<svg width="187" height="231" viewBox="0 0 187 231" fill="none" xmlns="http://www.w3.org/2000/svg">
<path d="M44.6444 90.3591C44.6444 97.7803 44.7256 105.143 44.0684 112.537C43.4754 119.208 42.1032 126.021 40.612 132.539C38.8733 140.14 37.5505 147.784 34.5955 155.037C34.1809 156.055 33.2626 158.797 31.9712 157.053C27.4373 150.933 24.9037 144.633 23.7144 136.987C22.3398 128.15 22.6985 119.05 22.7544 110.137C22.7968 103.362 23.0925 96.4813 24.6105 89.8471C25.3804 86.4824 27.2102 83.087 29.667 80.6302C31.833 78.4642 31.855 80.8795 32.0992 83.1264C33.4273 95.3449 34.1382 107.436 33.3474 119.738C32.4927 133.033 29.2202 146.038 26.7867 159.102C26.5494 160.375 25.8742 165.993 24.1945 166.366C22.4727 166.749 21.251 162.948 20.4501 161.918C18.3831 159.26 16.701 156.656 15.5537 153.469C14.2847 149.944 13.5375 145.596 13.5375 141.884C13.5375 133.618 10.8493 124.96 12.6734 116.57C13.7549 111.595 14.3498 106.341 15.2657 101.304C16.1627 96.3706 18.1602 91.3598 19.8741 86.6468C22.3344 79.8808 26.5569 74.3764 32.2593 69.9412C38.8213 64.8373 48.2008 63.5615 56.1655 62.6765C73.8338 60.7134 93.9401 64.6932 109.611 73.2055C123.412 80.7026 134.072 89.3151 142.446 102.712C148.817 112.906 152.121 125.289 154.095 137.02C155.382 144.669 156.771 154.697 154.799 162.366C153.284 168.257 148.216 173.894 143.726 177.791C137.907 182.842 133.539 188.645 126.444 192.193C123.074 193.878 119.849 195.915 116.331 197.249C113.047 198.495 109.656 199.115 106.41 200.385C100.143 202.838 93.4694 203.134 87.2724 206.146C79.4677 209.94 70.8201 211.575 63.0781 215.235C57.874 217.695 51.384 219.135 45.6685 219.395C36.6945 219.803 27.3235 222.443 21.4742 214.211C15.8772 206.333 13.7645 196.004 11.8093 186.688C8.47595 170.806 10.9369 153.652 14.6896 138.172" stroke="#EB0203" stroke-width="20" stroke-linecap="round"/>
<path d="M49.2529 193.472C49.2529 171.06 49.2529 148.647 49.2529 126.234C49.2529 118.053 50.981 142.535 50.981 150.716C50.981 156.92 45.8385 160.328 40.6761 162.91C36.7676 164.864 34.8267 163.062 32.4833 159.453C27.8039 152.247 26.4993 144.416 25.3786 136.091C24.7424 131.365 25.8857 134.772 26.3387 137.339C28.2936 148.417 29.4269 159.666 30.2431 170.878C30.9043 179.961 31.9712 188.974 31.9712 198.081C31.9712 200.804 30.9222 203.794 29.539 206.146C28.6533 207.651 26.4506 199.762 26.3387 199.233C25.5523 195.513 24.7232 189.848 25.8907 186.112C26.8212 183.134 30.8866 182.532 33.5074 182.623C40.6741 182.875 45.9768 189.233 49.0929 195.137C50.8941 198.549 51.635 202.252 52.9972 205.794C53.1147 206.099 52.7581 205.183 52.6772 204.866C51.6062 200.671 51.4002 196.079 51.4291 191.776C51.5761 169.867 67.1021 143.652 92.0729 145.532C99.5971 146.098 103.966 150.434 105.354 157.693C106.335 162.823 106.308 166.708 101.514 169.79C95.2229 173.834 85.5887 176.308 78.2156 176.895C71.3378 177.442 67.3026 173.144 67.3026 166.302C67.3026 155.406 78.614 148.291 87.8485 145.308C94.5238 143.151 108.62 140.244 113.835 147.036C120.748 156.039 110.076 170.535 104.97 177.343C97.7538 186.965 89.0246 199.086 76.7755 202.497C70.7099 204.186 66.6471 201.794 66.4065 195.297C65.9727 183.585 77.0416 174.53 86.4084 169.534C92.6485 166.206 101.513 163.029 108.778 164.35C115.839 165.633 108.611 174.826 106.41 177.151C96.3927 187.734 83.4234 197.972 70.1188 204.033C63.2391 207.168 53.8348 210.814 47.5247 204.738C34.4606 192.157 46.3745 175.738 59.9419 170.11C62.5717 169.02 71.3516 165.899 72.6151 170.686C74.3337 177.199 66.4945 184.35 62.5021 188.16C57.5538 192.882 40.4031 207.978 39.2679 192.896C36.7225 159.079 77.5447 141.338 105.642 138.619C111.196 138.082 120.5 136.441 123.468 142.748C125.112 146.243 122.772 147.28 119.595 147.644C111.066 148.623 101.55 147.549 95.1772 141.244C85.4162 131.585 84.8538 113.686 86.2163 100.856C86.673 96.5554 87.7455 90.4182 92.905 89.4627C100.517 88.0531 100.838 104.307 100.586 108.344C100.146 115.374 97.1749 127.979 90.3447 132.027C86.7652 134.148 81.2759 133.557 77.4155 133.051C70.0158 132.08 63.1205 129.448 56.8056 125.498C51.4092 122.123 42.5817 115.881 41.3161 108.921C40.4964 104.412 46.2511 103.636 49.5089 103.288C55.9034 102.604 63.4201 103.275 67.5586 108.793C68.3502 109.848 71.616 114.1 70.4389 115.705C69.2962 117.263 63.7425 104.682 63.4622 103.864C62.0115 99.6329 60.3734 92.154 63.4622 88.1826C66.9632 83.6813 74.7778 82.9205 79.9758 83.7022C84.9439 84.4492 87.2147 88.9434 87.7205 93.5591C88.2525 98.4139 81.5159 98.9804 78.1196 99.5757C71.1689 100.794 60.3239 102.463 53.7973 98.7436C51.1556 97.2381 49.7719 93.4042 50.533 90.4868C51.4804 86.8552 59.8766 85.3212 62.6301 84.7263C67.5446 83.6643 76.0793 81.7899 80.1998 85.9104C84.7292 90.4398 81.349 97.5153 77.2875 100.92C67.5195 109.108 44.4319 109.262 45.2525 92.439C45.4958 87.4506 51.4015 85.7374 55.2694 83.9582C66.1861 78.9365 78.5436 76.2904 90.5368 78.5177C101.83 80.6151 109.402 90.1985 113.003 100.6C114.635 105.313 116.196 112.449 114.283 117.369C112.819 121.134 108.217 121.177 104.746 121.338C99.1137 121.599 91.2178 120.782 88.2325 115.129C80.8204 101.093 106.726 101.482 113.643 102.136C122.323 102.957 129.127 107.694 130.797 116.537C132.11 123.494 131.824 132.221 128.172 138.491C125.65 142.822 122.541 143.399 117.867 141.692C109.829 138.755 104.544 131.047 103.21 122.746C102.405 117.735 103.564 113.077 108.65 111.193C116.141 108.419 122.376 113.332 125.996 119.738C133.148 132.391 132.847 148.607 128.396 162.046C126.201 168.673 122.882 178.048 117.195 182.687C113.495 185.706 100.192 188.449 102.698 180.095C104.46 174.221 111.579 168.873 116.875 166.27C119.272 165.092 124.995 163.249 127.244 165.694C129.538 168.187 129.479 173.5 129.292 176.671C129.266 177.125 128.376 180.98 127.308 179.199C124.736 174.912 126.304 165.334 127.788 161.021C129.701 155.463 134.164 149.913 139.629 147.484C147.035 144.193 148.334 153.344 148.334 158.557C148.334 161.923 146.606 161.348 146.606 158.333C146.606 157.499 146.524 155.526 147.758 155.453C149.533 155.348 147.232 160.312 146.926 160.765C144.056 165.017 138.553 167.95 133.421 166.334C122.45 162.88 115.82 149.64 112.875 139.451C111.035 133.085 110.315 126.712 110.315 120.122C110.315 118.218 110.382 119.28 108.906 119.738C100.88 122.228 90.9618 122.271 82.664 122.49C71.3254 122.789 58.249 122.182 48.9328 114.873C39.1453 107.194 33.5189 90.9657 44.3564 81.814C46.4376 80.0565 49.5046 77.6856 52.3892 77.6856C53.6331 77.6856 53.2283 78.7443 52.3892 79.1257C49.176 80.5863 47.1687 75.438 48.4848 73.0452C50.2219 69.8869 59.8493 65.2096 61.606 70.2289C63.5787 75.8652 58.7406 78.5607 53.8613 79.8618C51.763 80.4214 47.3692 82.1055 45.2205 81.2699C44.6782 81.059 47.0858 81.7168 47.6527 82.358C50.1963 85.2352 51.2409 89.7076 52.1331 93.3031C53.8443 100.198 54.458 107.204 54.3093 114.297C54.1435 122.212 53.6063 131.641 48.8048 138.363C45.9599 142.346 39.2063 137.392 36.5797 135.291C36.5224 135.245 36.9043 146.946 36.8997 148.284C36.8517 162.3 35.225 176.76 31.9712 190.4C31.2506 193.421 30.3683 196.398 29.667 199.425C29.5274 200.028 29.4324 201.469 28.963 201.985C27.9799 203.067 24.8943 199.983 24.4825 199.553C21.7403 196.69 20.68 192.856 19.7461 189.12C19.3972 187.725 21.2812 192.834 21.4743 193.472C22.2422 196.013 23.2887 201.27 23.3304 195.137C23.3851 187.094 23.3304 179.049 23.3304 171.006" stroke="#EB0203" stroke-width="20" stroke-linecap="round"/>
<path d="M107.594 56.1188C105.715 57.7896 100.322 55.184 98.6272 54.3176C91.2193 50.5314 84.7371 44.7633 80.1945 37.8585C78.9108 35.9073 77.5886 33.6621 77.5886 31.2863C77.5886 30.4618 77.8651 25.9186 79.0065 28.2014C79.8661 29.9207 82.4118 31.2467 83.8734 32.3977C86.0549 34.1156 88.1539 35.9384 90.3306 37.6669C92.8881 39.6979 94.9699 41.914 97.9374 43.3577C100.552 44.6295 103.664 45.5687 106.387 46.6342C108.721 47.5474 110.997 48.5311 113.534 48.5311C114.353 48.5311 116.28 48.0899 116.217 49.2209C116.145 50.5052 114.492 50.009 114.492 51.4627C114.492 55.4794 116.899 58.4965 120.336 60.43C127.445 64.4287 135.182 66.7079 143.387 66.8105C145.433 66.8361 147.42 67.2783 149.48 67.1362C150.917 67.0371 152.102 66.4237 153.465 66.1207C154.269 65.9421 155.029 65.6223 155.803 65.3543C156.603 65.0774 156.929 65.5898 156.148 66.1207C155.348 66.6647 154.196 66.7985 153.274 66.983C150.818 67.4741 148.39 67.8251 145.954 68.4583C140.501 69.8762 135.077 69.9146 129.495 69.9146C127.313 69.9146 125.487 69.3646 123.46 68.6116C122.516 68.2613 119.955 66.8249 120.624 67.5769C122.25 69.406 122.67 72.4298 123.287 74.7622C124.298 78.5806 125.7 82.6524 127.962 85.933C130.47 89.5685 133.712 91.7683 137.6 93.7123C138.212 94.0179 141.701 94.9957 141.701 95.9541C141.701 96.5714 139.706 95.4282 139.593 95.3601C137.398 94.0434 135.072 93.1463 132.848 91.9112C130.53 90.6232 128.396 88.863 126.219 87.3509C124.192 85.9437 122.133 84.7661 120.356 83.0206C116.906 79.6336 112.564 77.0694 109.664 73.1719C108.247 71.2679 107.114 69.237 105.87 67.232C105.426 66.5166 105.333 66.3123 104.912 67.1554C104.417 68.1451 103.088 68.8578 102.172 69.4164C97.0354 72.5484 90.8051 74.3634 84.9655 75.567C77.9582 77.0113 70.4019 77.657 63.2563 77.0041C59.88 76.6956 56.7545 75.6643 53.8675 73.9C51.7052 72.5786 58.3621 73.0186 58.8493 73.0186C71.5242 73.0186 91.6957 72.0511 98.2823 58.8779" stroke="#165709" stroke-width="20" stroke-linecap="round"/>
<path d="M55.2083 67.7952C50.5675 67.7952 45.9006 67.9405 41.2632 67.7749C37.6178 67.6447 33.9196 67.0714 30.3113 66.521C29.4078 66.3832 28.5217 66.1627 27.6214 66.0153C27.5825 66.009 26.7086 65.9318 26.8933 65.8333C27.6101 65.451 28.6946 66.2397 29.1888 66.6322C30.6653 67.8047 32.059 69.0787 33.5372 70.2525C36.4882 72.596 39.4467 75.0066 42.8306 76.7144C44.8907 77.7541 46.9866 78.6511 49.1206 79.5257C51.647 80.5611 54.2816 80.8613 56.9174 81.4471C58.7479 81.8539 60.6312 82.2407 62.4894 82.4988C62.834 82.5466 64.8047 83.0688 63.9051 82.7212C58.3193 80.5631 53.3258 76.7 48.1093 73.802C44.9667 72.0561 41.8945 69.8494 38.462 68.7053" stroke="#165709" stroke-width="7" stroke-linecap="round"/>
<path d="M135.929 81.0225C138.225 82.4837 140.102 84.6722 142.26 86.3349C145.187 88.5902 148.293 90.6379 151.343 92.7208C155.777 95.7487 161.111 98.4165 166.262 99.9738C167.2 100.257 171.338 101.832 168.382 101.832C166.784 101.832 165.288 101.359 163.675 101.336C160.19 101.288 156.783 100.542 153.325 100.153C151.611 99.9598 149.773 99.3544 148.068 99.3544C146.959 99.3544 145.956 99.1067 144.833 99.1067C142.473 99.1067 141.249 99.0185 139.397 97.3726" stroke="#165709" stroke-width="7" stroke-linecap="round"/>
<path d="M139.204 102.986C141.34 102.986 143.373 103.571 145.4 104.222C148.275 105.145 151.395 104.997 154.383 104.997C157.942 104.997 161.492 104.893 165.048 104.863C167.346 104.843 170.176 104.727 172.184 103.522" stroke="#165709" stroke-width="7" stroke-linecap="round"/>
<path d="M138.124 79.8687C139.1 79.8687 140.075 79.8687 141.051 79.8687C142.537 79.8687 143.566 79.5129 144.966 78.9965C150.166 77.078 155.497 75.0105 160.454 72.5321C165.211 70.1537 169.713 67.3056 174.129 64.362C174.247 64.283 175.726 63.4703 175.195 63.4703C174.759 63.4703 174.323 63.4703 173.886 63.4703C173.346 63.4703 172.776 63.2481 172.239 63.1602C170.252 62.8352 168.216 62.6241 166.211 62.4624C160.786 62.0249 155.393 61.2483 149.996 60.5919C147.388 60.2746 144.82 59.7669 142.224 59.3708C140.131 59.0516 138.037 58.8976 135.953 58.4985C133.08 57.9483 129.748 58.0926 127.308 56.3179" stroke="#165709" stroke-width="7" stroke-linecap="round"/>
<path d="M124.866 54.2246C127.859 54.2246 130.916 54.032 133.898 54.2634C135.826 54.413 137.529 55.2065 139.384 55.659C141.637 56.2085 143.883 56.5907 146.149 57.0546C150.419 57.9288 154.747 58.1832 159.058 58.7603C163.902 59.4087 168.837 59.748 173.712 60.0687C176.93 60.2804 180.168 60.6793 183.394 60.6793C184.08 60.6793 181.233 61.999 181 62.0943C177.791 63.4069 174.739 65.0797 171.541 66.4265C167.516 68.1211 163.427 69.5489 159.3 70.9719C155.072 72.43 150.711 73.5263 146.517 75.0811C141.946 76.7756 137.404 78.3435 132.716 79.6944" stroke="#165709" stroke-width="7" stroke-linecap="round"/>
<path d="M73.4872 31.3275C73.4872 29.6736 72.9601 28.3686 72.5247 26.7826C71.7173 23.8411 71.4321 20.7862 71.0811 17.7677C70.9543 16.6773 70.8289 15.5271 70.7923 14.4312C70.7812 14.0968 70.7029 13.7305 70.803 14.2815C70.9852 15.2834 73.2645 16.3873 73.9684 16.987C77.1529 19.6997 80.8271 21.8219 84.2238 24.2481C86.6523 25.9827 89.3545 27.8959 92.1587 29.0176" stroke="#165709" stroke-width="7" stroke-linecap="round"/>
<path d="M99.6657 33.0601C98.9057 32.9756 97.5208 31.4726 96.9709 30.9427C95.1657 29.2031 93.1001 27.7574 91.2924 26.0235C87.1961 22.0944 83.27 17.9173 79.0694 14.1106C77.482 12.672 75.2492 11.1204 74.2571 9.19138C74.1542 8.99118 73.6686 7.67285 73.3909 7.67285C73.2119 7.67285 73.3024 8.65948 73.2947 8.8064C73.1796 10.9928 71.8339 13.4158 71.2735 15.5328C70.5432 18.292 70.2148 20.9663 70.2148 23.8099C70.2148 27.0814 70.9553 29.6917 72.5247 32.5254C75.1448 37.2561 78.2646 41.5957 81.9567 45.5719" stroke="#165709" stroke-width="7" stroke-linecap="round"/>
<path d="M100.298 33.9404C103.455 33.9404 106.062 36.1278 109.112 36.7516C112.098 37.3624 115.027 38.1529 118.02 38.7072C120.114 39.0949 122.373 38.7719 124.498 38.8294C127.287 38.9048 127.146 43.1454 126.562 45.0628C125.901 47.235 125.206 49.4582 124.634 51.6629C124.446 52.3861 124.086 53.2554 124.009 53.9851C123.912 54.9078 123.417 53.4983 123.276 53.2518" stroke="#165709" stroke-width="7" stroke-linecap="round"/>
<path d="M69.7736 36.7214C69.7736 34.6036 69.3324 32.6748 68.9479 30.5958C68.1864 26.4778 67.559 22.1975 67.527 17.9991C67.5077 15.4777 67.9603 13.1354 68.3527 10.6638C68.5087 9.6808 68.5519 8.34983 69.0824 7.47618C69.5652 6.68086 70.0267 5.66559 70.3305 4.78785C70.6137 3.9698 70.3508 4.67772 70.6377 5.13349C72.1283 7.50078 73.4894 10.3663 75.4767 12.3536" stroke="#165709" stroke-width="7" stroke-linecap="round"/>
<path d="M68.0451 32.228C68.0451 33.2897 67.9816 34.3757 68.0547 35.4348C68.124 36.4401 68.7669 37.32 69.2932 38.1424C70.3003 39.7159 71.4976 41.1449 72.6441 42.6165C76.3652 47.3929 80.3876 52.2379 84.8088 56.3846C86.0097 57.511 87.3555 58.5742 88.7741 59.4186C89.338 59.7543 89.9895 59.8333 90.5119 60.2251" stroke="#165709" stroke-width="7" stroke-linecap="round"/>
<path d="M142.709 131.151C141.611 131.289 142.402 152.649 142.402 155.064C142.402 155.482 142.508 159.645 142.333 158.373C141.674 153.558 140.521 148.821 139.331 144.114C138.27 139.914 137.081 135.611 136.637 131.288C136.254 127.566 136.336 131.562 136.637 132.993C137.064 135.032 137.705 137.56 139.263 139.066C140.824 140.574 141.874 135.959 142.095 135.245C142.887 132.683 143.555 129.771 143.493 127.058C143.479 126.414 143.068 126.833 142.879 127.126C141.803 128.796 141.109 130.755 140.287 132.55C136.223 141.413 132.01 150.581 126.335 158.544C123.357 162.721 119.443 166.847 114.19 167.857C108.412 168.967 101.642 169.039 95.8037 168.402C91.1452 167.894 87.0177 166.036 83.8302 162.603C82.4483 161.115 82.0033 161.57 80.7259 163.047C76.17 168.314 71.1967 173.451 65.904 177.988C63.8575 179.742 62.4456 180.169 63.9937 176.999C67.9456 168.907 76.4662 162.51 83.6937 157.555C88.0118 154.594 94.4565 149.963 100.085 150.237C102.054 150.333 101.475 152.634 100.511 153.598C96.4289 157.68 90.0385 160.216 84.9559 162.706C81.6772 164.311 77.9753 166.679 74.3128 167.345C72.7434 167.63 74.4569 164.426 74.6368 164.019C76.5706 159.639 78.8709 155.365 79.5661 150.561C80.1131 146.782 78.3819 146.297 74.9438 146.212C71.2135 146.12 67.5657 146.467 63.8743 146.946C61.863 147.206 60.248 147.462 60.1731 144.95C60.0305 140.175 61.2465 135.081 63.0215 130.674C63.1355 130.391 65.0073 126.885 64.3007 127.945C60.3508 133.87 56.5715 139.926 52.7024 145.905C51.0488 148.461 49.4537 151.04 47.9437 153.683C47.775 153.978 46.2789 156.403 47.432 154.16C51.6639 145.932 56.7566 138.071 61.657 130.23" stroke="#EB0203" stroke-width="7" stroke-linecap="round"/>
<path d="M75.8024 155.181C75.8024 155.995 75.7775 154.547 75.8345 154.348C75.9835 153.826 77.1215 154.005 77.5331 154.028C78.9171 154.104 79.0578 156.491 78.5588 157.489C77.7193 159.168 75.0266 160.029 74.1999 158.066C73.5143 156.438 74.3578 154.752 75.2255 153.451" stroke="white" stroke-width="7" stroke-linecap="round"/>
<path d="M50.4184 120.567C50.7712 120.523 51.2467 119.418 50.9953 119.669C50.5714 120.093 50.75 121.133 50.2902 121.593C49.1299 122.753 49.2645 119.791 49.2645 119.413" stroke="white" stroke-width="7" stroke-linecap="round"/>
<path d="M120.801 111.336C120.801 110.256 120.284 107.493 121.378 106.849C122.337 106.285 123.901 106.792 124.519 107.586C126.419 110.029 123.178 112.006 121.378 109.606" stroke="white" stroke-width="7" stroke-linecap="round"/>
<path d="M107.532 158.643C107.532 164.005 110.055 158.923 107.532 158.643" stroke="white" stroke-width="7" stroke-linecap="round"/>
<path d="M87.9173 119.413C89.483 119.805 87.3681 121.657 86.5071 121.657C85.4919 121.657 85.6096 118.885 85.6096 118.259" stroke="white" stroke-width="7" stroke-linecap="round"/>
<path d="M27.9189 159.797C27.5315 166.382 21.4522 157.489 25.6112 157.489" stroke="white" stroke-width="7" stroke-linecap="round"/>
<path d="M71.1871 200.757C71.1871 205.507 66.818 198.449 70.0332 198.449" stroke="white" stroke-width="7" stroke-linecap="round"/>
<path d="M33.6882 98.6445C33.5143 97.2533 31.5439 99.265 30.8037 99.2215C29.8803 99.1671 30.2268 96.9898 30.2268 96.3369" stroke="white" stroke-width="7" stroke-linecap="round"/>
</svg>
